<svg width="76" height="115" viewBox="0 0 76 115" fill="none" xmlns="http://www.w3.org/2000/svg">
<path d="M7 14C10.866 14 14 10.866 14 7C14 3.13401 10.866 0 7 0C3.13401 0 0 3.13401 0 7C0 10.866 3.13401 14 7 14Z" transform="translate(17 98.4)" fill="#CCF2EA"/>
<path opacity="0.45" d="M6.2 12.4C9.62417 12.4 12.4 9.62417 12.4 6.2C12.4 2.77584 9.62417 -3.05176e-06 6.2 -3.05176e-06C2.77583 -3.05176e-06 0 2.77584 0 6.2C0 9.62417 2.77583 12.4 6.2 12.4Z" transform="translate(17.7002 99.2)" fill="white"/>
<path d="M5 10C7.76142 10 10 7.76143 10 5C10 2.23858 7.76142 0 5 0C2.23858 0 0 2.23858 0 5C0 7.76143 2.23858 10 5 10Z" transform="translate(18.8999 100.4)" fill="white"/>
<path d="M7 14C10.866 14 14 10.866 14 7C14 3.13401 10.866 0 7 0C3.13401 0 0 3.13401 0 7C0 10.866 3.13401 14 7 14Z" transform="translate(44.5996 11.9)" fill="#CCF2EA"/>
<path opacity="0.45" d="M6.2 12.4C9.62416 12.4 12.4 9.62417 12.4 6.2C12.4 2.77583 9.62416 0 6.2 0C2.77583 0 0 2.77583 0 6.2C0 9.62417 2.77583 12.4 6.2 12.4Z" transform="translate(45.3999 12.7)" fill="white"/>
<path d="M5 10C7.76142 10 10 7.76142 10 5C10 2.23858 7.76142 0 5 0C2.23857 0 0 2.23858 0 5C0 7.76142 2.23857 10 5 10Z" transform="translate(46.5996 13.9)" fill="white"/>
<path d="M2.3 4.6C3.57025 4.6 4.6 3.57026 4.6 2.3C4.6 1.02975 3.57025 0 2.3 0C1.02974 0 0 1.02975 0 2.3C0 3.57026 1.02974 4.6 2.3 4.6Z" transform="translate(34.7998 110.1)" fill="#8BEAD8"/>
<path d="M2.3 4.6C3.57025 4.6 4.6 3.57025 4.6 2.3C4.6 1.02974 3.57025 0 2.3 0C1.02974 0 0 1.02974 0 2.3C0 3.57025 1.02974 4.6 2.3 4.6Z" transform="translate(24.6001 21.6001)" fill="#8BEAD8"/>
<path d="M2.3 4.6C3.57025 4.6 4.6 3.57026 4.6 2.3C4.6 1.02975 3.57025 0 2.3 0C1.02974 0 0 1.02975 0 2.3C0 3.57026 1.02974 4.6 2.3 4.6Z" transform="translate(34.7998 10.9)" fill="#8BEAD8"/>
<path d="M2.3 4.6C3.57025 4.6 4.6 3.57025 4.6 2.3C4.6 1.02974 3.57025 0 2.3 0C1.02974 0 0 1.02974 0 2.3C0 3.57025 1.02974 4.6 2.3 4.6Z" transform="translate(37.2002 0.400024)" fill="#8BEAD8"/>
<path d="M43.6 1.52588e-06H2.4C1 1.52588e-06 1.2 1.5 1.2 2.2V8.2L0 50.8C0 54.3 3.1 55 5.4 55H41.5C43.8 55 45.7 53.1 45.7 50.8V8.2V2.2C45.8 1.5 45.3 1.52588e-06 43.6 1.52588e-06Z" transform="translate(13 34.9)" fill="#1ABC9C"/>
<path d="M6.4 25.3H4C1.8 25.3 -3.8147e-07 23.5 -3.8147e-07 21.3V1C-3.8147e-07 0.4 0.400002 0 1 0H9.4C10 0 10.4 0.4 10.4 1V21.3C10.4 23.5 8.6 25.3 6.4 25.3Z" transform="translate(31.3999 32)" fill="#009377"/>
<path d="M16.2 32.4C25.147 32.4 32.4 25.147 32.4 16.2C32.4 7.25299 25.147 0 16.2 0C7.25299 0 0 7.25299 0 16.2C0 25.147 7.25299 32.4 16.2 32.4Z" transform="translate(42.7998 21.1)" fill="#76D6BD"/>
<path opacity="0.45" d="M14 28C21.732 28 28 21.732 28 14C28 6.26801 21.732 0 14 0C6.26801 0 0 6.26801 0 14C0 21.732 6.26801 28 14 28Z" transform="translate(45 23.2999)" fill="white"/>
<path d="M13.1 26.2C20.3349 26.2 26.2 20.3349 26.2 13.1C26.2 5.86507 20.3349 0 13.1 0C5.86507 0 0 5.86507 0 13.1C0 20.3349 5.86507 26.2 13.1 26.2Z" transform="translate(45.8999 24.2)" fill="white"/>
<path d="M5.7 10L7.62939e-07 9.6L0.399998 -1.52588e-06L5.7 10Z" transform="translate(54.6997 30.1)" fill="#8BEAD8"/>
<path d="M7.62939e-07 -1.52588e-06L8.2 5.1L5.3 10L7.62939e-07 -1.52588e-06Z" transform="translate(55.1997 30.1)" fill="#CEF4EC"/>
<path d="M5.7 0.400002L7.62939e-07 0L7.6 4L5.7 0.400002ZM7.62939e-07 0L7.6 4L5.7 0.400002" transform="translate(55.1997 40.5)" fill="#4DD6BC"/>
<path d="M1.52588e-06 4.9L1.9 8.5L2.9 0L1.52588e-06 4.9Z" transform="translate(60.8994 36)" fill="#1ABC9C"/>
<path d="M11.5 23C17.8513 23 23 17.8513 23 11.5C23 5.14872 17.8513 -3.05176e-06 11.5 -3.05176e-06C5.14873 -3.05176e-06 0 5.14872 0 11.5C0 17.8513 5.14873 23 11.5 23Z" transform="translate(46 64.7001)" fill="#9EEFDF"/>
<path opacity="0.45" d="M9.8 19.6C15.2124 19.6 19.6 15.2124 19.6 9.8C19.6 4.38761 15.2124 0 9.8 0C4.38761 0 0 4.38761 0 9.8C0 15.2124 4.38761 19.6 9.8 19.6Z" transform="translate(47.7002 66.4)" fill="white"/>
<path d="M9.1 18.2C14.1258 18.2 18.2 14.1258 18.2 9.1C18.2 4.07421 14.1258 0 9.1 0C4.07421 0 0 4.07421 0 9.1C0 14.1258 4.07421 18.2 9.1 18.2Z" transform="translate(48.3999 67.1001)" fill="white"/>
<path d="M2.17696 2.81372C2.87696 2.81372 3.47696 3.11372 3.87696 3.81372C4.17696 4.31372 4.77696 4.41371 5.17696 4.01371C5.47696 3.71371 5.57696 3.31371 5.37696 3.01371C5.17696 2.71371 5.07696 2.41371 5.07696 2.11371C5.07696 1.21371 5.57696 0.413711 6.47696 0.113711C7.57696 -0.286289 8.77696 0.413712 9.07696 1.51371C9.37696 2.51371 8.67696 3.61371 7.67696 3.91371C7.47696 3.91371 7.37696 4.01371 7.17696 4.01371C6.77696 4.01371 6.37696 4.31372 6.37696 4.81372C6.37696 5.21372 6.67696 5.61371 7.07696 5.71371C7.27696 5.71371 7.37696 5.71371 7.57696 5.71371C8.57696 5.91371 9.37696 6.81372 9.27696 7.81372C9.17696 8.71372 8.57696 9.41371 7.67696 9.61371C6.67696 9.81371 5.67696 9.31371 5.27696 8.31371C5.07696 7.81371 5.17696 7.21371 5.37696 6.71371C5.47696 6.51371 5.57696 6.31371 5.47696 6.11371C5.37696 5.81371 5.17696 5.51371 4.77696 5.41371C4.47696 5.31371 4.07696 5.51372 3.87696 5.81372C3.77696 6.01372 3.57696 6.21371 3.37696 6.41371C2.27696 7.41371 0.476963 6.81371 0.0769631 5.41371C-0.223037 4.31371 0.376965 3.21371 1.47696 3.01371C1.57696 3.01371 1.67696 3.01371 1.77696 2.91371C1.97696 2.81371 2.07696 2.81372 2.17696 2.81372Z" transform="translate(52.4229 71.4863)" fill="#1ABC9C"/>
<path d="M2.17696 2.81372C2.87696 2.81372 3.47696 3.11372 3.87696 3.81372C4.17696 4.31372 4.77696 4.41371 5.17696 4.01371C5.47696 3.71371 5.57696 3.31371 5.37696 3.01371C5.17696 2.71371 5.07696 2.41371 5.07696 2.11371C5.07696 1.21371 5.57696 0.413711 6.47696 0.113711C7.57696 -0.286289 8.77696 0.413712 9.07696 1.51371C9.37696 2.51371 8.67696 3.61371 7.67696 3.91371C7.47696 3.91371 7.37696 4.01371 7.17696 4.01371C6.77696 4.01371 6.37696 4.31372 6.37696 4.81372C6.37696 5.21372 6.67696 5.61371 7.07696 5.71371C7.27696 5.71371 7.37696 5.71371 7.57696 5.71371C8.57696 5.91371 9.37696 6.81372 9.27696 7.81372C9.17696 8.71372 8.57696 9.41371 7.67696 9.61371C6.67696 9.81371 5.67696 9.31371 5.27696 8.31371C5.07696 7.81371 5.17696 7.21371 5.37696 6.71371C5.47696 6.51371 5.57696 6.31371 5.47696 6.11371C5.37696 5.81371 5.17696 5.51371 4.77696 5.41371C4.47696 5.31371 4.07696 5.51372 3.87696 5.81372C3.77696 6.01372 3.57696 6.21371 3.37696 6.41371C2.27696 7.41371 0.476964 6.81371 0.0769638 5.41371C-0.223036 4.31371 0.376962 3.21371 1.47696 3.01371C1.57696 3.01371 1.67696 3.01371 1.77696 2.91371C1.97696 2.81371 2.07696 2.81372 2.17696 2.81372Z" transform="translate(52.123 71.4863)" fill="#4DD6BC"/>
<path d="M40.5 46.8H4C1.8 46.8 0 45 0 42.8V-1.52588e-06H44.6V42.8C44.5 45 42.8 46.8 40.5 46.8Z" transform="translate(13 42.1)" fill="#A2DDD2"/>
<path d="M44.5 7.3H0V2C0 0.899998 0.9 -1.52588e-06 2 -1.52588e-06H42.6C43.7 -1.52588e-06 44.6 0.899998 44.6 2V7.3H44.5Z" transform="translate(13 35.1)" fill="#1ABC9C"/>
<path d="M44.5 7.3H0V2C0 0.899999 0.9 -7.62939e-07 2 -7.62939e-07H42.6C43.7 -7.62939e-07 44.6 0.899999 44.6 2V7.3H44.5Z" transform="translate(13 34.8)" fill="#C1EAE2"/>
<path d="M8 25.3H2.4C1.1 25.3 -3.8147e-07 24.2 -3.8147e-07 22.9V0.599998C-3.8147e-07 0.299998 0.3 0 0.6 0H10.4C10.4 0 10.7 0.0999985 10.9 0.0999985C10.4 0.0999985 10.4 0.399998 10.4 0.599998V22.9C10.4 24.2 9.3 25.3 8 25.3Z" transform="translate(30.3999 32)" fill="#009377"/>
<path d="M8 25.3H2.4C1.1 25.3 3.8147e-07 24.2 3.8147e-07 22.9V0.599998C3.8147e-07 0.299998 0.300001 0 0.600001 0H10.4C10.4 0 10.7 0 11 0C10.5 0 10.4 0.399998 10.4 0.599998V22.9C10.4 24.2 9.3 25.3 8 25.3Z" transform="translate(30.1001 32)" fill="#7CC4B3"/>
<path d="M1.7 3.4C2.63888 3.4 3.4 2.63888 3.4 1.7C3.4 0.761114 2.63888 0 1.7 0C0.761117 0 0 0.761114 0 1.7C0 2.63888 0.761117 3.4 1.7 3.4Z" transform="translate(34 50.9)" fill="#007A63"/>
<path d="M1.7 3.4C2.63889 3.4 3.4 2.63888 3.4 1.7C3.4 0.761114 2.63889 0 1.7 0C0.761117 0 0 0.761114 0 1.7C0 2.63888 0.761117 3.4 1.7 3.4Z" transform="translate(33.7002 50.9)" fill="#C1EAE2"/>
<path d="M7.2 14.4C11.1765 14.4 14.4 11.1764 14.4 7.2C14.4 3.22355 11.1765 0 7.2 0C3.22355 0 0 3.22355 0 7.2C0 11.1764 3.22355 14.4 7.2 14.4Z" transform="translate(33 60.5)" fill="#3ACCB0"/>
<path d="M5.8 11.6C9.00325 11.6 11.6 9.00325 11.6 5.8C11.6 2.59675 9.00325 0 5.8 0C2.59675 0 0 2.59675 0 5.8C0 9.00325 2.59675 11.6 5.8 11.6Z" transform="translate(34.3999 61.9)" fill="white"/>
<path d="M4.2 1.52588e-06C3 1.52588e-06 2 0.999998 2 2.2C2 2.4 2 2.7 2.1 2.9L0.1 4.9C0 5 1.52588e-06 5 1.52588e-06 5.1C1.52588e-06 5.2 1.52588e-06 6.1 1.52588e-06 6.1C1.52588e-06 6.3 0.100001 6.4 0.300001 6.4H1.7C1.9 6.4 2 6.3 2 6.1V5.6H2.5C2.7 5.6 2.8 5.5 2.8 5.3V4.8H3.3C3.4 4.8 3.5 4.8 3.5 4.7L3.8 4.4C3.9 4.4 4.1 4.4 4.2 4.4C5.4 4.4 6.4 3.4 6.4 2.2C6.4 0.999998 5.4 1.52588e-06 4.2 1.52588e-06ZM4.8 2.2C4.5 2.2 4.2 1.9 4.2 1.6C4.2 1.3 4.5 1 4.8 1C5.1 1 5.4 1.3 5.4 1.6C5.4 2 5.2 2.2 4.8 2.2Z" transform="translate(37.3999 64.4)" fill="#009377"/>
<path d="M4.2 1.52588e-06C3 1.52588e-06 2 0.999998 2 2.2C2 2.4 2 2.7 2.1 2.9L0.100001 4.9C7.59959e-07 5 -1.52588e-06 5 -1.52588e-06 5.1C-1.52588e-06 5.2 -1.52588e-06 6.1 -1.52588e-06 6.1C-1.52588e-06 6.3 0.100002 6.4 0.300002 6.4H1.7C1.9 6.4 2 6.3 2 6.1V5.6H2.5C2.7 5.6 2.8 5.5 2.8 5.3V4.8H3.3C3.4 4.8 3.5 4.8 3.5 4.7L3.8 4.4C3.9 4.4 4.1 4.4 4.2 4.4C5.4 4.4 6.4 3.4 6.4 2.2C6.4 0.999998 5.4 1.52588e-06 4.2 1.52588e-06ZM4.8 2.2C4.5 2.2 4.2 1.9 4.2 1.6C4.2 1.3 4.5 1 4.8 1C5.1 1 5.4 1.3 5.4 1.6C5.4 2 5.1 2.2 4.8 2.2Z" transform="translate(37.1001 64.4)" fill="#3ACCB0"/>
<path d="M10.6 21.2C16.4542 21.2 21.2 16.4542 21.2 10.6C21.2 4.74578 16.4542 0 10.6 0C4.74578 0 0 4.74578 0 10.6C0 16.4542 4.74578 21.2 10.6 21.2Z" transform="translate(4.7002 29.2001)" fill="#009377"/>
<path d="M8.7 17.4C13.5049 17.4 17.4 13.5049 17.4 8.7C17.4 3.89512 13.5049 0 8.7 0C3.89512 0 0 3.89512 0 8.7C0 13.5049 3.89512 17.4 8.7 17.4Z" transform="translate(6.6001 31.1001)" fill="white"/>
<path d="M2.8 0.327911C1.2 1.02791 0.4 2.82791 1.1 4.52791C1.2 4.82791 1.4 5.12791 1.6 5.42791L-3.8147e-07 9.22791C-3.8147e-07 9.32791 -3.8147e-07 9.42791 -3.8147e-07 9.52791C-3.8147e-07 9.62791 0.5 10.8279 0.5 10.8279C0.6 11.0279 0.8 11.1279 1.1 11.0279L3 10.2279C3.2 10.1279 3.3 9.92791 3.2 9.62791L2.9 8.92791L3.6 8.62791C3.8 8.52791 3.9 8.32791 3.8 8.02791L3.5 7.32791L4.1 7.02791C4.2 7.02791 4.3 6.92791 4.3 6.72791L4.5 6.12791C4.7 6.02791 4.9 6.02791 5.1 5.92791C6.7 5.22791 7.5 3.42791 6.8 1.72791C6.1 0.0279127 4.4 -0.372089 2.8 0.327911ZM4.8 2.92791C4.4 3.12791 3.9 2.92791 3.7 2.42791C3.5 2.02791 3.7 1.52791 4.2 1.32791C4.6 1.12791 5.1 1.32791 5.3 1.82791C5.5 2.32791 5.3 2.72791 4.8 2.92791Z" transform="translate(12.9004 34.2722)" fill="#00705A"/>
<path d="M2.8 0.25947C1.2 0.95947 0.4 2.75947 1.1 4.45947C1.2 4.75947 1.4 5.05947 1.6 5.35947L-1.90735e-07 9.15947C-1.90735e-07 9.25947 -1.90735e-07 9.35947 -1.90735e-07 9.45947C-1.90735e-07 9.55947 0.5 10.7595 0.5 10.7595C0.6 10.9595 0.8 11.0595 1.1 10.9595L3 10.1595C3.2 10.0595 3.3 9.85947 3.2 9.55947L2.9 8.85947L3.6 8.55947C3.8 8.45947 3.9 8.25947 3.8 7.95947L3.5 7.25947L4.1 6.95947C4.2 6.95947 4.3 6.85947 4.3 6.65947L4.5 6.05947C4.7 5.95947 4.9 5.95947 5.1 5.85947C6.7 5.15947 7.5 3.35947 6.8 1.65947C6.3 0.359467 4.4 -0.44053 2.8 0.25947ZM4.8 2.85947C4.4 3.05947 3.9 2.85947 3.7 2.35947C3.5 1.95947 3.7 1.45947 4.2 1.25947C4.6 1.05947 5.1 1.25947 5.3 1.75947C5.5 2.15947 5.3 2.65947 4.8 2.85947Z" transform="translate(12.7002 34.4406)" fill="#009377"/>
<path d="M14.8 29.6C22.9738 29.6 29.6 22.9738 29.6 14.8C29.6 6.62619 22.9738 0 14.8 0C6.62619 0 0 6.62619 0 14.8C0 22.9738 6.62619 29.6 14.8 29.6Z" transform="translate(0 74.1)" fill="#00705A"/>
<path d="M12.1 24.2C18.7826 24.2 24.2 18.7826 24.2 12.1C24.2 5.41736 18.7826 3.05176e-06 12.1 3.05176e-06C5.41736 3.05176e-06 0 5.41736 0 12.1C0 18.7826 5.41736 24.2 12.1 24.2Z" transform="translate(2.7002 76.7999)" fill="white"/>
<path d="M8.5 0C6.1 0 4.1 2 4.1 4.4C4.1 4.9 4.2 5.3 4.3 5.8L0.2 9.9C0.0999998 10 0 10.1 0 10.3C0 10.4 0 12.3 0 12.3C0 12.6 0.3 12.9 0.6 12.9H3.4C3.7 12.9 4 12.6 4 12.3V11.3H5C5.3 11.3 5.6 11 5.6 10.7V9.7H6.5C6.7 9.7 6.8 9.6 6.9 9.5L7.5 8.8C7.8 8.8 8.1 8.9 8.3 8.9C10.7 8.9 12.7 6.9 12.7 4.5C12.9 2 10.9 0 8.5 0ZM9.7 4.4C9 4.4 8.5 3.9 8.5 3.2C8.5 2.5 9 2 9.7 2C10.4 2 10.9 2.5 10.9 3.2C10.9 3.9 10.3 4.4 9.7 4.4Z" transform="translate(9 82.5)" fill="#004235"/>
<path d="M8.5 0C6.1 0 4.1 2 4.1 4.4C4.1 4.9 4.2 5.3 4.3 5.8L0.2 9.9C0.0999998 10 0 10.2 0 10.3C0 10.4 0 12.3 0 12.3C0 12.6 0.3 12.9 0.6 12.9H3.4C3.7 12.9 4 12.6 4 12.3V11.3H5C5.3 11.3 5.6 11 5.6 10.7V9.7H6.5C6.7 9.7 6.8 9.6 6.9 9.5L7.5 8.8C7.8 8.8 8.1 8.9 8.3 8.9C10.7 8.9 12.7 6.9 12.7 4.5C12.9 2 10.9 0 8.5 0ZM9.7 4.4C9 4.4 8.5 3.9 8.5 3.2C8.5 2.5 9 2 9.7 2C10.4 2 10.9 2.5 10.9 3.2C10.9 3.9 10.3 4.4 9.7 4.4Z" transform="translate(8.5 82.5)" fill="#00705A"/>
</svg>
