<svg width="72" height="112" viewBox="0 0 72 112" fill="none" xmlns="http://www.w3.org/2000/svg">
<path d="M25.9747 1.7C26.2747 1.6 26.4747 1.2 26.4747 0.9C26.4747 0.4 26.0747 0 25.5747 0C25.0747 0 24.6747 0.4 24.6747 0.9C24.6747 1.3 24.9747 1.7 25.2747 1.8V2.3V57C18.4747 57.2 10.3747 57.3 1.07474 57.3C1.07474 57.3 -0.0252594 57.1 0.0747406 59C0.0747406 60.8 -0.52526 67.3 1.67474 67.3H7.17474C7.47474 67.1 7.77474 67 8.17474 66.9C10.1747 66.5 12.6747 64.2 14.7747 64.9C15.7747 65.2 16.6747 65.7 17.5747 66.2C18.5747 66.7 19.6747 66.8 20.5747 67.1C20.6747 67.1 20.7747 67.2 20.8747 67.2H25.6747C25.8747 67.1 26.0747 67.1 26.2747 67C28.3747 66.6 30.0747 65.1 32.2747 65C34.2747 64.9 35.9747 66.2 37.7747 66.8C38.0747 66.9 38.2747 67 38.4747 67.2H45.1747C45.1747 67.2 45.2747 67.2 45.2747 67.1C46.1747 66.6 47.0747 66.3 47.9747 65.8C48.9747 65.2 49.8747 64.8 51.0747 64.9C52.4747 64.9 53.4747 65.8 54.5747 66.4C55.0747 66.7 55.6747 66.8 56.1747 67C57.7747 66.1 62.1747 63 64.3747 53.9C64.3747 53.9 65.2747 52.6 61.9747 53.5C59.4747 54.2 50.4747 56.2 27.4747 57L25.9747 1.7Z" transform="translate(2.8252 29.5)" fill="#009377"/>
<path d="M-3.8147e-07 2.81274C2.2 3.31274 4.5 3.51274 6.6 3.11274C7.7 2.91274 8.7 2.51274 9.7 2.01274C10.7 1.51274 11.7 1.01274 12.9 0.712745C14.1 0.412745 15.3 0.412745 16.5 0.712745C17.7 1.01274 18.8 1.71274 19.7 2.31274C20.6 2.91274 21.5 3.41274 22.5 3.51274C23.4 3.61274 24.5 3.31274 25.4 2.91274C26.3 2.51274 27.1 1.81274 28.2 1.11274C29.2 0.412739 30.6 -0.0872598 31.9 0.0127402C32.6 0.0127402 33.3 0.212742 33.9 0.412742C34.5 0.712742 35.1 1.11274 35.6 1.41274C36.5 2.21274 37.1 2.61274 38 2.71274C38.9 2.81274 39.7 2.51274 40.7 1.91274C41.6 1.31274 42.9 0.712745 44.2 0.712745C45.5 0.612745 46.7 1.01274 47.8 1.51274C48.9 2.01274 49.9 2.61274 50.7 3.41274L50.6 3.61274C49.6 3.11274 48.5 2.71274 47.5 2.41274C46.4 2.11274 45.4 2.01274 44.4 2.21274C43.4 2.41274 42.6 2.91274 41.7 3.51274C41.2 3.81274 40.7 4.21274 40 4.41274C39.4 4.61274 38.7 4.81274 38 4.71274C37.3 4.71274 36.6 4.51274 35.9 4.21274C35.3 3.91274 34.8 3.41274 34.4 3.11274C33.6 2.41274 32.9 2.01274 31.9 2.01274C31 1.91274 30.1 2.11274 29.2 2.71274C28.3 3.21274 27.3 4.01274 26.2 4.41274C25 4.91274 23.8 5.11274 22.5 5.01274C21.2 4.91274 20.1 4.11274 19.1 3.41274C18.2 2.71274 17.3 2.11274 16.3 1.81274C15.3 1.51274 14.2 1.51274 13.2 1.71274C12.2 1.91274 11.1 2.41274 10.1 2.81274C9 3.21274 7.9 3.51274 6.8 3.71274C4.5 4.01274 2.2 3.71274 -3.8147e-07 3.01274V2.81274Z" transform="translate(20.8999 93.0873)" fill="#004235"/>
<path d="M27 38.8V0C10.7 38.6 -9.53674e-08 38.8 -9.53674e-08 38.8C3.9 44.5 27 38.8 27 38.8Z" transform="translate(0.100098 41)" fill="#A2DDD2"/>
<path d="M12.1 0.376405C12.1 0.376405 6.9 -1.02359 4.7 1.57641C2.5 4.17641 1.6 4.47641 3.8147e-07 2.87641C3.8147e-07 2.87641 0.4 5.87641 3.4 6.77641C5.9 7.57641 9.3 3.67641 12.1 8.57641V0.376405Z" transform="translate(16.1001 31.4236)" fill="#7CC4B3"/>
<path d="M1.1 3.9C0.799999 3.9 0.6 3.8 0.4 3.6C0.2 3.5 0.100001 3.3 7.62939e-07 3L0.4 2.8C0.4 3 0.5 3.1 0.7 3.3C0.9 3.5 1 3.5 1.2 3.5V2.3C1 2.3 0.8 2.2 0.7 2.1C0.6 2 0.4 2 0.3 1.9C0.2 1.8 0.2 1.6 0.2 1.5C0.2 1.3 0.2 1.2 0.3 1C0.4 0.900001 0.5 0.800002 0.7 0.700002C0.9 0.600002 1 0.600001 1.2 0.500001V7.62939e-07H1.5V0.500001C1.7 0.500001 2 0.600002 2.1 0.700002C2.3 0.800002 2.4 1 2.5 1.2L2.2 1.5C2.1 1.3 2 1.2 1.9 1.1C1.8 0.999999 1.7 0.899998 1.5 0.899998V2.1C1.7 2.1 1.9 2.2 2 2.3C2.1 2.4 2.3 2.4 2.4 2.6C2.5 2.7 2.5 2.9 2.5 3.1C2.5 3.4 2.4 3.6 2.2 3.7C2 3.8 1.8 4 1.4 4V4.5H1.1V3.9ZM1.1 1C0.899999 1 0.699999 1.1 0.599999 1.2C0.499999 1.3 0.4 1.4 0.4 1.6C0.4 1.7 0.499999 1.9 0.599999 1.9C0.699999 2 0.899999 2 1.1 2.1V1ZM2.1 3.1C2.1 2.9 2 2.8 1.9 2.7C1.8 2.6 1.6 2.6 1.4 2.5V3.6C1.9 3.6 2.1 3.4 2.1 3.1Z" transform="translate(23.2 32.2)" fill="#009377"/>
<path d="M37.7 18.7567C40 31.1567 31.8 43.1567 19.4 45.4567C12.7 46.7567 6 44.8567 1 40.8567L0 5.75674C3 3.05674 6.7 1.15675 11 0.356746C23.5 -1.84325 35.4 6.35674 37.7 18.7567Z" transform="translate(29 36.3433)" fill="#76D6BD"/>
<path opacity="0.45" d="M34.5 16.1408C36.5 26.8408 29.4 37.2408 18.7 39.2408C11.9 40.5408 5.2 38.1408 0.700002 33.4408L7.62939e-07 6.94083C2.8 3.64083 6.8 1.24084 11.4 0.340835C22.2 -1.65916 32.5 5.34083 34.5 16.1408Z" transform="translate(29.2 39.5592)" fill="white"/>
<path d="M33.2 15.0958C35.1 25.0958 28.5 34.6958 18.5 36.5958C11.5 37.8958 4.8 35.1958 0.700002 30.0958L7.62939e-07 7.69575C2.7 3.99575 6.7 1.19575 11.6 0.295748C21.7 -1.50425 31.3 5.09575 33.2 15.0958Z" transform="translate(29.2 40.8042)" fill="white"/>
<path d="M14.9 9.3C15.5 9.8 15.9 10.7 16 11.8C16.1 13.2 15.7 14.2 14.9 15C14.2 15.7 13 16.2 11.4 16.6L11.9 19.2L10.1 19.5L9.6 17L8.2 17.3L8.7 19.8L6.7 20.1L6.2 17.5L2.6 18.2V16L3 15.9C3.6 15.8 4 15.7 4.2 15.6C4.4 15.5 4.6 15.3 4.5 15L3 6.9C2.9 6.5 2.6 6.3 2.2 6.3C2 6.3 1.5 6.3 0.800002 6.5H0.4L-1.52588e-06 4.5L1.1 4.3C2.4 4.1 3.3 3.9 3.6 3.8L3 0.800001L4.8 0.500002L5.3 3.4L6.7 3.1L6.4 0.300001L8.2 1.52588e-06L8.8 3C10.1 2.9 11.1 3 11.9 3.3C12.8 3.6 13.4 4.3 13.7 5.3C14.1 6.7 13.8 7.8 12.7 8.7C13.7 8.6 14.4 8.8 14.9 9.3ZM6.6 9.2L6.9 9.1C8 8.9 8.8 8.7 9.3 8.5C10.3 8.1 10.7 7.4 10.5 6.6C10.3 5.8 9.8 5.3 8.7 5.2C8.1 5.2 7.3 5.2 6.2 5.5C6 5.6 5.9 5.6 5.9 5.6L6.6 9.2ZM8.1 15C9.4 14.8 10.3 14.5 11 14.3C12.1 13.8 12.6 13.1 12.4 12.2C12.2 11.3 11.5 10.8 10.3 10.7C9.6 10.6 8.7 10.8 7.4 11L7 11.1L7.7 15.1L8.1 15Z" transform="translate(36.6001 49.9)" fill="#1ABC9C"/>
<path d="M14.8 9.3C15.4 9.8 15.8 10.7 15.9 11.8C16 13.2 15.6 14.2 14.8 15C14.1 15.7 12.9 16.2 11.3 16.6L11.8 19.2L10 19.5L9.4 17L8 17.3L8.5 19.8L6.6 20.1L6.1 17.5L2.5 18.2V16L2.9 15.9C3.5 15.8 3.9 15.7 4.1 15.6C4.3 15.5 4.5 15.3 4.4 15L2.9 6.9C2.8 6.5 2.5 6.3 2.1 6.3C1.9 6.3 1.4 6.3 0.699998 6.5L0.399999 6.6L1.52588e-06 4.6L1.1 4.4C2.4 4.2 3.3 4 3.6 3.9L3 0.900002L4.8 0.599998L5.3 3.5L6.7 3.2L6.2 0.299999L8 0L8.6 3C9.9 2.9 10.9 3 11.7 3.3C12.6 3.6 13.2 4.3 13.5 5.3C13.9 6.7 13.6 7.8 12.5 8.7C13.5 8.5 14.3 8.8 14.8 9.3ZM6.5 9.2L6.8 9.1C7.9 8.9 8.7 8.7 9.2 8.5C10.2 8.1 10.6 7.4 10.4 6.6C10.2 5.8 9.7 5.3 8.6 5.2C8 5.2 7.2 5.2 6.1 5.5C5.9 5.6 5.8 5.6 5.8 5.6L6.5 9.2ZM7.9 14.9C9.2 14.7 10.1 14.4 10.8 14.2C11.9 13.7 12.4 13 12.2 12.1C12 11.2 11.3 10.7 10.1 10.6C9.4 10.5 8.5 10.7 7.2 10.9L6.8 11L7.5 15L7.9 14.9Z" transform="translate(36.4001 50)" fill="#4DD6BC"/>
<path d="M7 14C10.866 14 14 10.866 14 7C14 3.13401 10.866 0 7 0C3.13401 0 0 3.13401 0 7C0 10.866 3.13401 14 7 14Z" transform="translate(8.8999 92)" fill="#CCF2EA"/>
<path opacity="0.45" d="M6.2 12.4C9.62417 12.4 12.4 9.62417 12.4 6.2C12.4 2.77583 9.62417 3.05176e-06 6.2 3.05176e-06C2.77583 3.05176e-06 0 2.77583 0 6.2C0 9.62417 2.77583 12.4 6.2 12.4Z" transform="translate(9.69995 92.8)" fill="white"/>
<path d="M5 10C7.76142 10 10 7.76142 10 5C10 2.23858 7.76142 0 5 0C2.23858 0 0 2.23858 0 5C0 7.76142 2.23858 10 5 10Z" transform="translate(10.8999 94)" fill="white"/>
<path d="M7 14C10.866 14 14 10.866 14 7C14 3.13401 10.866 0 7 0C3.13401 0 0 3.13401 0 7C0 10.866 3.13401 14 7 14Z" transform="translate(33.6001 17.5)" fill="#CCF2EA"/>
<path opacity="0.45" d="M6.2 12.4C9.62417 12.4 12.4 9.62417 12.4 6.2C12.4 2.77583 9.62417 0 6.2 0C2.77583 0 0 2.77583 0 6.2C0 9.62417 2.77583 12.4 6.2 12.4Z" transform="translate(34.3 18.3)" fill="white"/>
<path d="M5 10C7.76142 10 10 7.76142 10 5C10 2.23858 7.76142 0 5 0C2.23858 0 0 2.23858 0 5C0 7.76142 2.23858 10 5 10Z" transform="translate(35.5 19.5)" fill="white"/>
<path d="M2.3 4.6C3.57025 4.6 4.6 3.57025 4.6 2.3C4.6 1.02974 3.57025 0 2.3 0C1.02974 0 0 1.02974 0 2.3C0 3.57025 1.02974 4.6 2.3 4.6Z" transform="translate(3.1001 107.4)" fill="#8BEAD8"/>
<path d="M2.3 4.6C3.57026 4.6 4.6 3.57025 4.6 2.3C4.6 1.02974 3.57026 0 2.3 0C1.02975 0 0 1.02974 0 2.3C0 3.57025 1.02975 4.6 2.3 4.6Z" transform="translate(51.6001 17.5)" fill="#8BEAD8"/>
<path d="M2.3 4.6C3.57025 4.6 4.6 3.57025 4.6 2.3C4.6 1.02974 3.57025 0 2.3 0C1.02974 0 0 1.02974 0 2.3C0 3.57025 1.02974 4.6 2.3 4.6Z" transform="translate(46.3 9.09998)" fill="#8BEAD8"/>
<path d="M2.3 4.6C3.57026 4.6 4.6 3.57025 4.6 2.3C4.6 1.02974 3.57026 0 2.3 0C1.02975 0 0 1.02974 0 2.3C0 3.57025 1.02975 4.6 2.3 4.6Z" transform="translate(52.8999)" fill="#8BEAD8"/>
</svg>
