<svg width="81" height="113" viewBox="0 0 81 113" fill="none" xmlns="http://www.w3.org/2000/svg">
<path d="M7 14C10.866 14 14 10.866 14 7C14 3.13401 10.866 0 7 0C3.13401 0 0 3.13401 0 7C0 10.866 3.13401 14 7 14Z" transform="translate(24.8994 92.4)" fill="#CCF2EA"/>
<path opacity="0.45" d="M6.2 12.4C9.62416 12.4 12.4 9.62417 12.4 6.2C12.4 2.77584 9.62416 -3.05176e-06 6.2 -3.05176e-06C2.77583 -3.05176e-06 0 2.77584 0 6.2C0 9.62417 2.77583 12.4 6.2 12.4Z" transform="translate(25.5996 93.2)" fill="white"/>
<path d="M5 10C7.76142 10 10 7.76143 10 5C10 2.23858 7.76142 0 5 0C2.23858 0 0 2.23858 0 5C0 7.76143 2.23858 10 5 10Z" transform="translate(26.7993 94.4)" fill="white"/>
<path d="M7 14C10.866 14 14 10.866 14 7C14 3.13401 10.866 0 7 0C3.13401 0 0 3.13401 0 7C0 10.866 3.13401 14 7 14Z" transform="translate(33.3994 17.5)" fill="#CCF2EA"/>
<path opacity="0.45" d="M6.2 12.4C9.62417 12.4 12.4 9.62417 12.4 6.2C12.4 2.77583 9.62417 0 6.2 0C2.77584 0 0 2.77583 0 6.2C0 9.62417 2.77584 12.4 6.2 12.4Z" transform="translate(34.1992 18.3)" fill="white"/>
<path d="M5 10C7.76143 10 10 7.76142 10 5C10 2.23858 7.76143 0 5 0C2.23858 0 0 2.23858 0 5C0 7.76142 2.23858 10 5 10Z" transform="translate(35.3994 19.5)" fill="white"/>
<path d="M2.3 4.6C3.57025 4.6 4.6 3.57025 4.6 2.3C4.6 1.02974 3.57025 3.05176e-06 2.3 3.05176e-06C1.02974 3.05176e-06 0 1.02974 0 2.3C0 3.57025 1.02974 4.6 2.3 4.6Z" transform="translate(18.9995 107.8)" fill="#8BEAD8"/>
<path d="M2.3 4.6C3.57025 4.6 4.6 3.57025 4.6 2.3C4.6 1.02974 3.57025 0 2.3 0C1.02974 0 0 1.02974 0 2.3C0 3.57025 1.02974 4.6 2.3 4.6Z" transform="translate(51.4995 17.5)" fill="#8BEAD8"/>
<path d="M2.3 4.6C3.57026 4.6 4.6 3.57025 4.6 2.3C4.6 1.02974 3.57026 0 2.3 0C1.02975 0 0 1.02974 0 2.3C0 3.57025 1.02975 4.6 2.3 4.6Z" transform="translate(46.0996 9.09998)" fill="#8BEAD8"/>
<path d="M2.3 4.6C3.57025 4.6 4.6 3.57025 4.6 2.3C4.6 1.02974 3.57025 0 2.3 0C1.02974 0 0 1.02974 0 2.3C0 3.57025 1.02974 4.6 2.3 4.6Z" transform="translate(52.7998)" fill="#8BEAD8"/>
<path d="M11.5 23C17.8513 23 23 17.8513 23 11.5C23 5.14873 17.8513 0 11.5 0C5.14873 0 0 5.14873 0 11.5C0 17.8513 5.14873 23 11.5 23Z" transform="translate(18.3994 32)" fill="#9EEFDF"/>
<path opacity="0.45" d="M9.8 19.6C15.2124 19.6 19.6 15.2124 19.6 9.8C19.6 4.38761 15.2124 0 9.8 0C4.38761 0 0 4.38761 0 9.8C0 15.2124 4.38761 19.6 9.8 19.6Z" transform="translate(20.0996 33.7)" fill="white"/>
<path d="M9.1 18.2C14.1258 18.2 18.2 14.1258 18.2 9.1C18.2 4.07421 14.1258 0 9.1 0C4.07421 0 0 4.07421 0 9.1C0 14.1258 4.07421 18.2 9.1 18.2Z" transform="translate(20.7993 34.4)" fill="white"/>
<path d="M2.17696 2.81371C2.87696 2.81371 3.47696 3.11371 3.87696 3.81371C4.17696 4.31371 4.77696 4.41371 5.17696 4.01371C5.47696 3.71371 5.57696 3.31371 5.37696 3.01371C5.17696 2.71371 5.07696 2.41371 5.07696 2.11371C5.07696 1.21371 5.57696 0.413712 6.47696 0.113712C7.57696 -0.286288 8.77696 0.413714 9.07696 1.51371C9.37696 2.51371 8.67696 3.61371 7.67696 3.91371C7.47696 3.91371 7.37696 4.01371 7.17696 4.01371C6.77696 4.01371 6.37696 4.31371 6.37696 4.81371C6.37696 5.21371 6.67696 5.61371 7.07696 5.71371C7.27696 5.71371 7.37696 5.71371 7.57696 5.71371C8.57696 5.91371 9.37696 6.81371 9.27696 7.81371C9.17696 8.71371 8.57696 9.41371 7.67696 9.61371C6.67696 9.81371 5.67696 9.31371 5.27696 8.31371C5.07696 7.81371 5.17696 7.21371 5.37696 6.71371C5.47696 6.51371 5.57696 6.31371 5.47696 6.11371C5.37696 5.81371 5.17696 5.51371 4.77696 5.41371C4.47696 5.31371 4.07696 5.51371 3.87696 5.81371C3.77696 6.01371 3.57696 6.21371 3.37696 6.41371C2.27696 7.41371 0.476963 6.81371 0.0769627 5.41371C-0.223037 4.31371 0.376962 3.21371 1.47696 3.01371C1.57696 3.01371 1.67696 3.01371 1.77696 2.91371C1.97696 2.81371 2.07696 2.81371 2.17696 2.81371Z" transform="translate(24.8223 38.8862)" fill="#1ABC9C"/>
<path d="M2.17696 2.81371C2.87696 2.81371 3.47696 3.11371 3.87696 3.81371C4.17696 4.31371 4.77696 4.41371 5.17696 4.01371C5.47696 3.71371 5.57696 3.31371 5.37696 3.01371C5.17696 2.71371 5.07696 2.41371 5.07696 2.11371C5.07696 1.21371 5.57696 0.413712 6.47696 0.113712C7.57696 -0.286288 8.77696 0.413714 9.07696 1.51371C9.37696 2.51371 8.67696 3.61371 7.67696 3.91371C7.47696 3.91371 7.37696 4.01371 7.17696 4.01371C6.77696 4.01371 6.37696 4.31371 6.37696 4.81371C6.37696 5.21371 6.67696 5.61371 7.07696 5.71371C7.27696 5.71371 7.37696 5.71371 7.57696 5.71371C8.57696 5.91371 9.37696 6.81371 9.27696 7.81371C9.17696 8.71371 8.57696 9.41371 7.67696 9.61371C6.67696 9.81371 5.67696 9.31371 5.27696 8.31371C5.07696 7.81371 5.17696 7.21371 5.37696 6.71371C5.47696 6.51371 5.57696 6.31371 5.47696 6.11371C5.37696 5.81371 5.17696 5.51371 4.77696 5.41371C4.47696 5.31371 4.07696 5.51371 3.87696 5.81371C3.77696 6.01371 3.57696 6.21371 3.37696 6.41371C2.27696 7.41371 0.476963 6.81371 0.0769635 5.41371C-0.223037 4.31371 0.376963 3.21371 1.47696 3.01371C1.57696 3.01371 1.67696 3.01371 1.77696 2.91371C1.97696 2.81371 2.07696 2.81371 2.17696 2.81371Z" transform="translate(24.5225 38.8862)" fill="#4DD6BC"/>
<path d="M16.2 32.4C25.147 32.4 32.4 25.147 32.4 16.2C32.4 7.25298 25.147 0 16.2 0C7.25299 0 0 7.25298 0 16.2C0 25.147 7.25299 32.4 16.2 32.4Z" transform="translate(29.5996 61)" fill="#76D6BD"/>
<path opacity="0.45" d="M14 28C21.732 28 28 21.732 28 14C28 6.26801 21.732 0 14 0C6.26801 0 0 6.26801 0 14C0 21.732 6.26801 28 14 28Z" transform="translate(31.7998 63.2)" fill="white"/>
<path d="M13.1 26.2C20.3349 26.2 26.2 20.3349 26.2 13.1C26.2 5.86507 20.3349 0 13.1 0C5.86507 0 0 5.86507 0 13.1C0 20.3349 5.86507 26.2 13.1 26.2Z" transform="translate(32.6997 64.1)" fill="white"/>
<path d="M7.62939e-07 4.9L1.9 8.5L2.9 1.52588e-06L7.62939e-07 4.9Z" transform="translate(47.6992 75.9)" fill="#1ABC9C"/>
<path d="M5.7 10L-1.52588e-06 9.6L0.4 0L5.7 10Z" transform="translate(41.5996 70)" fill="#8BEAD8"/>
<path d="M0 0L8.2 5.1L5.3 10L0 0Z" transform="translate(41.9995 70)" fill="#CEF4EC"/>
<path d="M5.7 0.300003L0 0L7.6 4L5.7 0.300003ZM0 0L7.6 4L5.7 0.400002" transform="translate(41.9995 80.5)" fill="#4DD6BC"/>
<path d="M5.62456 0.213844C6.32455 0.513844 6.82456 1.11384 7.02456 1.91384C7.12456 2.41384 7.12456 2.81384 7.02456 3.21384C6.92456 3.61384 6.72456 3.91385 6.52456 4.11385C6.32456 4.31385 6.02455 4.51385 5.82455 4.51385C6.12456 4.41385 6.42456 4.41385 6.72456 4.51385C7.02456 4.61385 7.42456 4.71385 7.72456 5.01385C8.02456 5.31385 8.22456 5.71384 8.42456 6.21384C8.52456 6.71384 8.52456 7.31384 8.32456 7.81384C8.12456 8.31384 7.72456 8.71385 7.32455 9.11385C6.92455 9.51385 6.22456 9.81385 5.52456 10.0138C4.52456 10.3138 3.62456 10.3138 2.92456 10.1138C2.22456 9.91385 1.62456 9.41384 1.12456 8.71384L3.12456 7.11385C3.32456 7.61385 3.52455 7.91385 3.82455 8.11385C4.12456 8.31385 4.52456 8.31385 4.92456 8.11385C5.32456 8.01385 5.62456 7.81385 5.82455 7.51385C6.02455 7.21385 6.02456 6.91385 5.92456 6.61385C5.82456 6.21385 5.62456 6.01384 5.32455 5.91384C5.02455 5.81384 4.62456 5.81385 4.22456 6.01385L3.82455 6.21384L3.42456 4.61385L3.82455 4.51385C4.32455 4.41385 4.62456 4.21384 4.72456 3.91384C4.92456 3.71384 4.92455 3.31385 4.82455 3.01385C4.72456 2.71385 4.52455 2.41384 4.32455 2.31384C4.12456 2.21384 3.72456 2.11384 3.42456 2.21384C2.62456 2.41384 2.32456 3.01384 2.42456 3.91384L0.0245552 3.81384C-0.0754448 2.91384 0.124555 2.21385 0.724555 1.61385C1.22456 1.01385 2.02456 0.613842 3.02456 0.313842C4.02456 -0.0861576 4.92456 -0.0861561 5.62456 0.213844Z" transform="translate(0.575195 61.7861)" fill="#1ABC9C"/>
<path d="M0.339079 6.19219C-0.560921 2.89219 0.339079 0.892187 2.93908 0.192187C5.53908 -0.507813 7.33908 0.69219 8.23908 3.99219C9.13908 7.29219 8.23908 9.29219 5.63908 9.99219C3.03908 10.6922 1.23908 9.39219 0.339079 6.19219ZM6.13908 6.99219C6.23908 6.49219 6.13908 5.69219 5.83908 4.59219C5.53908 3.49219 5.23908 2.79219 4.83908 2.39219C4.43908 1.99219 4.03908 1.89219 3.53908 1.99219C3.03908 2.09219 2.73908 2.49219 2.53908 2.99219C2.43908 3.49219 2.53908 4.29219 2.83908 5.39219C3.13908 6.49219 3.43908 7.19219 3.83908 7.59219C4.23908 7.99219 4.63908 8.09219 5.13908 7.99219C5.63908 7.89219 6.03908 7.59219 6.13908 6.99219Z" transform="translate(9.46045 59.4078)" fill="#1ABC9C"/>
<path d="M8.6 2.225L10.2 2.825L1.6 8.825L-7.62939e-07 8.225L8.6 2.225ZM4.9 1.425C5.2 2.025 5.2 2.625 4.9 3.325C4.6 4.025 4.2 4.525 3.7 4.725C3.1 5.025 2.5 5.025 1.8 4.725C1.1 4.425 0.600001 4.025 0.400001 3.525C0.100001 2.925 0.100001 2.325 0.400001 1.625C0.700001 0.924999 1.1 0.425002 1.6 0.225002C2.2 -0.0749985 2.8 -0.0749985 3.5 0.225002C4.2 0.425002 4.7 0.824998 4.9 1.425ZM2.4 1.625C2.2 1.725 2.1 1.925 2 2.225C1.9 2.525 1.9 2.725 1.9 2.925C1.9 3.125 2.1 3.225 2.3 3.325C2.5 3.425 2.7 3.425 2.9 3.325C3.1 3.225 3.2 3.025 3.3 2.725C3.4 2.425 3.4 2.225 3.4 2.025C3.4 1.825 3.2 1.625 2.9 1.625C2.8 1.525 2.6 1.525 2.4 1.625ZM9.7 7.425C10 8.025 10 8.625 9.7 9.325C9.4 10.025 9 10.525 8.5 10.725C7.9 11.025 7.3 11.025 6.6 10.725C5.9 10.425 5.4 10.025 5.2 9.525C4.9 8.925 4.9 8.325 5.2 7.625C5.5 6.925 5.9 6.425 6.4 6.225C7 5.925 7.6 5.925 8.3 6.225C9 6.425 9.4 6.825 9.7 7.425ZM7.1 7.625C6.9 7.725 6.8 7.925 6.7 8.225C6.6 8.525 6.6 8.725 6.6 8.925C6.6 9.125 6.8 9.325 7.1 9.325C7.3 9.425 7.5 9.425 7.7 9.325C7.9 9.225 8 9.025 8.1 8.725C8.2 8.425 8.2 8.225 8.2 8.025C8.1 7.825 8 7.625 7.7 7.625C7.5 7.525 7.3 7.525 7.1 7.625Z" transform="translate(15.2998 55.175)" fill="#A2DDD2"/>
<path d="M7.1 5.1C7.5 5.5 7.7 5.9 7.9 6.4C8 6.9 8 7.4 7.8 8C7.6 8.8 7.3 9.3 6.8 9.8C6.3 10.2 5.8 10.5 5.2 10.6C4.6 10.7 3.9 10.6 3.2 10.5C2.3 10.3 1.6 9.9 1.1 9.4C0.6 8.9 0.200002 8.3 1.52588e-06 7.5L2.5 6.9C2.5 7.4 2.6 7.7 2.7 8C2.9 8.3 3.2 8.5 3.7 8.6C4.2 8.7 4.5 8.7 4.9 8.5C5.2 8.3 5.4 8 5.6 7.6C5.7 7.2 5.7 6.8 5.5 6.5C5.3 6.2 5 6 4.5 5.9C3.8 5.7 3.2 5.8 2.8 6L1 5.2L3.1 -7.62939e-07L9.1 1.6L8.6 3.5L4.4 2.4L3.7 4.1C3.6 4.3 3.6 4.4 3.5 4.4C3.8 4.2 4.1 4.1 4.4 4.1C4.8 4.1 5.2 4.1 5.6 4.2C6.2 4.5 6.7 4.7 7.1 5.1Z" transform="translate(61.8999 59.3)" fill="#1ABC9C"/>
<path d="M2.7 0L7.3 1.3C9.6 1.9 10.5 3.1 10 4.8C9.8 5.4 9.6 5.8 9.1 6.1C8.7 6.4 8.1 6.5 7.5 6.4C8.2 6.7 8.7 7.1 8.9 7.6C9.2 8.1 9.2 8.7 9 9.3C8.8 10.1 8.3 10.7 7.6 11C6.9 11.3 6 11.3 4.8 11L1.52588e-06 9.5L2.7 0ZM5 9C5.4 9.1 5.8 9.1 6.1 9C6.4 8.9 6.6 8.6 6.7 8.3C6.8 8 6.8 7.7 6.6 7.4C6.4 7.2 6.1 7 5.7 6.9L3.7 6.3L3.1 8.4L5 9ZM5.8 5C6.7 5.2 7.2 5 7.4 4.3C7.6 3.6 7.2 3.1 6.3 2.9L4.6 2.5L4 4.6L5.8 5Z" transform="translate(70.3999 61.5)" fill="#1ABC9C"/>
<path d="M5.28114 9.5C4.48114 9.7 3.88114 9.8 3.28114 9.8C2.68114 9.7 2.18114 9.6 1.58114 9.2L2.08114 7.6C2.38114 7.9 2.78114 8.1 3.18114 8.1C3.58114 8.1 4.08114 8.2 4.58114 8L3.88114 6.2C3.28114 6.3 2.78114 6.4 2.28114 6.4C1.88114 6.4 1.38114 6.3 1.08114 6.1C0.681139 5.9 0.381137 5.6 0.181137 5C-0.118863 4.4 -0.0188604 3.7 0.28114 3.1C0.58114 2.5 1.18114 1.9 1.98114 1.5L1.68114 0.5L2.88114 0L3.28114 1.1C3.98114 0.899998 4.58114 0.800002 5.08114 0.900002C5.58114 1 6.18114 1.1 6.68114 1.4L6.08114 3C5.68114 2.7 5.38114 2.5 4.98114 2.5C4.58114 2.4 4.18114 2.5 3.78114 2.6L4.58114 4.5C5.18114 4.4 5.68114 4.3 6.18114 4.3C6.58114 4.3 7.08114 4.4 7.38114 4.6C7.78114 4.8 8.08114 5.2 8.28114 5.7C8.58114 6.3 8.48114 7 8.18114 7.6C7.88114 8.2 7.28114 8.7 6.48114 9.1L6.88114 10.2L5.68114 10.7L5.28114 9.5ZM2.68114 3.1C2.38114 3.3 2.18114 3.5 2.08114 3.7C1.98114 3.9 1.98114 4.1 2.08114 4.4C2.18114 4.6 2.28114 4.7 2.48114 4.8C2.68114 4.9 2.98114 4.9 3.28114 4.8L2.68114 3.1ZM6.48114 6.5C6.38114 6.3 6.28114 6.2 6.08114 6.1C5.88114 6 5.58114 6 5.28114 6.1L5.88114 7.7C6.38114 7.3 6.58114 6.9 6.48114 6.5Z" transform="translate(56.4189 55.5)" fill="#A2DDD2"/>
<path d="M11.6 0H0V2.9H11.6V0Z" transform="translate(34.1997 33)" fill="#009377"/>
<path d="M5.7 0H0V57.5H5.7V0Z" transform="translate(37.2998 35.3)" fill="#009377"/>
<path d="M17.5 0H0V2.9H17.5V0Z" transform="translate(32.0996 88.4)" fill="#009377"/>
<path d="M30.4 11.5353C24.8 11.5353 21 9.43529 17.4 7.33529C13 4.83529 8.5 2.33529 0.2 3.03529L3.8147e-07 0.135288C9.2 -0.664712 14.4 2.23529 18.9 4.83529C22.5 6.83529 25.6 8.63529 30.5 8.63529V11.5353H30.4Z" transform="translate(9.59961 33.2648)" fill="#009377"/>
<path d="M-1.52588e-06 11.509V8.60903C4.8 8.60903 8 6.80903 11.6 4.80903C16.1 2.20903 21.3 -0.59097 30.5 0.10903L30.3 3.00903C21.9 2.30903 17.4 4.90903 13.1 7.30903C9.4 9.30903 5.6 11.509 -1.52588e-06 11.509Z" transform="translate(40.0996 33.291)" fill="#009377"/>
<path d="M28.3 3.05176e-06H0V2.9H28.3V3.05176e-06Z" transform="translate(26.7998 91.3)" fill="#009377"/>
<path d="M6.4 3.2C6.4 5 5 6.4 3.2 6.4C1.4 6.4 0 4.9 0 3.2C0 1.4 1.4 -7.62939e-07 3.2 -7.62939e-07C4.9 -7.62939e-07 6.4 1.4 6.4 3.2Z" transform="translate(36.9995 25.3)" fill="#00705A"/>
<path d="M35.8 0H0V0.999998H35.8V0Z" transform="translate(3.5127 69.3171) rotate(-76.043)" fill="#005444"/>
<path d="M1 0H0V35.8H1V0Z" transform="translate(12.1909 34.8358) rotate(-13.9932)" fill="#005444"/>
<path d="M1 0H0V35.5H1V0Z" transform="translate(12.0996 34.7001)" fill="#005444"/>
<path d="M35.8 0H0V0.999998H35.8V0Z" transform="translate(59.6514 69.3606) rotate(-76.0777)" fill="#005444"/>
<path d="M0.999998 0H0V35.8H0.999998V0Z" transform="translate(68.2896 34.8477) rotate(-13.9932)" fill="#005444"/>
<path d="M9.4 -3.05176e-06H-1.90735e-07C-1.90735e-07 -3.05176e-06 0.700001 6.1 9.4 6.1C18.1 6.1 18.8 -3.05176e-06 18.8 -3.05176e-06H9.4Z" transform="translate(3.19971 69.2001)" fill="#009377"/>
<path d="M1 0H3.05176e-06V35.5H1V0Z" transform="translate(68.2998 34.7001)" fill="#005444"/>
<path d="M6.4 3.2C6.4 5 5 6.4 3.2 6.4C1.4 6.4 -3.8147e-07 5 -3.8147e-07 3.2C-3.8147e-07 1.4 1.4 0 3.2 0C5 0 6.4 1.4 6.4 3.2Z" transform="translate(9.3999 31.5)" fill="#00705A"/>
<path d="M6.4 3.2C6.4 5 4.9 6.4 3.2 6.4C1.4 6.4 1.52588e-06 5 1.52588e-06 3.2C1.52588e-06 1.4 1.4 0 3.2 0C5 0 6.4 1.4 6.4 3.2Z" transform="translate(65.3999 31.5)" fill="#00705A"/>
<path d="M9.4 -3.05176e-06H1.52588e-06C1.52588e-06 -3.05176e-06 0.700004 6.1 9.4 6.1C18.1 6.1 18.8 -3.05176e-06 18.8 -3.05176e-06H9.4Z" transform="translate(59.3999 69.2001)" fill="#009377"/>
<path d="M9.4 -3.05176e-06H3.8147e-07V6.1C8.7 6.1 9.4 -3.05176e-06 9.4 -3.05176e-06Z" transform="translate(12.5996 69.2001)" fill="#00705A"/>
<path d="M2.9 0H0V57.5H2.9V0Z" transform="translate(40.0996 35.3)" fill="#00705A"/>
<path d="M9.4 -3.05176e-06H-3.05176e-06V6.1C8.7 6.1 9.4 -3.05176e-06 9.4 -3.05176e-06Z" transform="translate(68.6997 69.2001)" fill="#00705A"/>
<path d="M9.5 0H0V2.9H9.5V0Z" transform="translate(40.0996 88.4)" fill="#00705A"/>
<path d="M14.9 3.05176e-06H0V2.9H14.9V3.05176e-06Z" transform="translate(40.0996 91.3)" fill="#00705A"/>
<path d="M5.7 0H0V2.9H5.7V0Z" transform="translate(40.0996 33)" fill="#00705A"/>
</svg>
