<svg width="77" height="118" viewBox="0 0 77 118" fill="none" xmlns="http://www.w3.org/2000/svg">
<path d="M7.62939e-07 20.2H16.4L16.6 -3.05176e-06H0.3L7.62939e-07 20.2Z" transform="translate(15.2 97.2)" fill="url(#paint0_linear)"/>
<path d="M-1.52588e-06 39.2H16.3V-3.05176e-06H-1.52588e-06V39.2Z" transform="translate(33.6001 78.2)" fill="url(#paint1_linear)"/>
<path d="M0 53.6H16.3V50.8V-7.62939e-07H0V53.6Z" transform="translate(52 63.8)" fill="url(#paint2_linear)"/>
<path fill-rule="evenodd" clip-rule="evenodd" d="M-7.62939e-07 18C10.1 62.5 47 62.1 51.1 18.4L58.3 21.5L46.7 7.62939e-07L38.1 20.8L44.5 18.3C47 52.3 11.5 62.2 -7.62939e-07 18Z" transform="translate(5.80005 53.2)" fill="#00705A"/>
<path d="M7 14C10.866 14 14 10.866 14 7C14 3.13401 10.866 0 7 0C3.13401 0 0 3.13401 0 7C0 10.866 3.13401 14 7 14Z" transform="translate(62.6001 92.4)" fill="#CCF2EA"/>
<path opacity="0.45" d="M6.2 12.4C9.62417 12.4 12.4 9.62417 12.4 6.2C12.4 2.77584 9.62417 -3.05176e-06 6.2 -3.05176e-06C2.77583 -3.05176e-06 3.05176e-06 2.77584 3.05176e-06 6.2C3.05176e-06 9.62417 2.77583 12.4 6.2 12.4Z" transform="translate(63.3003 93.2)" fill="white"/>
<path d="M5 10C7.76142 10 10 7.76143 10 5C10 2.23858 7.76142 0 5 0C2.23858 0 0 2.23858 0 5C0 7.76143 2.23858 10 5 10Z" transform="translate(64.5 94.4)" fill="white"/>
<path d="M7 14C10.866 14 14 10.866 14 7C14 3.13401 10.866 0 7 0C3.134 0 0 3.13401 0 7C0 10.866 3.134 14 7 14Z" transform="translate(35.2 17.5)" fill="#CCF2EA"/>
<path opacity="0.45" d="M6.2 12.4C9.62416 12.4 12.4 9.62417 12.4 6.2C12.4 2.77583 9.62416 0 6.2 0C2.77583 0 0 2.77583 0 6.2C0 9.62417 2.77583 12.4 6.2 12.4Z" transform="translate(36 18.3)" fill="white"/>
<path d="M5 10C7.76142 10 10 7.76142 10 5C10 2.23858 7.76142 0 5 0C2.23857 0 0 2.23858 0 5C0 7.76142 2.23857 10 5 10Z" transform="translate(37.2 19.5)" fill="white"/>
<path d="M2.3 4.6C3.57025 4.6 4.6 3.57025 4.6 2.3C4.6 1.02974 3.57025 3.05176e-06 2.3 3.05176e-06C1.02974 3.05176e-06 -3.05176e-06 1.02974 -3.05176e-06 2.3C-3.05176e-06 3.57025 1.02974 4.6 2.3 4.6Z" transform="translate(56.7 107.8)" fill="#8BEAD8"/>
<path d="M2.3 4.6C3.57025 4.6 4.6 3.57025 4.6 2.3C4.6 1.02974 3.57025 0 2.3 0C1.02974 0 3.05176e-06 1.02974 3.05176e-06 2.3C3.05176e-06 3.57025 1.02974 4.6 2.3 4.6Z" transform="translate(53.3 17.5)" fill="#8BEAD8"/>
<path d="M2.3 4.6C3.57026 4.6 4.6 3.57025 4.6 2.3C4.6 1.02974 3.57026 0 2.3 0C1.02975 0 0 1.02974 0 2.3C0 3.57025 1.02975 4.6 2.3 4.6Z" transform="translate(48 9.09998)" fill="#8BEAD8"/>
<path d="M2.3 4.6C3.57026 4.6 4.6 3.57025 4.6 2.3C4.6 1.02974 3.57026 0 2.3 0C1.02975 0 0 1.02974 0 2.3C0 3.57025 1.02975 4.6 2.3 4.6Z" transform="translate(54.6001)" fill="#8BEAD8"/>
<path d="M11.5 23C17.8513 23 23 17.8513 23 11.5C23 5.14872 17.8513 0 11.5 0C5.14873 0 0 5.14872 0 11.5C0 17.8513 5.14873 23 11.5 23Z" transform="translate(45.3999 29.6)" fill="#9EEFDF"/>
<path opacity="0.45" d="M9.8 19.6C15.2124 19.6 19.6 15.2124 19.6 9.8C19.6 4.38761 15.2124 0 9.8 0C4.38761 0 0 4.38761 0 9.8C0 15.2124 4.38761 19.6 9.8 19.6Z" transform="translate(47.0999 31.3)" fill="white"/>
<path d="M9.1 18.2C14.1258 18.2 18.2 14.1258 18.2 9.1C18.2 4.07421 14.1258 0 9.1 0C4.07421 0 3.05176e-06 4.07421 3.05176e-06 9.1C3.05176e-06 14.1258 4.07421 18.2 9.1 18.2Z" transform="translate(47.7998 32)" fill="white"/>
<path d="M2.17696 2.81371C2.87696 2.81371 3.47696 3.11371 3.87696 3.81371C4.17696 4.31371 4.77696 4.41371 5.17696 4.01371C5.47696 3.71371 5.57696 3.31371 5.37696 3.01371C5.17696 2.71371 5.07697 2.41371 5.07697 2.11371C5.07697 1.21371 5.57696 0.413712 6.47696 0.113712C7.57696 -0.286288 8.77697 0.413714 9.07697 1.51371C9.37697 2.51371 8.67696 3.61371 7.67696 3.91371C7.47696 3.91371 7.37696 4.01371 7.17696 4.01371C6.77696 4.01371 6.37696 4.31371 6.37696 4.81371C6.37696 5.21371 6.67697 5.61371 7.07697 5.71371C7.27697 5.71371 7.37697 5.71371 7.57697 5.71371C8.57697 5.91371 9.37696 6.81371 9.27696 7.81371C9.17696 8.71371 8.57696 9.41371 7.67696 9.61371C6.67696 9.81371 5.67696 9.31371 5.27696 8.31371C5.07696 7.81371 5.17696 7.21371 5.37696 6.71371C5.47696 6.51371 5.57696 6.31371 5.47696 6.11371C5.37696 5.81371 5.17696 5.51371 4.77696 5.41371C4.47696 5.31371 4.07696 5.51371 3.87696 5.81371C3.77696 6.01371 3.57696 6.21371 3.37696 6.41371C2.27696 7.41371 0.476966 6.81371 0.0769661 5.41371C-0.223034 4.31371 0.37696 3.21371 1.47696 3.01371C1.57696 3.01371 1.67696 3.01371 1.77696 2.91371C1.97696 2.81371 2.07696 2.81371 2.17696 2.81371Z" transform="translate(51.7229 36.3862)" fill="#1ABC9C"/>
<path d="M2.17696 2.81371C2.87696 2.81371 3.47697 3.11371 3.87697 3.81371C4.17697 4.31371 4.77696 4.41371 5.17696 4.01371C5.47696 3.71371 5.57697 3.31371 5.37697 3.01371C5.17697 2.71371 5.07696 2.41371 5.07696 2.11371C5.07696 1.21371 5.57696 0.413712 6.47696 0.113712C7.57696 -0.286288 8.77696 0.413714 9.07696 1.51371C9.37696 2.51371 8.67696 3.61371 7.67696 3.91371C7.47696 3.91371 7.37696 4.01371 7.17696 4.01371C6.77696 4.01371 6.37697 4.31371 6.37697 4.81371C6.37697 5.21371 6.67696 5.61371 7.07696 5.71371C7.27696 5.71371 7.37696 5.71371 7.57696 5.71371C8.57696 5.91371 9.37696 6.81371 9.27696 7.81371C9.17696 8.71371 8.57696 9.41371 7.67696 9.61371C6.67696 9.81371 5.67696 9.31371 5.27696 8.31371C5.07696 7.81371 5.17697 7.21371 5.37697 6.71371C5.47697 6.51371 5.57696 6.31371 5.47696 6.11371C5.37696 5.81371 5.17696 5.51371 4.77696 5.41371C4.47696 5.31371 4.07697 5.51371 3.87697 5.81371C3.77697 6.01371 3.57697 6.21371 3.37697 6.41371C2.27697 7.41371 0.476963 6.81371 0.0769631 5.41371C-0.223037 4.31371 0.376965 3.21371 1.47696 3.01371C1.57696 3.01371 1.67696 3.01371 1.77696 2.91371C1.97696 2.81371 2.07696 2.81371 2.17696 2.81371Z" transform="translate(51.4229 36.3862)" fill="#4DD6BC"/>
<path d="M20.4 40.8C31.6666 40.8 40.8 31.6666 40.8 20.4C40.8 9.13339 31.6666 0 20.4 0C9.13339 0 0 9.13339 0 20.4C0 31.6666 9.13339 40.8 20.4 40.8Z" transform="translate(0 40.8)" fill="#76D6BD"/>
<path opacity="0.45" d="M17.7 35.4C27.4754 35.4 35.4 27.4754 35.4 17.7C35.4 7.92456 27.4754 0 17.7 0C7.92456 0 0 7.92456 0 17.7C0 27.4754 7.92456 35.4 17.7 35.4Z" transform="translate(2.69995 43.5001)" fill="white"/>
<path d="M16.5 33C25.6127 33 33 25.6127 33 16.5C33 7.3873 25.6127 0 16.5 0C7.3873 0 0 7.3873 0 16.5C0 25.6127 7.3873 33 16.5 33Z" transform="translate(3.8999 44.7001)" fill="white"/>
<path d="M13.5 12.8C13.6 13.5 13.3 14.3 12.6 15.1C11.8 16 10.9 16.5 9.9 16.4C9 16.4 7.9 15.9 6.6 15.2L5.3 17L3.9 16.1L5.2 14.2L4.1 13.5L2.8 15.4L1.4 14.5L2.7 12.6L-1.52588e-06 10.7L1.4 9.3L1.7 9.5C2.1 9.8 2.4 10 2.6 10.1C2.8 10.2 3 10.1 3.2 9.9L7.4 3.8C7.5 3.5 7.5 3.2 7.3 2.9C7.2 2.7 6.8 2.5 6.3 2.1L6.1 1.9L7.1 0.400002L7.9 1C8.9 1.7 9.5 2.1 9.8 2.3L11.4 0L12.8 0.900002L11.3 3.1L12.4 3.8L13.9 1.6L15.3 2.5L13.8 4.7C14.7 5.4 15.3 6.2 15.6 6.8C16 7.6 15.9 8.4 15.5 9.2C14.9 10.4 14 10.9 12.8 10.7C13.1 11.5 13.5 12.1 13.5 12.8ZM8.3 7.5L8.5 7.7C9.3 8.3 9.9 8.6 10.4 8.8C11.3 9.1 11.9 9 12.4 8.4C12.9 7.8 12.7 7.1 12.2 6.4C11.9 6 11.3 5.5 10.5 5C10.4 4.9 10.3 4.9 10.2 4.9L8.3 7.5ZM5.6 12C6.5 12.7 7.3 13.1 7.9 13.3C8.9 13.7 9.7 13.5 10.1 12.9C10.6 12.2 10.4 11.5 9.7 10.7C9.3 10.2 8.6 9.7 7.7 9.1L7.4 8.8L5.4 11.8L5.6 12Z" transform="translate(11.6001 53)" fill="#1ABC9C"/>
<path d="M13.5 12.6C13.6 13.3 13.3 14.1 12.6 14.9C11.8 15.8 10.9 16.3 9.9 16.2C9 16.2 7.9 15.7 6.6 15L5.3 16.9L3.9 16L5.2 14.1L4.1 13.4L2.8 15.3L1.4 14.4L2.7 12.5L-7.62939e-07 10.6L1.4 9.2L1.7 9.4C2.1 9.7 2.4 9.9 2.6 10C2.8 10.1 3 10 3.2 9.8L7.4 3.7C7.5 3.4 7.5 3.1 7.3 2.8C7.2 2.6 6.8 2.4 6.3 2L6.1 1.8L7.1 0.299999L7.9 0.900002C8.9 1.6 9.5 2 9.8 2.2L11.3 0L12.7 0.900002L11.3 3L12.4 3.7L13.9 1.5L15.3 2.4L13.7 4.7C14.6 5.4 15.2 6.2 15.5 6.8C15.9 7.6 15.8 8.4 15.4 9.2C14.8 10.4 13.9 10.9 12.7 10.7C13.2 11.3 13.5 12 13.5 12.6ZM8.4 7.3L8.6 7.5C9.4 8.1 10 8.4 10.5 8.6C11.4 8.9 12 8.8 12.5 8.2C13 7.6 12.8 6.9 12.3 6.2C12 5.8 11.4 5.3 10.6 4.8C10.5 4.7 10.4 4.7 10.3 4.7L8.4 7.3ZM5.6 11.8C6.5 12.5 7.3 12.9 7.9 13.1C8.9 13.5 9.7 13.3 10.1 12.7C10.6 12 10.4 11.3 9.7 10.5C9.3 10 8.6 9.5 7.7 8.9L7.4 8.7L5.4 11.7L5.6 11.8Z" transform="translate(11.3 53)" fill="#4DD6BC"/>
<defs>
<linearGradient id="paint0_linear" x2="1" gradientUnits="userSpaceOnUse" gradientTransform="translate(18.4145 20.2361) scale(20.2142 -20.2142) rotate(90)">
<stop stop-color="#A2DDD2" stop-opacity="0.1"/>
<stop offset="0.9961" stop-color="#B1F2E6"/>
</linearGradient>
<linearGradient id="paint1_linear" x2="1" gradientUnits="userSpaceOnUse" gradientTransform="translate(27.7941 39.2361) scale(39.2167 -39.2167) rotate(90)">
<stop stop-color="#A2DDD2" stop-opacity="0.1"/>
<stop offset="0.9961" stop-color="#B1F2E6"/>
</linearGradient>
<linearGradient id="paint2_linear" x2="1" gradientUnits="userSpaceOnUse" gradientTransform="translate(34.9797 53.6361) scale(53.6126 -53.6126) rotate(90)">
<stop stop-color="#A2DDD2" stop-opacity="0.1"/>
<stop offset="0.9961" stop-color="#B1F2E6"/>
</linearGradient>
</defs>
</svg>
