<svg width="33" height="34" viewBox="0 0 33 34" fill="none" xmlns="http://www.w3.org/2000/svg">
<path d="M16.2493 32.5965C25.2236 32.5965 32.4987 25.2996 32.4987 16.2983C32.4987 7.29698 25.2236 0 16.2493 0C7.27508 0 0 7.29698 0 16.2983C0 25.2996 7.27508 32.5965 16.2493 32.5965Z" transform="translate(0.0397949 0.411438)" fill="#76D6BD"/>
<path opacity="0.45" d="M14.0987 28.2823C21.8852 28.2823 28.1974 21.9511 28.1974 14.1411C28.1974 6.33121 21.8852 0 14.0987 0C6.3122 0 0 6.33121 0 14.1411C0 21.9511 6.3122 28.2823 14.0987 28.2823Z" transform="translate(2.19043 2.5686)" fill="white"/>
<path d="M13.1429 26.3648C20.4014 26.3648 26.2857 20.4629 26.2857 13.1824C26.2857 5.90197 20.4014 0 13.1429 0C5.88425 0 0 5.90197 0 13.1824C0 20.4629 5.88425 26.3648 13.1429 26.3648Z" transform="translate(3.14627 3.52731)" fill="white"/>
<path d="M10.7532 10.0666C10.8329 10.6258 10.5939 11.265 10.0364 11.9041C9.39913 12.6232 8.68225 13.0226 7.88572 12.9427C7.16883 12.9427 6.29264 12.5433 5.25714 11.984L4.22164 13.502L3.1065 12.783L4.14199 11.265L3.2658 10.7057L2.2303 12.2237L1.11515 11.5047L2.15065 9.98669L1.21542e-06 8.46871L1.11515 7.3502L1.35411 7.50999C1.67273 7.74967 1.91169 7.90946 2.071 7.98935C2.2303 8.06924 2.38961 7.98935 2.54892 7.82956L5.89437 2.95606C5.97403 2.71638 5.97402 2.4767 5.81471 2.23702C5.73506 2.07723 5.41645 1.91744 5.01818 1.59787L4.85887 1.43808L5.65541 0.23968L6.29264 0.71904C7.08918 1.27829 7.5671 1.59787 7.80606 1.75766L9.00086 6.09539e-07L10.116 0.71904L8.92121 2.4767L9.7974 3.03595L10.9922 1.2783L12.1074 1.99734L10.8329 3.75499C11.5498 4.31425 12.0277 4.9534 12.2667 5.43276C12.5853 6.0719 12.5056 6.71105 12.187 7.3502C11.7091 8.30892 10.9922 8.70839 10.0364 8.5486C10.4346 9.02796 10.6736 9.58722 10.7532 10.0666ZM6.61125 5.83222L6.77056 5.99201C7.40779 6.47137 7.88572 6.71105 8.28398 6.87084C9.00087 7.11052 9.47879 7.03063 9.87706 6.55127C10.1957 6.07191 10.116 5.51265 9.71775 4.9534C9.47878 4.63382 9.00086 4.23435 8.36364 3.83489C8.28398 3.75499 8.20433 3.75499 8.12467 3.75499L6.61125 5.83222ZM4.4606 9.42743C5.17749 9.98668 5.81472 10.3063 6.29264 10.466C7.08918 10.7856 7.72641 10.6258 8.04502 10.1465C8.36364 9.66711 8.28398 9.02796 7.7264 8.38882C7.40779 7.98935 6.85021 7.58988 6.13333 7.11052L5.89437 6.95073L4.3013 9.34754L4.4606 9.42743Z" transform="translate(9.27966 10.3182)" fill="#1ABC9C"/>
<path d="M10.6736 10.1465C10.7532 10.7057 10.5143 11.3449 9.95671 11.984C9.31948 12.7031 8.6026 13.1025 7.80606 13.0226C7.08918 13.0226 6.21298 12.6232 5.17749 12.0639L4.14199 13.5819L3.02684 12.8629L4.06234 11.3449L3.18614 10.7856L2.2303 12.2237L1.11515 11.5047L2.15065 9.98669L-2.43084e-06 8.46871L1.11515 7.3502L1.35411 7.50999C1.67273 7.74967 1.91169 7.90946 2.071 7.98935C2.2303 8.06924 2.38961 7.98935 2.54892 7.82956L5.89437 2.95606C5.97402 2.71638 5.97402 2.4767 5.81472 2.23702C5.73506 2.07723 5.41645 1.91744 5.01818 1.59787L4.85888 1.43808L5.65541 0.239681L6.29264 0.719041C7.08917 1.2783 7.5671 1.59787 7.80606 1.75766L9.00086 1.21908e-06L10.116 0.719041L8.92121 2.4767L9.7974 3.03595L10.9922 1.2783L12.1074 1.99734L10.9126 3.75499C11.6294 4.31425 12.1074 4.9534 12.3463 5.43276C12.6649 6.0719 12.5853 6.71105 12.2667 7.3502C11.7887 8.30892 11.0719 8.70839 10.116 8.5486C10.4346 9.10786 10.6736 9.66711 10.6736 10.1465ZM6.5316 5.91212L6.69091 6.0719C7.32814 6.55127 7.80606 6.79094 8.20433 6.95073C8.92121 7.19041 9.39913 7.11052 9.7974 6.63116C10.116 6.1518 10.0364 5.59254 9.6381 5.03329C9.39913 4.71372 8.92121 4.31425 8.28398 3.91478C8.20433 3.83489 8.12468 3.83489 8.04502 3.83489L6.5316 5.91212ZM4.38095 9.58722C5.09783 10.1465 5.73506 10.466 6.21299 10.6258C7.00952 10.9454 7.64675 10.7856 7.96536 10.3063C8.36363 9.747 8.20433 9.18775 7.64675 8.5486C7.32814 8.14913 6.77056 7.74967 6.05368 7.27031L5.81472 7.11052L4.22164 9.50732L4.38095 9.58722Z" transform="translate(9.1203 10.0786)" fill="#4DD6BC"/>
</svg>
