<svg width="15" height="16" viewBox="0 0 15 16" fill="none" xmlns="http://www.w3.org/2000/svg">
<path d="M12.4 1.2C12.4 2.7 12.1 4.1 11.5 5.3C10.9 6.5 10.1 7.4 9.1 8C10 8.6 10.8 9.5 11.5 10.7C12.1 11.9 12.4 13.2 12.4 14.8H13.3C13.4 14.8 13.5 14.8 13.5 14.9C13.6 15 13.6 15 13.6 15.1V15.7C13.6 15.8 13.6 15.9 13.5 15.9C13.4 16 13.4 16 13.3 16H0.3C0.2 16 0.199999 16 0.0999992 15.9C-7.6741e-07 15.8 7.62939e-07 15.8 7.62939e-07 15.7V15.1C7.62939e-07 15 -7.6741e-07 15 0.0999992 14.9C0.199999 14.8 0.2 14.8 0.3 14.8H1.2C1.2 13.3 1.5 11.9 2.1 10.7C2.7 9.5 3.5 8.6 4.5 8C3.6 7.4 2.8 6.5 2.1 5.3C1.5 4.1 1.2 2.8 1.2 1.2H0.3C0.2 1.2 0.0999992 1.2 0.0999992 1.1C-7.6741e-07 0.999998 7.62939e-07 1 7.62939e-07 0.900002V0.300003C7.62939e-07 0.200003 -7.6741e-07 0.0999985 0.0999992 0.0999985C0.199999 -1.52737e-06 0.2 0 0.3 0H13.3C13.4 0 13.5 -1.52737e-06 13.5 0.0999985C13.6 0.199998 13.6 0.200003 13.6 0.300003V0.900002C13.6 1 13.6 1.1 13.5 1.1C13.4 1.1 13.4 1.2 13.3 1.2H12.4ZM11.3 1.2H2.2C2.2 2.4 2.5 3.6 3 4.6H10.6C11 3.5 11.3 2.4 11.3 1.2ZM10.8 11.9C10.5 11.1 10.1 10.4 9.5 9.8C9 9.2 8.4 8.8 7.8 8.5H5.8C5.2 8.7 4.6 9.2 4.1 9.8C3.6 10.4 3.1 11.1 2.8 11.9H10.8Z" transform="translate(0.699997)" fill="#00705A"/>
</svg>
