<svg width="27" height="15" viewBox="0 0 27 15" fill="none" xmlns="http://www.w3.org/2000/svg">
<path d="M20.0794 3.5C14.6794 3.5 9.27942 3.5 3.77942 3.5C4.17942 2.3 4.47942 1.3 4.97942 0.2C5.07942 0.1 5.47942 0 5.67942 0C9.47942 0 13.2794 0 16.9794 0C18.9794 0 20.9794 0 23.0794 0C25.1794 0 26.3794 1.5 25.7794 3.5C24.9794 6.1 24.1794 8.7 23.0794 11.2C22.1794 13.4 20.2794 14.7 17.7794 14.8C12.0794 14.8 6.47942 14.8 0.779423 14.8C-0.120577 14.8 -0.120577 14.8 0.179423 13.9C0.379423 13.2 0.679423 12.6 0.879423 11.9C0.979423 11.4 1.27942 11.2 1.77942 11.2C5.97942 11.2 10.1794 11.2 14.2794 11.2C15.1794 11.2 16.0794 11.2 16.9794 11.2C17.1794 11.2 17.5794 11 17.5794 10.8C18.3794 8.5 19.1794 6.1 19.9794 3.7C20.1794 3.8 20.1794 3.7 20.0794 3.5Z" transform="translate(0.720581)" fill="#3ACCB0"/>
<path d="M0 3.3C0.4 2.2 0.7 1.3 1.1 0.3C1.2 0.1 1.4 -1.90735e-07 1.6 -1.90735e-07C4.6 -1.90735e-07 7.6 -1.90735e-07 10.8 -1.90735e-07C10.4 1.1 10 2.1 9.6 3.1C9.6 3.2 9.3 3.3 9.2 3.3C6.2 3.3 3.2 3.3 0 3.3Z" transform="translate(0 5.69995)" fill="#3ACCB0"/>
</svg>
