<svg width="19" height="23" viewBox="0 0 19 23" fill="none" xmlns="http://www.w3.org/2000/svg">
<path d="M11.4949 18.3037C10.8253 19.267 10.1557 19.1466 9.37445 18.5445C8.70485 19.6283 8.03524 20.5916 6.91924 21.3141C6.47283 21.6754 5.91483 21.9162 5.46843 22.0366C4.24082 22.3979 3.34802 21.555 3.23642 20.2304C3.12482 18.7853 3.57122 17.4607 4.35242 16.1361C4.57562 15.7749 4.79883 15.534 5.02203 15.1728C4.35242 14.5707 4.01762 13.9686 4.57562 13.0052C3.12482 12.2827 1.56241 12.2827 3.32596e-09 12.7644C0.111601 12.5236 0.111601 12.5236 0.111601 12.4031C1.11601 10.9581 2.34361 9.75393 4.01762 9.03141C4.79883 8.67016 5.69163 8.54974 6.58443 8.67016C6.80764 8.67016 6.91924 8.67016 7.14244 8.42932C7.47724 7.22513 8.14684 6.02094 8.70485 4.93717C9.59765 3.13089 10.9369 1.9267 12.7225 1.20419C14.2849 0.481675 15.8473 0.120419 17.5213 0C17.8561 0 18.1909 0.120419 18.3025 0.602094C19.1953 3.61257 19.3069 6.50262 18.1909 9.51309C17.7445 10.5969 16.9633 11.4398 16.2937 12.4031C15.7357 13.1257 15.2893 13.7277 14.7313 14.4503C14.6197 14.5707 14.6197 14.6911 14.6197 14.8115C15.5125 16.8586 15.4009 18.7853 14.6197 20.8325C14.3965 21.4346 14.0617 22.0366 13.7269 22.6387C13.6153 22.7592 13.6153 22.8796 13.5037 23C13.2805 22.1571 13.1689 21.3141 12.8341 20.5916C12.4993 19.6283 12.0529 18.9058 11.4949 18.3037ZM13.1689 4.81675C12.0529 4.81675 11.0485 5.7801 11.0485 7.10471C11.0485 8.3089 12.0529 9.39267 13.1689 9.39267C14.2849 9.39267 15.2893 8.3089 15.2893 7.10471C15.1777 5.7801 14.2849 4.81675 13.1689 4.81675Z" fill="#3ACCB0"/>
</svg>
