<svg width="28" height="28" viewBox="0 0 28 28" fill="none" xmlns="http://www.w3.org/2000/svg">
<path d="M4.11765 18.2557C4.39216 18.2557 4.52941 18.1184 4.52941 17.8439V6.17818L13.8627 15.5108L23.3333 6.17818V17.8439C23.3333 18.1184 23.4706 18.2557 23.7451 18.2557H26.902C27.1765 18.2557 27.3137 18.1184 27.451 17.8439C27.8627 16.4715 28 15.0991 28 13.7266C27.8627 6.17818 21.6863 0.13944 14.1373 0.00219605C6.31373 -0.135048 0 6.17818 0 14.0011C0 15.3735 0.137255 16.6087 0.54902 17.9812C0.54902 18.1184 0.823529 18.2557 0.960784 18.2557H4.11765Z" fill="#3ACCB0"/>
<path d="M18.6667 7.27394C18.3922 7.27394 18.2549 7.1367 18.2549 6.86221V-2.61772e-07L12.3529 5.9015C12.2157 6.03874 11.9412 6.03874 11.6667 5.9015L5.76471 -2.61772e-07V6.86221C5.76471 7.1367 5.62745 7.27394 5.35294 7.27394H0C2.47059 11.254 6.86274 13.9989 11.9412 13.9989C17.0196 13.9989 21.4118 11.254 23.8824 7.27394H18.6667Z" transform="translate(2.05884 14.0012)" fill="#3ACCB0"/>
</svg>
