<svg width="17" height="19" viewBox="0 0 17 19" fill="none" xmlns="http://www.w3.org/2000/svg">
<path d="M11.4 0C11.2 0.5 9.6 6.7 9.4 7.3C9.4 7.4 9.3 7.4 9.4 7.4H9.5C10.3 7.1 11.1 6.8 11.9 6.5C11.9 6.5 12 6.4 12 6.5C12 6.5 12 6.6 12 6.7C11.8 7.5 11.6 8.3 11.4 9.1C11.4 9.2 11.3 9.2 11.2 9.3C10.4 9.6 9.5 9.9 8.7 10.2C8.6 10.2 8.5 10.3 8.5 10.4C8.1 11.8 7.8 13.2 7.4 14.6C7.4 14.7 7.4 14.7 7.5 14.7C8.1 14.7 14.1 14.7 16.5 14.7C16.7 14.7 16.7 14.7 16.7 14.9C16.4 16 16.1 17.1 15.8 18.1C15.8 18.2 15.7 18.2 15.6 18.2C15.3 18.2 5.5 18.2 1 18.2C0.7 18.2 0.7 18.2 0.8 18C1.3 16.2 1.7 14.4 2.2 12.7C2.2 12.6 2.3 12.6 2.2 12.5C2.1 12.5 2.1 12.5 2 12.5C1.4 12.7 0.1 13.2 -2.98023e-09 13.2C0.1 12.9 0.5 11.3 0.7 10.7C0.7 10.6 0.8 10.5 0.9 10.4C1.5 10.2 2.1 10 2.7 9.8C3 9.8 3.1 9.8 3.2 9.6C4 6.6 5.7 0.2 5.8 0C7.6 0 9.5 0 11.4 0Z" fill="#3ACCB0"/>
</svg>
