<svg width="18" height="24" viewBox="0 0 18 24" fill="none" xmlns="http://www.w3.org/2000/svg">
<path d="M14.5312 11.3906C16 10.6406 16.6406 9.35938 16.4531 7.54688C16.3594 6.29687 15.7969 5.35937 14.7656 4.73438C13.9219 4.20313 12.7031 3.85937 11.1094 3.70312V0H8.8125V3.60938L7.03125 3.65625V0H4.73438V3.70312C4.29688 3.73438 3.25 3.75 1.59375 3.75L0.1875 3.70312V6.14062H0.5625C1.46875 6.10937 2.0625 6.14062 2.34375 6.23438C2.78125 6.35938 3.04688 6.67187 3.14062 7.17188V17.3438C3.07812 17.7188 2.89062 17.9531 2.57812 18.0469C2.35938 18.1094 1.875 18.125 1.125 18.0938H0.65625L0.1875 20.8125H4.73438V24H7.03125V20.8594H8.8125V24H11.1094V20.8125C13.1719 20.6875 14.7188 20.3125 15.75 19.6875C16.9375 18.9375 17.625 17.7344 17.8125 16.0781C17.9375 14.7031 17.6875 13.625 17.0625 12.8438C16.5312 12.125 15.6875 11.6406 14.5312 11.3906ZM7.07812 6.32812C7.14062 6.32812 7.28125 6.3125 7.5 6.28125C8.84375 6.25 9.85938 6.32812 10.5469 6.51562C11.7656 6.85937 12.375 7.54688 12.375 8.57812C12.375 9.60938 11.75 10.2812 10.5 10.5938C9.78125 10.7812 8.76562 10.8594 7.45312 10.8281H7.07812V6.32812ZM7.07812 18.0938V13.125H7.59375C9.1875 13.0625 10.375 13.1406 11.1562 13.3594C12.5938 13.7344 13.3125 14.4844 13.3125 15.6094C13.3125 16.7344 12.5781 17.4844 11.1094 17.8594C10.2969 18.0469 9.09375 18.125 7.5 18.0938H7.07812Z" fill="#1BBC9D"/>
</svg>
