<svg width="23" height="24" viewBox="0 0 23 24" fill="none" xmlns="http://www.w3.org/2000/svg">
<path d="M5.25789 7.31692C7.02996 7.31692 8.54888 8.07029 9.56149 9.82813C10.3209 10.8326 11.8399 11.0837 12.8525 10.0792C13.6119 9.32589 13.8651 8.32141 13.3588 7.56804C12.8525 6.81468 12.5993 6.06132 12.5993 5.30796C12.5993 3.04788 13.8651 1.03892 16.1435 0.285555C18.9281 -0.718927 21.966 1.03892 22.7254 3.80124C23.4849 6.31244 21.7128 9.07477 19.1813 9.82813C18.675 9.82813 18.1687 9.82813 17.6624 9.82813C16.6498 10.0792 15.6372 10.8326 15.6372 11.8371C15.6372 12.8416 16.3966 13.8461 17.4092 14.0972C17.9155 14.0972 18.1687 14.0972 18.675 14.0972C21.2065 14.5994 23.2317 16.8595 22.9786 19.3707C22.7254 21.6308 21.2065 23.3886 18.9281 23.8909C16.3966 24.3931 13.8651 23.1375 12.8525 20.6263C12.3462 19.3707 12.5993 17.864 13.3588 16.8595C13.6119 16.3573 13.8651 15.855 13.6119 15.3528C13.3588 14.3483 12.8525 13.8461 11.8399 13.5949C11.0804 13.3438 10.0678 13.8461 9.56149 14.5994C9.30834 15.1017 9.05518 15.6039 8.54888 15.855C5.7642 18.3662 1.20745 16.8595 0.194834 13.3438C-0.564624 10.5815 0.954293 7.81917 3.73897 7.31692C3.99213 7.31692 4.24528 7.31692 4.49843 7.0658C4.75159 7.31692 5.00474 7.31692 5.25789 7.31692Z" fill="#4DD6BC"/>
</svg>
