<svg width="14" height="23" viewBox="0 0 14 23" fill="none" xmlns="http://www.w3.org/2000/svg">
<path d="M5.9 15.8C8.4 15.8 10.8 15.8 13.3 15.8C13.3 17.1 13.3 18.3 13.3 19.6C11.8 19.6 10.2 19.6 8.7 19.6C8.7 20.6 8.8 21.5 8.8 22.4C8.8 22.7 8.7 22.8 8.4 22.8C7.3 22.8 6.3 22.8 5.2 22.8C4.9 22.8 4.8 22.7 4.8 22.4C4.8 21.5 4.8 20.6 4.8 19.7C3.2 19.7 1.7 19.7 -1.49011e-09 19.7C0.1 18.4 0.1 17.2 0.2 15.9C0.2 15.6 0.5 15.3 0.7 15.1C2.8 12.6 5 10.1 7.2 7.7C7.4 7.4 7.6 7.3 7.8 7C5.3 7 3 7 0.6 7C0.6 5.7 0.6 4.4 0.6 3.2C0.8 3.2 0.9 3.2 1.1 3.2C2.2 3.2 3.4 3.2 4.5 3.2C4.9 3.2 5 3.1 4.9 2.7C4.9 1.8 4.9 0.9 4.9 0C6.1 0 7.4 0 8.7 0C8.7 1 8.7 2 8.7 3.1C8.9 3.1 9.1 3.1 9.2 3.1C10.5 3.1 11.7 3.1 13 3.1C13.2 3.1 13.4 3.1 13.4 3.4C13.4 4.5 13.4 5.5 13.3 6.6C13.3 7 13.1 7.4 12.8 7.7C10.8 10 8.9 12.2 6.9 14.5C6.5 14.9 6.2 15.3 5.8 15.7L5.9 15.8Z" fill="#3ACCB0"/>
</svg>
