<svg width="31" height="30" viewBox="0 0 31 30" fill="none" xmlns="http://www.w3.org/2000/svg">
<path d="M14.8167 29.2519C22.9997 29.2519 29.6334 22.7037 29.6334 14.626C29.6334 6.54827 22.9997 0 14.8167 0C6.63365 0 0 6.54827 0 14.626C0 22.7037 6.63365 29.2519 14.8167 29.2519Z" transform="translate(0.483948 0.0869446)" fill="#76D6BD"/>
<path opacity="0.45" d="M12.8164 25.3029C19.8947 25.3029 25.6329 19.6387 25.6329 12.6515C25.6329 5.66425 19.8947 0 12.8164 0C5.73811 0 0 5.66425 0 12.6515C0 19.6387 5.73811 25.3029 12.8164 25.3029Z" transform="translate(2.48419 2.06143)" fill="white"/>
<path d="M12.0015 23.6941C18.6298 23.6941 24.003 18.39 24.003 11.847C24.003 5.3041 18.6298 0 12.0015 0C5.37326 0 0 5.3041 0 11.847C0 18.39 5.37326 23.6941 12.0015 23.6941Z" transform="translate(3.2991 2.86581)" fill="white"/>
<path d="M-5.65212e-07 2.63267V6.3623L4.445 0L-5.65212e-07 2.63267Z" transform="translate(15.3006 15.7367)" fill="#1ABC9C"/>
<path d="M4.445 10.2382L-5.65212e-07 7.53237L4.445 0V10.2382Z" transform="translate(10.8556 7.32672)" fill="#8BEAD8"/>
<path d="M-5.65212e-07 0L4.445 7.53237L-5.65212e-07 10.2382V0Z" transform="translate(15.3006 7.32672)" fill="#CEF4EC"/>
<path d="M4.445 2.63267L-5.65212e-07 0L4.445 6.3623V2.63267ZM-5.65212e-07 0L4.445 6.3623V2.63267" transform="translate(10.8556 15.7367)" fill="#4DD6BC"/>
</svg>
