<svg width="110" height="110" viewBox="0 0 110 110" fill="none" xmlns="http://www.w3.org/2000/svg">
<circle cx="55" cy="55" r="55" fill="url(#paint0_linear)" fill-opacity="0.15"/>
<path d="M1.10263 0H0V47.2568H1.10263V0Z" transform="translate(7.578 35.1476)" fill="url(#paint1_linear)"/>
<path d="M1.16749 0H0V42.6668H1.16749V0Z" transform="translate(9.78326 39.7375)" fill="url(#paint2_linear)"/>
<path d="M1.10263 0H0V59.0871H1.10263V0Z" transform="translate(52.0076 23.3819)" fill="url(#paint3_linear)"/>
<path d="M1.1675 0H0V72.4043H1.1675V0Z" transform="translate(54.2129 10)" fill="url(#paint4_linear)"/>
<path d="M1.10263 0H0V40.2749H1.10263V0Z" transform="translate(11.9885 42.1294)" fill="url(#paint5_linear)"/>
<path d="M1.10263 0H0V35.8143H1.10263V0Z" transform="translate(14.2587 46.5901)" fill="url(#paint6_linear)"/>
<path d="M1.03777 0H0V32.1294H1.03777V0Z" transform="translate(16.4639 50.2749)" fill="url(#paint7_linear)"/>
<path d="M1.16749 0H0V48.9376H1.16749V0Z" transform="translate(38.6463 33.4667)" fill="url(#paint8_linear)"/>
<path d="M1.10263 0H0V44.9295H1.10263V0Z" transform="translate(40.9164 37.5395)" fill="url(#paint9_linear)"/>
<path d="M1.10263 0H0V41.8911H1.10263V0Z" transform="translate(43.1217 40.5132)" fill="url(#paint10_linear)"/>
<path d="M1.03777 0H0V37.5597H1.03777V0Z" transform="translate(45.3918 44.8446)" fill="url(#paint11_linear)"/>
<path d="M1.16749 0H0V40.2749H1.16749V0Z" transform="translate(18.6692 42.1294)" fill="url(#paint12_linear)"/>
<path d="M1.16749 0H0V52.1053H1.16749V0Z" transform="translate(20.8745 30.2991)" fill="url(#paint13_linear)"/>
<path d="M1.16749 0H0V47.4507H1.16749V0Z" transform="translate(23.0797 34.9536)" fill="url(#paint14_linear)"/>
<path d="M1.16749 0H0V42.6668H1.16749V0Z" transform="translate(25.285 39.8022)" fill="url(#paint15_linear)"/>
<path d="M1.16749 0H0V55.6608H1.16749V0Z" transform="translate(27.5551 26.7435)" fill="url(#paint16_linear)"/>
<path d="M1.16749 0H-1.97939e-06V49.2608H1.16749V0Z" transform="translate(47.5322 33.1435)" fill="url(#paint17_linear)"/>
<path d="M1.16749 0H0V47.4507H1.16749V0Z" transform="translate(49.7375 34.9536)" fill="url(#paint18_linear)"/>
<path d="M1.16749 0H0V47.4507H1.16749V0Z" transform="translate(29.7604 34.9536)" fill="url(#paint19_linear)"/>
<path d="M1.16749 0H0V55.6608H1.16749V0Z" transform="translate(31.9656 26.7435)" fill="url(#paint20_linear)"/>
<path d="M1.16749 0H0V59.0871H1.16749V0Z" transform="translate(34.1709 23.3819)" fill="url(#paint21_linear)"/>
<path d="M1.16749 0H0V52.1053H1.16749V0Z" transform="translate(36.441 30.2991)" fill="url(#paint22_linear)"/>
<path d="M1.10263 0H0V47.2568H1.10263V0Z" transform="translate(100.913 35.1476)" fill="url(#paint23_linear)"/>
<path d="M1.1675 0H0V42.6668H1.1675V0Z" transform="translate(98.6425 39.7375)" fill="url(#paint24_linear)"/>
<path d="M0.518884 59.0225H2.39985V24.2425L1.16749 24.1132V4.93215e-07H9.89696e-07V25.988L0.518884 26.4405V59.0225Z" transform="translate(56.4182 23.3819)" fill="url(#paint25_linear)"/>
<path d="M1.1675 0H0V72.4043H1.1675V0Z" transform="translate(54.2129 10)" fill="url(#paint26_linear)"/>
<path d="M1.10263 0H3.95878e-06V40.2749H1.10263V0Z" transform="translate(96.4372 42.1294)" fill="url(#paint27_linear)"/>
<path d="M1.10263 0H-1.97939e-06V35.8143H1.10263V0Z" transform="translate(94.2319 46.5901)" fill="url(#paint28_linear)"/>
<path d="M1.03777 0H1.97939e-06V32.1294H1.03777V0Z" transform="translate(92.0267 50.2749)" fill="url(#paint29_linear)"/>
<path d="M1.1675 0H0V48.9376H1.1675V0Z" transform="translate(69.7795 33.4667)" fill="url(#paint30_linear)"/>
<path d="M1.10263 0H0V44.9295H1.10263V0Z" transform="translate(67.5742 37.5395)" fill="url(#paint31_linear)"/>
<path d="M1.10263 0H-1.97939e-06V41.8911H1.10263V0Z" transform="translate(65.369 40.5132)" fill="url(#paint32_linear)"/>
<path d="M1.03777 0H1.97939e-06V37.5597H1.03777V0Z" transform="translate(63.1636 44.8446)" fill="url(#paint33_linear)"/>
<path d="M1.1675 0H1.97939e-06V40.2749H1.1675V0Z" transform="translate(89.7565 42.1294)" fill="url(#paint34_linear)"/>
<path d="M1.16749 0H-3.95878e-06V52.1053H1.16749V0Z" transform="translate(87.5513 30.2991)" fill="url(#paint35_linear)"/>
<path d="M1.16749 0H-3.95878e-06V47.4507H1.16749V0Z" transform="translate(85.2812 34.9536)" fill="url(#paint36_linear)"/>
<path d="M0.648608 42.6022H2.20527V16.4203V15.7738V-9.86431e-07H1.03777V16.8728L9.89696e-07 17.4546V29.8668L0.648608 30.7718V42.6022Z" transform="translate(82.0381 39.8022)" fill="url(#paint37_linear)"/>
<path d="M1.16749 0H0V31.9355H1.16749V0Z" transform="translate(80.8707 26.7435)" fill="url(#paint38_linear)"/>
<path d="M0 49.2608H1.8161V11.1192L2.33499 10.6667V-4.93215e-07H1.1675V11.5071L0 11.9596V49.2608Z" transform="translate(59.7261 33.1435)" fill="url(#paint39_linear)"/>
<path d="M1.23235 10.796V-9.86431e-07H1.97939e-06V11.895L1.23235 10.796Z" transform="translate(58.6234 34.9536)" fill="url(#paint40_linear)"/>
<path d="M0.583746 47.4507H2.39985V24.3718L1.16749 23.7253V-9.86431e-07H-1.97939e-06V23.8546L0.583746 24.6304V47.4507Z" transform="translate(78.6654 34.9536)" fill="url(#paint41_linear)"/>
<path d="M1.16749 0H-1.97939e-06V55.6608H1.16749V0Z" transform="translate(76.3953 26.7435)" fill="url(#paint42_linear)"/>
<path d="M1.16749 0H1.97939e-06V59.0871H1.16749V0Z" transform="translate(74.19 23.3819)" fill="url(#paint43_linear)"/>
<path d="M1.16749 0H0V52.1053H1.16749V0Z" transform="translate(71.9847 30.2991)" fill="url(#paint44_linear)"/>
<path d="M-2.47424e-07 31.1597C3.76192 26.6344 4.47539 22.1092 7.84815 22.1092C11.8695 22.1092 11.6101 28.9617 16.2152 28.9617C20.7554 28.9617 23.739 12.0889 30.8088 12.0889C35.4788 12.0889 37.4895 20.9455 43.327 20.9455C46.8943 20.9455 47.9969 17.9718 49.4239 14.3516C49.5536 14.0283 47.5429 10.9899 47.8024 10.7314C52.5372 5.9475 52.9263 0.258587 60.3205 0C68.3632 0 69.855 11.0546 74.525 17.5839C74.6547 17.7778 71.9954 19.6526 72.19 19.8465C74.0061 22.1092 76.3411 23.79 79.7787 23.5961C90.6104 23.0142 90.6104 28.4446 93.2697 31.1597H-2.47424e-07Z" transform="translate(7.77258 51.3739)" fill="url(#paint45_linear)"/>
<path d="M23.177 8.48875C23.631 9.19987 25.6417 11.5271 25.2526 12.2383C22.3987 17.8625 15.9126 20.8363 9.62112 19.0262C2.5513 16.9575 -1.53493 9.58774 0.540616 2.54125C0.670337 2.15337 0.735197 1.76549 0.929779 1.37761C1.3838 0.343265 8.19418 -0.885023 14.9397 0.925085C16.8207 1.44226 22.3338 7.06652 23.177 8.48875Z" transform="translate(62.1041 41.1397)" fill="#76D6BD"/>
<path opacity="0.45" d="M22.6616 9.16227C20.9104 15.2391 14.4892 18.7946 8.32741 17.0492C2.16564 15.3037 -1.33684 8.83904 0.479259 2.76224C0.738702 1.98648 1.32245 0.758194 1.32245 0.758194C1.32245 0.758194 7.80852 -0.857974 13.1271 0.6289C19.1591 2.37436 22.7914 8.83903 22.7914 8.83903C22.7914 8.83903 22.6616 9.03297 22.6616 9.16227Z" transform="translate(63.9167 41.4359)" fill="white"/>
<path d="M21.1127 10.0334C19.4263 15.7223 13.524 19.0193 7.75142 17.3385C1.97882 15.6577 -1.19936 9.77482 0.42216 4.08591C2.04368 -1.603 6.71365 -0.310066 12.2917 1.75863C14.8212 2.72833 21.8262 7.70613 21.1127 10.0334Z" transform="translate(64.6873 40.3061)" fill="white"/>
<path d="M9.43577 5.45969C4.18205 3.97281 -0.423056 5.26575 0.030969 4.48999C2.30109 0.934417 6.77648 -0.875693 11.0573 0.417241C16.0516 1.83947 18.9703 6.88192 17.9325 11.7951C17.9325 12.1183 14.6246 7.01121 9.43577 5.45969Z" transform="translate(67.2189 36.799)" fill="#76D6BD"/>
<path opacity="0.45" d="M7.53537 4.08001C2.99512 2.78708 -0.572223 4.01536 0.0763841 3.17496C2.15193 0.589088 5.65441 -0.6392 9.09203 0.330501C13.0485 1.49414 15.5132 5.17901 15.1889 9.12246C15.1889 9.70428 12.0756 5.37295 7.53537 4.08001Z" transform="translate(68.795 38.1787)" fill="white"/>
<path d="M7.49272 3.42874C3.27677 2.20045 -0.679726 3.49339 0.0986024 2.58834C0.358045 2.32975 0.552626 2.07116 0.812069 1.87722C2.75789 0.196407 5.48204 -0.450061 8.14133 0.3257C11.6438 1.36005 13.8491 4.46309 13.8491 7.95401C13.8491 8.08331 13.8491 8.2126 13.8491 8.40654C13.9139 8.92371 11.7087 4.59238 7.49272 3.42874Z" transform="translate(69.5511 38.7653)" fill="white"/>
<path d="M2.85387 0.129293L4.54025 6.72326L-1.97939e-06 7.95155L2.33499 -4.93215e-07L2.85387 0.129293Z" transform="translate(74.7737 41.8708)" fill="#CEF4EC"/>
<path d="M3.17817 8.21013L1.97939e-06 4.78386L4.99428 9.86431e-07L5.4483 0.258586L3.17817 8.21013Z" transform="translate(71.5955 41.6122)" fill="#8BEAD8"/>
<path d="M3.17818 3.42628L9.89696e-07 0L2.20527 6.65861L3.17818 3.42628ZM9.89696e-07 0L2.20527 6.65861L3.17818 3.42628" transform="translate(71.3361 47.1718)" fill="#4DD6BC"/>
<path d="M0.972913 1.22829L1.97939e-06 4.46063L5.4483 9.86431e-07L0.972913 1.22829Z" transform="translate(73.5414 49.3698)" fill="#1ABC9C"/>
<path d="M1.4918 2.97375C2.31569 2.97375 2.98359 2.30805 2.98359 1.48687C2.98359 0.665694 2.31569 0 1.4918 0C0.6679 0 0 0.665694 0 1.48687C0 2.30805 0.6679 2.97375 1.4918 2.97375Z" transform="translate(20.6799 66.178)" fill="#8BEAD8"/>
<path d="M1.4918 2.97375C2.3157 2.97375 2.98359 2.30805 2.98359 1.48688C2.98359 0.665697 2.3157 0 1.4918 0C0.667902 0 0 0.665697 0 1.48688C0 2.30805 0.667902 2.97375 1.4918 2.97375Z" transform="translate(42.8622 55.9638)" fill="#8BEAD8"/>
<path d="M1.4918 2.97375C2.31569 2.97375 2.9836 2.30805 2.9836 1.48687C2.9836 0.665696 2.31569 0 1.4918 0C0.6679 0 -1.97939e-06 0.665696 -1.97939e-06 1.48687C-1.97939e-06 2.30805 0.6679 2.97375 1.4918 2.97375Z" transform="translate(51.0995 30.493)" fill="#8BEAD8"/>
<path d="M1.4918 2.97375C2.31569 2.97375 2.98359 2.30805 2.98359 1.48687C2.98359 0.665696 2.31569 0 1.4918 0C0.667901 0 0 0.665696 0 1.48687C0 2.30805 0.667901 2.97375 1.4918 2.97375Z" transform="translate(39.0355 47.1718)" fill="#8BEAD8"/>
<path d="M4.54025 9.05054C7.04776 9.05054 9.0805 7.02451 9.0805 4.52527C9.0805 2.02603 7.04776 0 4.54025 0C2.03274 0 0 2.02603 0 4.52527C0 7.02451 2.03274 9.05054 4.54025 9.05054Z" transform="translate(33.9763 59.1315)" fill="#CCF2EA"/>
<path opacity="0.45" d="M4.02137 8.01619C6.2423 8.01619 8.04273 6.22171 8.04273 4.0081C8.04273 1.79449 6.2423 1.97286e-06 4.02137 1.97286e-06C1.80043 1.97286e-06 0 1.79449 0 4.0081C0 6.22171 1.80043 8.01619 4.02137 8.01619Z" transform="translate(34.4304 59.6487)" fill="white"/>
<path d="M3.24304 6.46467C5.03412 6.46467 6.48607 5.01751 6.48607 3.23234C6.48607 1.44717 5.03412 0 3.24304 0C1.45196 0 0 1.44717 0 3.23234C0 5.01751 1.45196 6.46467 3.24304 6.46467Z" transform="translate(35.2087 60.4244)" fill="white"/>
<path d="M4.54025 9.05054C7.04776 9.05054 9.0805 7.02451 9.0805 4.52527C9.0805 2.02603 7.04776 0 4.54025 0C2.03274 0 0 2.02603 0 4.52527C0 7.02451 2.03274 9.05054 4.54025 9.05054Z" transform="translate(10.8859 68.8932)" fill="#CCF2EA"/>
<path opacity="0.45" d="M4.02137 8.0162C6.2423 8.0162 8.04273 6.22171 8.04273 4.0081C8.04273 1.79448 6.2423 0 4.02137 0C1.80043 0 0 1.79448 0 4.0081C0 6.22171 1.80043 8.0162 4.02137 8.0162Z" transform="translate(11.4048 69.4103)" fill="white"/>
<path d="M3.24304 6.46467C5.03412 6.46467 6.48607 5.01751 6.48607 3.23234C6.48607 1.44717 5.03412 0 3.24304 0C1.45196 0 0 1.44717 0 3.23234C0 5.01751 1.45196 6.46467 3.24304 6.46467Z" transform="translate(12.1832 70.1861)" fill="white"/>
<defs>
<linearGradient id="paint0_linear" x2="1" gradientUnits="userSpaceOnUse" gradientTransform="translate(110) scale(110) rotate(90)">
<stop stop-color="#1BBC9D"/>
<stop offset="1" stop-color="#1BBC9D" stop-opacity="0"/>
</linearGradient>
<linearGradient id="paint1_linear" x2="1" gradientUnits="userSpaceOnUse" gradientTransform="translate(20.4571 0.585182) scale(39.8203 39.6889) rotate(90)">
<stop stop-color="#AEFFEF"/>
<stop offset="1" stop-color="#1ABC9C" stop-opacity="0"/>
</linearGradient>
<linearGradient id="paint2_linear" x2="1" gradientUnits="userSpaceOnUse" gradientTransform="translate(18.5476 0.512455) scale(35.9675 35.8488) rotate(90)">
<stop stop-color="#AEFFEF"/>
<stop offset="0.9961" stop-color="#1ABC9C" stop-opacity="0"/>
</linearGradient>
<linearGradient id="paint3_linear" x2="1" gradientUnits="userSpaceOnUse" gradientTransform="translate(25.4479 0.681053) scale(49.7739 49.6097) rotate(90)">
<stop stop-color="#AEFFEF"/>
<stop offset="0.9961" stop-color="#1ABC9C" stop-opacity="0"/>
</linearGradient>
<linearGradient id="paint4_linear" x2="1" gradientUnits="userSpaceOnUse" gradientTransform="translate(31.0932 0.86549) scale(61.0305 60.8291) rotate(90)">
<stop stop-color="#AEFFEF"/>
<stop offset="0.9961" stop-color="#1ABC9C" stop-opacity="0"/>
</linearGradient>
<linearGradient id="paint5_linear" x2="1" gradientUnits="userSpaceOnUse" gradientTransform="translate(20.3555 -6.07892) scale(39.5493 39.4189) rotate(90)">
<stop stop-color="#AEFFEF"/>
<stop offset="0.9961" stop-color="#1ABC9C" stop-opacity="0"/>
</linearGradient>
<linearGradient id="paint6_linear" x2="1" gradientUnits="userSpaceOnUse" gradientTransform="translate(18.1184 -5.40621) scale(35.1709 35.0549) rotate(90)">
<stop stop-color="#AEFFEF"/>
<stop offset="0.9961" stop-color="#1ABC9C" stop-opacity="0"/>
</linearGradient>
<linearGradient id="paint7_linear" x2="1" gradientUnits="userSpaceOnUse" gradientTransform="translate(20.4116 -14.4289) scale(39.7236 39.5926) rotate(90)">
<stop stop-color="#AEFFEF"/>
<stop offset="0.9961" stop-color="#1ABC9C" stop-opacity="0"/>
</linearGradient>
<linearGradient id="paint8_linear" x2="1" gradientUnits="userSpaceOnUse" gradientTransform="translate(21.2193 0.577877) scale(41.2602 41.124) rotate(90)">
<stop stop-color="#AEFFEF"/>
<stop offset="0.9961" stop-color="#1ABC9C" stop-opacity="0"/>
</linearGradient>
<linearGradient id="paint9_linear" x2="1" gradientUnits="userSpaceOnUse" gradientTransform="translate(22.5766 -6.78984) scale(44.0706 43.9252) rotate(90)">
<stop stop-color="#AEFFEF"/>
<stop offset="0.9961" stop-color="#1ABC9C" stop-opacity="0"/>
</linearGradient>
<linearGradient id="paint10_linear" x2="1" gradientUnits="userSpaceOnUse" gradientTransform="translate(21.1151 -6.29691) scale(41.1138 40.9781) rotate(90)">
<stop stop-color="#AEFFEF"/>
<stop offset="0.9961" stop-color="#1ABC9C" stop-opacity="0"/>
</linearGradient>
<linearGradient id="paint11_linear" x2="1" gradientUnits="userSpaceOnUse" gradientTransform="translate(23.7281 -16.8679) scale(46.4357 46.2825) rotate(90)">
<stop stop-color="#AEFFEF"/>
<stop offset="0.9961" stop-color="#1ABC9C" stop-opacity="0"/>
</linearGradient>
<linearGradient id="paint12_linear" x2="1" gradientUnits="userSpaceOnUse" gradientTransform="translate(22.2853 -10.6374) scale(43.4372 43.2938) rotate(90)">
<stop stop-color="#AEFFEF"/>
<stop offset="0.9961" stop-color="#1ABC9C" stop-opacity="0"/>
</linearGradient>
<linearGradient id="paint13_linear" x2="1" gradientUnits="userSpaceOnUse" gradientTransform="translate(28.661 -13.7175) scale(56.1548 55.9695) rotate(90)">
<stop stop-color="#AEFFEF"/>
<stop offset="0.9961" stop-color="#1ABC9C" stop-opacity="0"/>
</linearGradient>
<linearGradient id="paint14_linear" x2="1" gradientUnits="userSpaceOnUse" gradientTransform="translate(29.9514 -21.358) scale(58.7017 58.508) rotate(90)">
<stop stop-color="#AEFFEF"/>
<stop offset="0.9961" stop-color="#1ABC9C" stop-opacity="0"/>
</linearGradient>
<linearGradient id="paint15_linear" x2="1" gradientUnits="userSpaceOnUse" gradientTransform="translate(26.9815 -19.2029) scale(52.7281 52.5541) rotate(90)">
<stop stop-color="#AEFFEF"/>
<stop offset="0.9961" stop-color="#1ABC9C" stop-opacity="0"/>
</linearGradient>
<linearGradient id="paint16_linear" x2="1" gradientUnits="userSpaceOnUse" gradientTransform="translate(41.2991 -39.8292) scale(81.4592 81.1905) rotate(90)">
<stop stop-color="#AEFFEF"/>
<stop offset="1" stop-color="#1ABC9C" stop-opacity="0"/>
</linearGradient>
<linearGradient id="paint17_linear" x2="1" gradientUnits="userSpaceOnUse" gradientTransform="translate(31.0517 -22.1478) scale(60.9193 60.7183) rotate(90)">
<stop stop-color="#AEFFEF"/>
<stop offset="0.9961" stop-color="#1ABC9C" stop-opacity="0"/>
</linearGradient>
<linearGradient id="paint18_linear" x2="1" gradientUnits="userSpaceOnUse" gradientTransform="translate(29.9598 -21.358) scale(58.7017 58.508) rotate(90)">
<stop stop-color="#AEFFEF"/>
<stop offset="0.9961" stop-color="#1ABC9C" stop-opacity="0"/>
</linearGradient>
<linearGradient id="paint19_linear" x2="1" gradientUnits="userSpaceOnUse" gradientTransform="translate(35.3257 -33.9929) scale(69.4785 69.2493) rotate(90)">
<stop stop-color="#AEFFEF"/>
<stop offset="0.9961" stop-color="#1ABC9C" stop-opacity="0"/>
</linearGradient>
<linearGradient id="paint20_linear" x2="1" gradientUnits="userSpaceOnUse" gradientTransform="translate(23.1768 2.74419) scale(45.147 44.998) rotate(90)">
<stop stop-color="#AEFFEF"/>
<stop offset="0.9961" stop-color="#1ABC9C" stop-opacity="0"/>
</linearGradient>
<linearGradient id="paint21_linear" x2="1" gradientUnits="userSpaceOnUse" gradientTransform="translate(24.5768 2.86282) scale(47.913 47.7549) rotate(90)">
<stop stop-color="#AEFFEF"/>
<stop offset="0.9961" stop-color="#1ABC9C" stop-opacity="0"/>
</linearGradient>
<linearGradient id="paint22_linear" x2="1" gradientUnits="userSpaceOnUse" gradientTransform="translate(24.1441 -3.15217) scale(47.1435 46.988) rotate(90)">
<stop stop-color="#AEFFEF"/>
<stop offset="0.9961" stop-color="#1ABC9C" stop-opacity="0"/>
</linearGradient>
<linearGradient id="paint23_linear" x2="1" gradientUnits="userSpaceOnUse" gradientTransform="translate(-19.3662 0.585182) scale(39.8203 -39.6889) rotate(-90)">
<stop stop-color="#AEFFEF"/>
<stop offset="0.9961" stop-color="#1ABC9C" stop-opacity="0"/>
</linearGradient>
<linearGradient id="paint24_linear" x2="1" gradientUnits="userSpaceOnUse" gradientTransform="translate(-17.3918 0.512455) scale(35.9675 -35.8488) rotate(-90)">
<stop stop-color="#AEFFEF"/>
<stop offset="0.9961" stop-color="#1ABC9C" stop-opacity="0"/>
</linearGradient>
<linearGradient id="paint25_linear" x2="1" gradientUnits="userSpaceOnUse" gradientTransform="translate(-23.6874 0.681053) scale(49.7739 -49.6097) rotate(-90)">
<stop stop-color="#AEFFEF"/>
<stop offset="0.9961" stop-color="#1ABC9C" stop-opacity="0"/>
</linearGradient>
<linearGradient id="paint26_linear" x2="1" gradientUnits="userSpaceOnUse" gradientTransform="translate(-29.9373 0.86549) scale(61.0305 -60.8291) rotate(-90)">
<stop stop-color="#AEFFEF"/>
<stop offset="0.9961" stop-color="#1ABC9C" stop-opacity="0"/>
</linearGradient>
<linearGradient id="paint27_linear" x2="1" gradientUnits="userSpaceOnUse" gradientTransform="translate(-19.1996 -6.07892) scale(39.5493 -39.4189) rotate(-90)">
<stop stop-color="#AEFFEF"/>
<stop offset="0.9961" stop-color="#1ABC9C" stop-opacity="0"/>
</linearGradient>
<linearGradient id="paint28_linear" x2="1" gradientUnits="userSpaceOnUse" gradientTransform="translate(-17.0273 -5.40621) scale(35.1709 -35.0549) rotate(-90)">
<stop stop-color="#AEFFEF"/>
<stop offset="0.9961" stop-color="#1ABC9C" stop-opacity="0"/>
</linearGradient>
<linearGradient id="paint29_linear" x2="1" gradientUnits="userSpaceOnUse" gradientTransform="translate(-19.3206 -14.4289) scale(39.7236 -39.5926) rotate(-90)">
<stop stop-color="#AEFFEF"/>
<stop offset="0.9961" stop-color="#1ABC9C" stop-opacity="0"/>
</linearGradient>
<linearGradient id="paint30_linear" x2="1" gradientUnits="userSpaceOnUse" gradientTransform="translate(-20.0635 0.577877) scale(41.2602 -41.124) rotate(-90)">
<stop stop-color="#AEFFEF"/>
<stop offset="0.9961" stop-color="#1ABC9C" stop-opacity="0"/>
</linearGradient>
<linearGradient id="paint31_linear" x2="1" gradientUnits="userSpaceOnUse" gradientTransform="translate(-21.4856 -6.78984) scale(44.0706 -43.9252) rotate(-90)">
<stop stop-color="#AEFFEF"/>
<stop offset="0.9961" stop-color="#1ABC9C" stop-opacity="0"/>
</linearGradient>
<linearGradient id="paint32_linear" x2="1" gradientUnits="userSpaceOnUse" gradientTransform="translate(-20.0241 -6.29691) scale(41.1138 -40.9781) rotate(-90)">
<stop stop-color="#AEFFEF"/>
<stop offset="0.9961" stop-color="#1ABC9C" stop-opacity="0"/>
</linearGradient>
<linearGradient id="paint33_linear" x2="1" gradientUnits="userSpaceOnUse" gradientTransform="translate(-22.7019 -16.8679) scale(46.4357 -46.2825) rotate(-90)">
<stop stop-color="#AEFFEF"/>
<stop offset="0.9961" stop-color="#1ABC9C" stop-opacity="0"/>
</linearGradient>
<linearGradient id="paint34_linear" x2="1" gradientUnits="userSpaceOnUse" gradientTransform="translate(-21.1295 -10.6374) scale(43.4372 -43.2938) rotate(-90)">
<stop stop-color="#AEFFEF"/>
<stop offset="0.9961" stop-color="#1ABC9C" stop-opacity="0"/>
</linearGradient>
<linearGradient id="paint35_linear" x2="1" gradientUnits="userSpaceOnUse" gradientTransform="translate(-27.5052 -13.7175) scale(56.1548 -55.9695) rotate(-90)">
<stop stop-color="#AEFFEF"/>
<stop offset="0.9961" stop-color="#1ABC9C" stop-opacity="0"/>
</linearGradient>
<linearGradient id="paint36_linear" x2="1" gradientUnits="userSpaceOnUse" gradientTransform="translate(-28.7306 -21.358) scale(58.7017 -58.508) rotate(-90)">
<stop stop-color="#AEFFEF"/>
<stop offset="0.9961" stop-color="#1ABC9C" stop-opacity="0"/>
</linearGradient>
<linearGradient id="paint37_linear" x2="1" gradientUnits="userSpaceOnUse" gradientTransform="translate(-25.2442 -19.2029) scale(52.7281 -52.5541) rotate(-90)">
<stop stop-color="#AEFFEF"/>
<stop offset="0.9961" stop-color="#1ABC9C" stop-opacity="0"/>
</linearGradient>
<linearGradient id="paint38_linear" x2="1" gradientUnits="userSpaceOnUse" gradientTransform="translate(-22.7737 -22.8337) scale(46.72 -46.5659) rotate(-90)">
<stop stop-color="#AEFFEF"/>
<stop offset="0.9961" stop-color="#1ABC9C" stop-opacity="0"/>
</linearGradient>
<linearGradient id="paint39_linear" x2="1" gradientUnits="userSpaceOnUse" gradientTransform="translate(-29.2895 -22.1478) scale(60.9193 -60.7183) rotate(-90)">
<stop stop-color="#AEFFEF"/>
<stop offset="0.9961" stop-color="#1ABC9C" stop-opacity="0"/>
</linearGradient>
<linearGradient id="paint40_linear" x2="1" gradientUnits="userSpaceOnUse" gradientTransform="translate(-6.73196 -5.34518) scale(14.6875 -14.639) rotate(-90)">
<stop stop-color="#AEFFEF"/>
<stop offset="0.9961" stop-color="#1ABC9C" stop-opacity="0"/>
</linearGradient>
<linearGradient id="paint41_linear" x2="1" gradientUnits="userSpaceOnUse" gradientTransform="translate(-33.5482 -33.9929) scale(69.4785 -69.2493) rotate(-90)">
<stop stop-color="#AEFFEF"/>
<stop offset="0.9961" stop-color="#1ABC9C" stop-opacity="0"/>
</linearGradient>
<linearGradient id="paint42_linear" x2="1" gradientUnits="userSpaceOnUse" gradientTransform="translate(-21.9561 2.74419) scale(45.147 -44.998) rotate(-90)">
<stop stop-color="#AEFFEF"/>
<stop offset="0.9961" stop-color="#1ABC9C" stop-opacity="0"/>
</linearGradient>
<linearGradient id="paint43_linear" x2="1" gradientUnits="userSpaceOnUse" gradientTransform="translate(-23.356 2.86282) scale(47.913 -47.7549) rotate(-90)">
<stop stop-color="#AEFFEF"/>
<stop offset="0.9961" stop-color="#1ABC9C" stop-opacity="0"/>
</linearGradient>
<linearGradient id="paint44_linear" x2="1" gradientUnits="userSpaceOnUse" gradientTransform="translate(-22.9882 -3.15217) scale(47.1435 -46.988) rotate(-90)">
<stop stop-color="#AEFFEF"/>
<stop offset="0.9961" stop-color="#1ABC9C" stop-opacity="0"/>
</linearGradient>
<linearGradient id="paint45_linear" x2="1" gradientUnits="userSpaceOnUse" gradientTransform="translate(67.0458 0.478774) scale(40.849 40.7142) rotate(90)">
<stop stop-color="#C0F9EB"/>
<stop offset="1" stop-color="#009377"/>
</linearGradient>
</defs>
</svg>
