<svg width="147" height="147" viewBox="0 0 147 147" fill="none" xmlns="http://www.w3.org/2000/svg">
<ellipse cx="73.0921" cy="73.0597" rx="73.0921" ry="73.0597" transform="translate(0.723694)" fill="url(#paint0_linear)" fill-opacity="0.15"/>
<path d="M22.7 0H0V31H22.7V0Z" transform="translate(80.5 83.8)" fill="url(#paint1_linear)"/>
<path d="M22.7 0H0V61H22.7V0Z" transform="translate(55 53.8)" fill="url(#paint2_linear)"/>
<path d="M22.7 81H9.53674e-08V77V1.90735e-07H22.7V81Z" transform="translate(29.4 33.8)" fill="url(#paint3_linear)"/>
<path d="M20 40C31.0457 40 40 31.0457 40 20C40 8.95431 31.0457 0 20 0C8.9543 0 0 8.95431 0 20C0 31.0457 8.9543 40 20 40Z" transform="translate(49.3 57.3999)" fill="#76D6BD"/>
<path opacity="0.45" d="M17.3 34.6C26.8545 34.6 34.6 26.8545 34.6 17.3C34.6 7.74547 26.8545 0 17.3 0C7.74547 0 0 7.74547 0 17.3C0 26.8545 7.74547 34.6 17.3 34.6Z" transform="translate(52 60.1001)" fill="white"/>
<path d="M16.2 32.4C25.147 32.4 32.4 25.147 32.4 16.2C32.4 7.25299 25.147 0 16.2 0C7.25299 0 0 7.25299 0 16.2C0 25.147 7.25299 32.4 16.2 32.4Z" transform="translate(53.1 61.2)" fill="white"/>
<path d="M-7.62939e-07 3.6V8.7L6 -7.62939e-07L-7.62939e-07 3.6Z" transform="translate(69.3 78.8)" fill="#1ABC9C"/>
<path d="M6 14L-7.62939e-07 10.3L6 -7.62939e-07V14Z" transform="translate(63.3 67.3)" fill="#8BEAD8"/>
<path d="M-7.62939e-07 -7.62939e-07L6 10.3L-7.62939e-07 14V-7.62939e-07Z" transform="translate(69.3 67.3)" fill="#CEF4EC"/>
<path d="M6 3.6L-7.62939e-07 -7.62939e-07L6 8.7V3.6ZM-7.62939e-07 -7.62939e-07L6 8.7V3.6" transform="translate(63.3 78.8)" fill="#4DD6BC"/>
<path d="M2.3 4.6C3.57025 4.6 4.6 3.57026 4.6 2.3C4.6 1.02975 3.57025 0 2.3 0C1.02974 0 0 1.02975 0 2.3C0 3.57026 1.02974 4.6 2.3 4.6Z" transform="translate(92.9 54.1)" fill="#8BEAD8"/>
<path d="M2.3 4.6C3.57026 4.6 4.6 3.57026 4.6 2.3C4.6 1.02975 3.57026 0 2.3 0C1.02975 0 0 1.02975 0 2.3C0 3.57026 1.02975 4.6 2.3 4.6Z" transform="translate(93.6 24.1)" fill="#8BEAD8"/>
<path d="M2.3 4.6C3.57025 4.6 4.6 3.57025 4.6 2.3C4.6 1.02974 3.57025 0 2.3 0C1.02974 0 -3.05176e-06 1.02974 -3.05176e-06 2.3C-3.05176e-06 3.57025 1.02974 4.6 2.3 4.6Z" transform="translate(98.2 46.7)" fill="#8BEAD8"/>
<path d="M7 14C10.866 14 14 10.866 14 7C14 3.13401 10.866 0 7 0C3.13401 0 0 3.13401 0 7C0 10.866 3.13401 14 7 14Z" transform="translate(78.5 34.1)" fill="#CCF2EA"/>
<path opacity="0.45" d="M6.2 12.4C9.62417 12.4 12.4 9.62417 12.4 6.2C12.4 2.77583 9.62417 0 6.2 0C2.77584 0 0 2.77583 0 6.2C0 9.62417 2.77584 12.4 6.2 12.4Z" transform="translate(79.2 34.9)" fill="white"/>
<path d="M5 10C7.76143 10 10 7.76142 10 5C10 2.23858 7.76143 0 5 0C2.23858 0 0 2.23858 0 5C0 7.76142 2.23858 10 5 10Z" transform="translate(80.4 36.1)" fill="white"/>
<path d="M7 14C10.866 14 14 10.866 14 7C14 3.13401 10.866 0 7 0C3.13401 0 0 3.13401 0 7C0 10.866 3.13401 14 7 14Z" transform="translate(95.5 61.3)" fill="#CCF2EA"/>
<path opacity="0.45" d="M6.2 12.4C9.62417 12.4 12.4 9.62416 12.4 6.2C12.4 2.77583 9.62417 0 6.2 0C2.77584 0 -3.05176e-06 2.77583 -3.05176e-06 6.2C-3.05176e-06 9.62416 2.77584 12.4 6.2 12.4Z" transform="translate(96.2 62.1001)" fill="white"/>
<path d="M5 10C7.76143 10 10 7.76142 10 5C10 2.23858 7.76143 0 5 0C2.23858 0 0 2.23858 0 5C0 7.76142 2.23858 10 5 10Z" transform="translate(97.4 63.3)" fill="white"/>
<path d="M21.6 -3.05176e-06H0V2.4H21.6V-3.05176e-06Z" transform="translate(74.1 109.7)" fill="#1ABC9C"/>
<path d="M21.6 0H0V2.4H21.6V0Z" transform="translate(74.1 96.5)" fill="#1ABC9C"/>
<path d="M21.6 3.05176e-06H0V2.4H21.6V3.05176e-06Z" transform="translate(73.7 93.8)" fill="#1ABC9C"/>
<path d="M21.6 3.05176e-06H-3.05176e-06V2.4H21.6V3.05176e-06Z" transform="translate(97.2 112.3)" fill="#1ABC9C"/>
<path d="M21.6 -3.05176e-06H-3.05176e-06V2.4H21.6V-3.05176e-06Z" transform="translate(97.2 109.7)" fill="#1ABC9C"/>
<path d="M21.6 0H-3.05176e-06V2.4H21.6V0Z" transform="translate(97.2 99.1001)" fill="#1ABC9C"/>
<path d="M21.6 0H0V2.4H21.6V0Z" transform="translate(73.7 104.4)" fill="#1ABC9C"/>
<path d="M21.6 0H0V2.4H21.6V0Z" transform="translate(73.7 99.1001)" fill="#1ABC9C"/>
<path d="M21.6 3.05176e-06H0V2.4H21.6V3.05176e-06Z" transform="translate(72.5 112.3)" fill="#1ABC9C"/>
<path d="M21.6 0H-3.05176e-06V2.4H21.6V0Z" transform="translate(99.2 104.4)" fill="#1ABC9C"/>
<path d="M21.6 0H0V2.4H21.6V0Z" transform="translate(97.5 107)" fill="#1ABC9C"/>
<path d="M21.6 -3.05176e-06H0V2.4H21.6V-3.05176e-06Z" transform="translate(97.5 101.7)" fill="#1ABC9C"/>
<path d="M21.6 -3.05176e-06H0V2.4H21.6V-3.05176e-06Z" transform="translate(72.5 101.7)" fill="#1ABC9C"/>
<path d="M21.6 0H0V2.4H21.6V0Z" transform="translate(72.5 107)" fill="#1ABC9C"/>
<path d="M21.6 -3.05176e-06H0V2.4H21.6V-3.05176e-06Z" transform="translate(74.1 91.2)" fill="#1ABC9C"/>
<path d="M21.6 0H0V2.4H21.6V0Z" transform="translate(72.5 88.6001)" fill="#1ABC9C"/>
<path d="M21.6 3.05176e-06H0V2.4H21.6V3.05176e-06Z" transform="translate(49 112.3)" fill="#1ABC9C"/>
<path d="M21.6 0H0V2.4H21.6V0Z" transform="translate(49 107)" fill="#1ABC9C"/>
<path d="M21.6 -3.05176e-06H0V2.4H21.6V-3.05176e-06Z" transform="translate(47.8 109.7)" fill="#1ABC9C"/>
<path d="M7 14C10.866 14 14 10.866 14 7C14 3.134 10.866 -3.05176e-06 7 -3.05176e-06C3.13401 -3.05176e-06 0 3.134 0 7C0 10.866 3.13401 14 7 14Z" transform="translate(63.5 109.7)" fill="#CCF2EA"/>
<path opacity="0.45" d="M6.2 12.4C9.62417 12.4 12.4 9.62416 12.4 6.2C12.4 2.77583 9.62417 0 6.2 0C2.77583 0 0 2.77583 0 6.2C0 9.62416 2.77583 12.4 6.2 12.4Z" transform="translate(64.3 110.5)" fill="white"/>
<path d="M5 10C7.76142 10 10 7.76142 10 5C10 2.23857 7.76142 -3.05176e-06 5 -3.05176e-06C2.23858 -3.05176e-06 0 2.23857 0 5C0 7.76142 2.23858 10 5 10Z" transform="translate(65.5 111.7)" fill="white"/>
<defs>
<linearGradient id="paint0_linear" x2="1" gradientUnits="userSpaceOnUse" gradientTransform="translate(146.184) scale(146.184 146.119) rotate(90)">
<stop stop-color="#1BBC9D"/>
<stop offset="1" stop-color="#F4FAF8" stop-opacity="0"/>
</linearGradient>
<linearGradient id="paint1_linear" x2="1" gradientUnits="userSpaceOnUse" gradientTransform="translate(-4.15815 31.0123) scale(31.0455) rotate(-90)">
<stop stop-color="white" stop-opacity="0"/>
<stop offset="0.3215" stop-color="#E9FBF8" stop-opacity="0.3227"/>
<stop offset="0.9863" stop-color="#B2F2E6" stop-opacity="0.9902"/>
<stop offset="0.9961" stop-color="#B1F2E6"/>
</linearGradient>
<linearGradient id="paint2_linear" x2="1" gradientUnits="userSpaceOnUse" gradientTransform="translate(-19.2065 61.0123) scale(61.0474) rotate(-90)">
<stop stop-color="white" stop-opacity="0"/>
<stop offset="0.3215" stop-color="#E9FBF8" stop-opacity="0.3227"/>
<stop offset="0.9863" stop-color="#B2F2E6" stop-opacity="0.9902"/>
<stop offset="0.9961" stop-color="#B1F2E6"/>
</linearGradient>
<linearGradient id="paint3_linear" x2="1" gradientUnits="userSpaceOnUse" gradientTransform="translate(-29.1546 81.0123) scale(81.0487) rotate(-90)">
<stop stop-color="white" stop-opacity="0"/>
<stop offset="0.3215" stop-color="#E9FBF8" stop-opacity="0.3227"/>
<stop offset="0.9863" stop-color="#B2F2E6" stop-opacity="0.9902"/>
<stop offset="0.9961" stop-color="#B1F2E6"/>
</linearGradient>
</defs>
</svg>
