<svg width="147" height="147" viewBox="0 0 147 147" fill="none" xmlns="http://www.w3.org/2000/svg">
<ellipse cx="73.0921" cy="73.0597" rx="73.0921" ry="73.0597" fill="url(#paint0_linear)" fill-opacity="0.15"/>
<path d="M1.7 0H0V91.4H1.7V0Z" transform="translate(62.5 36.9)" fill="url(#paint1_linear)"/>
<path d="M1.7 0H0V91.4H1.7V0Z" transform="translate(69.4 36.9)" fill="url(#paint2_linear)"/>
<path d="M1.8 0H0V112H1.8V0Z" transform="translate(65.9 16.3)" fill="url(#paint3_linear)"/>
<path d="M1.8 0H0V75.7H1.8V0Z" transform="translate(41.9 52.6001)" fill="url(#paint4_linear)"/>
<path d="M1.7 0H0V69.5H1.7V0Z" transform="translate(45.4 58.8)" fill="url(#paint5_linear)"/>
<path d="M1.7 0H0V64.8H1.7V0Z" transform="translate(48.8 63.5)" fill="url(#paint6_linear)"/>
<path d="M1.6 0H0V58.1H1.6V0Z" transform="translate(52.3 70.2)" fill="url(#paint7_linear)"/>
<path d="M1.60001 0H0V58.1H1.60001V0Z" transform="translate(127.5 70.2)" fill="url(#paint8_linear)"/>
<path d="M1.8 0H0V62.3H1.8V0Z" transform="translate(11.1 66)" fill="url(#paint9_linear)"/>
<path d="M1.8 0H0V80.6H1.8V0Z" transform="translate(14.5 47.7001)" fill="url(#paint10_linear)"/>
<path d="M1.8 0H0V73.4H1.8V0Z" transform="translate(17.9 54.9)" fill="url(#paint11_linear)"/>
<path d="M1.8 0H0V66H1.8V0Z" transform="translate(21.4 62.4001)" fill="url(#paint12_linear)"/>
<path d="M1.8 0H0V86.1H1.8V0Z" transform="translate(24.8 42.2001)" fill="url(#paint13_linear)"/>
<path d="M1.8 0H0V76.2H1.8V0Z" transform="translate(55.6 52.1001)" fill="url(#paint14_linear)"/>
<path d="M1.8 0H0V73.4H1.8V0Z" transform="translate(59.1 54.9)" fill="url(#paint15_linear)"/>
<path d="M1.8 0H0V73.4H1.8V0Z" transform="translate(28.2 54.9)" fill="url(#paint16_linear)"/>
<path d="M1.8 0H0V86.1H1.8V0Z" transform="translate(31.6 42.2001)" fill="url(#paint17_linear)"/>
<path d="M1.8 0H0V91.4H1.8V0Z" transform="translate(35.1 36.9)" fill="url(#paint18_linear)"/>
<path d="M1.8 0H0V80.6H1.8V0Z" transform="translate(38.5 47.7001)" fill="url(#paint19_linear)"/>
<path d="M1.8 0H-3.05176e-06V66H1.8V0Z" transform="translate(110.7 62.3)" fill="url(#paint20_linear)"/>
<path d="M1.8 0H0V112H1.8V0Z" transform="translate(65.9 16.3)" fill="url(#paint21_linear)"/>
<path d="M1.7 0H0V62.3H1.7V0Z" transform="translate(131 66)" fill="url(#paint22_linear)"/>
<path d="M1.8 0H0V75.7H1.8V0Z" transform="translate(89.9 52.6001)" fill="url(#paint23_linear)"/>
<path d="M1.7 0H0V69.5H1.7V0Z" transform="translate(86.5 58.8)" fill="url(#paint24_linear)"/>
<path d="M1.7 0H0V69.5H1.7V0Z" transform="translate(76.1 58.8)" fill="url(#paint25_linear)"/>
<path d="M1.7 0H0V64.8H1.7V0Z" transform="translate(83.1 63.5)" fill="url(#paint26_linear)"/>
<path d="M1.6 0H-3.05176e-06V58.1H1.6V0Z" transform="translate(79.7 70.2)" fill="url(#paint27_linear)"/>
<path d="M1.60001 0H0V58.1H1.60001V0Z" transform="translate(124 70.2)" fill="url(#paint28_linear)"/>
<path d="M1.8 0H-3.05176e-06V62.3H1.8V0Z" transform="translate(120.7 66)" fill="url(#paint29_linear)"/>
<path d="M1.8 0H3.05176e-06V80.6H1.8V0Z" transform="translate(117.3 47.7001)" fill="url(#paint30_linear)"/>
<path d="M1.8 0H0V73.4H1.8V0Z" transform="translate(113.9 54.9)" fill="url(#paint31_linear)"/>
<path d="M1.8 0H0V49.4H1.8V0Z" transform="translate(107 42.2001)" fill="url(#paint32_linear)"/>
<path d="M1.8 16.7V1.52588e-06H3.05176e-06V18.4L1.8 16.7Z" transform="translate(72.8 54.9)" fill="url(#paint33_linear)"/>
<path d="M1.8 0H-3.05176e-06V86.1H1.8V0Z" transform="translate(100.2 42.2001)" fill="url(#paint34_linear)"/>
<path d="M1.8 0H-3.05176e-06V91.4H1.8V0Z" transform="translate(96.7 36.9)" fill="url(#paint35_linear)"/>
<path d="M1.8 0H3.05176e-06V80.6H1.8V0Z" transform="translate(93.3 47.7001)" fill="url(#paint36_linear)"/>
<path d="M1.8 0H0V80.6H1.8V0Z" transform="translate(103.4 47.7001)" fill="url(#paint37_linear)"/>
<path d="M114 49C113.5 49 113.1 48.6 113 47.9C112.9 47.4 111.5 36 101.3 36C97.7 36 96.6 31.2 95.5 26.5C94 20.1 92.8 15.8 88.7 15.8C85 15.8 84.1 18.6 83 23.1C82 27.3 80.7 32.5 74.8 32.5C69.4 32.5 67 29.8 64.9 27.3C62.8 25 60.9 22.7 56.2 22.7C50.6 22.7 49.1 17.2 47.7 12.4C46.2 7.1 45 2.5 39.5 2.5C34.4 2.5 32.6 7.9 30.5 14.2C28.2 21.1 25.5 28.9 17.6 28.9C12.2 28.9 8 32 5 38.2C2.7 42.9 2.1 47.7 2.1 47.8C2 48.5 1.5 48.9 0.9 48.8C0.3 48.7 7.62939e-07 48.1 7.62939e-07 47.4C7.62939e-07 47.2 0.699999 42.1 3.1 37C6.4 30.1 11.4 26.4 17.5 26.4C24.1 26.4 26.2 20 28.5 13.2C30.7 6.7 33 1.52588e-06 39.4 1.52588e-06C46.4 1.52588e-06 48.2 6.4 49.6 11.5C51.1 16.8 52.2 20.1 56.1 20.1C61.6 20.1 64.1 22.9 66.2 25.3C68.3 27.7 70.1 29.8 74.7 29.8C78.8 29.8 79.7 26.9 80.9 22.1C82 17.9 83.2 13 88.6 13C94.6 13 96.1 19.9 97.4 25.5C98.5 30.3 99.3 33.2 101.2 33.2C113.2 33.2 114.9 47.1 114.9 47.3C115 48 114.6 48.6 114 48.7C114.1 49 114 49 114 49Z" transform="translate(11.7 71.8999)" fill="url(#paint38_linear)"/>
<path d="M7 14C10.866 14 14 10.866 14 7C14 3.13401 10.866 0 7 0C3.13401 0 0 3.13401 0 7C0 10.866 3.13401 14 7 14Z" transform="translate(58.9 20.1)" fill="#CCF2EA"/>
<path opacity="0.45" d="M6.2 12.4C9.62417 12.4 12.4 9.62417 12.4 6.2C12.4 2.77583 9.62417 0 6.2 0C2.77584 0 0 2.77583 0 6.2C0 9.62417 2.77584 12.4 6.2 12.4Z" transform="translate(59.6 20.9)" fill="white"/>
<path d="M5 10C7.76143 10 10 7.76142 10 5C10 2.23858 7.76143 0 5 0C2.23858 0 3.05176e-06 2.23858 3.05176e-06 5C3.05176e-06 7.76142 2.23858 10 5 10Z" transform="translate(60.8 22.1)" fill="white"/>
<path d="M7.00001 14C10.866 14 14 10.866 14 7C14 3.13401 10.866 0 7.00001 0C3.13401 0 0 3.13401 0 7C0 10.866 3.13401 14 7.00001 14Z" transform="translate(118.6 113.9)" fill="#CCF2EA"/>
<path opacity="0.45" d="M6.2 12.4C9.62417 12.4 12.4 9.62417 12.4 6.2C12.4 2.77584 9.62417 -3.05176e-06 6.2 -3.05176e-06C2.77583 -3.05176e-06 3.05176e-06 2.77584 3.05176e-06 6.2C3.05176e-06 9.62417 2.77583 12.4 6.2 12.4Z" transform="translate(119.3 114.7)" fill="white"/>
<path d="M5 10C7.76142 10 10 7.76143 10 5C10 2.23858 7.76142 0 5 0C2.23858 0 0 2.23858 0 5C0 7.76143 2.23858 10 5 10Z" transform="translate(120.5 115.9)" fill="white"/>
<path d="M7 14C10.866 14 14 10.866 14 7C14 3.13401 10.866 0 7 0C3.13401 0 0 3.13401 0 7C0 10.866 3.13401 14 7 14Z" transform="translate(44.3 66.3)" fill="#CCF2EA"/>
<path opacity="0.45" d="M6.2 12.4C9.62417 12.4 12.4 9.62417 12.4 6.2C12.4 2.77584 9.62417 0 6.2 0C2.77584 0 0 2.77584 0 6.2C0 9.62417 2.77584 12.4 6.2 12.4Z" transform="translate(45 67.1001)" fill="white"/>
<path d="M5 10C7.76143 10 10 7.76143 10 5C10 2.23858 7.76143 0 5 0C2.23858 0 0 2.23858 0 5C0 7.76143 2.23858 10 5 10Z" transform="translate(46.2 68.3)" fill="white"/>
<path d="M2.3 4.6C3.57025 4.6 4.6 3.57025 4.6 2.3C4.6 1.02974 3.57025 0 2.3 0C1.02974 0 0 1.02974 0 2.3C0 3.57025 1.02974 4.6 2.3 4.6Z" transform="translate(47.8 29)" fill="#B1F2E6"/>
<path d="M2.3 4.6C3.57025 4.6 4.6 3.57025 4.6 2.3C4.6 1.02974 3.57025 0 2.3 0C1.02974 0 0 1.02974 0 2.3C0 3.57025 1.02974 4.6 2.3 4.6Z" transform="translate(69.9 7)" fill="#B1F2E6"/>
<path d="M2.3 4.6C3.57026 4.6 4.6 3.57026 4.6 2.3C4.6 1.02975 3.57026 0 2.3 0C1.02975 0 0 1.02975 0 2.3C0 3.57026 1.02975 4.6 2.3 4.6Z" transform="translate(74.6 18.3)" fill="#B1F2E6"/>
<path d="M2.3 4.6C3.57026 4.6 4.6 3.57026 4.6 2.3C4.6 1.02975 3.57026 0 2.3 0C1.02975 0 0 1.02975 0 2.3C0 3.57026 1.02975 4.6 2.3 4.6Z" transform="translate(56 41.9)" fill="#B1F2E6"/>
<path d="M20.4 40.8C31.6666 40.8 40.8 31.6666 40.8 20.4C40.8 9.13339 31.6666 0 20.4 0C9.13339 0 0 9.13339 0 20.4C0 31.6666 9.13339 40.8 20.4 40.8Z" transform="translate(80.6 59.0999)" fill="#76D6BD"/>
<path opacity="0.45" d="M17.7 35.4C27.4754 35.4 35.4 27.4754 35.4 17.7C35.4 7.92456 27.4754 0 17.7 0C7.92456 0 3.05176e-06 7.92456 3.05176e-06 17.7C3.05176e-06 27.4754 7.92456 35.4 17.7 35.4Z" transform="translate(83.3 61.8)" fill="white"/>
<path d="M16.5 33C25.6127 33 33 25.6127 33 16.5C33 7.3873 25.6127 0 16.5 0C7.3873 0 0 7.3873 0 16.5C0 25.6127 7.3873 33 16.5 33Z" transform="translate(84.5 62.9998)" fill="white"/>
<path d="M13.5 12.6C13.6 13.3 13.3 14.1 12.6 14.9C11.8 15.8 10.9 16.3 9.9 16.2C9 16.2 7.9 15.7 6.6 15L5.3 16.9L3.9 16L5.2 14.1L4.1 13.4L2.8 15.3L1.4 14.4L2.7 12.5L-3.05176e-06 10.6L1.4 9.2L1.7 9.4C2.1 9.7 2.4 9.9 2.6 10C2.8 10.1 3 10 3.2 9.8L7.4 3.7C7.5 3.4 7.5 3.1 7.3 2.8C7.2 2.6 6.8 2.4 6.3 2L6.1 1.8L7.1 0.299997L7.9 0.900003C8.9 1.6 9.5 2 9.8 2.2L11.3 1.52588e-06L12.7 0.900003L11.2 3.1L12.3 3.8L13.8 1.6L15.2 2.5L13.7 4.7C14.6 5.4 15.2 6.2 15.5 6.8C15.9 7.6 15.8 8.4 15.4 9.2C14.8 10.4 13.9 10.9 12.7 10.7C13.2 11.4 13.5 12 13.5 12.6ZM8.3 7.3L8.5 7.5C9.3 8.1 9.9 8.4 10.4 8.6C11.3 8.9 11.9 8.8 12.4 8.2C12.8 7.6 12.7 6.9 12.2 6.2C11.9 5.8 11.3 5.3 10.5 4.8C10.4 4.7 10.3 4.7 10.2 4.7L8.3 7.3ZM5.6 11.9C6.5 12.6 7.3 13 7.9 13.2C8.9 13.6 9.7 13.4 10.1 12.8C10.6 12.1 10.4 11.4 9.7 10.6C9.3 10.1 8.6 9.6 7.7 9L7.4 8.8L5.4 11.8L5.6 11.9Z" transform="translate(92.2 71.3999)" fill="#1ABC9C"/>
<path d="M13.5 12.8C13.6 13.5 13.3 14.3 12.6 15.1C11.8 16 10.9 16.5 9.9 16.4C9 16.4 7.9 15.9 6.6 15.2L5.3 17.1L3.9 16.2L5.2 14.3L4.1 13.6L2.8 15.5L1.4 14.6L2.7 12.7L0 10.6L1.4 9.2L1.7 9.4C2.1 9.7 2.4 9.9 2.6 10C2.8 10.1 3 10 3.2 9.8L7.4 3.7C7.5 3.4 7.5 3.1 7.3 2.8C7.2 2.6 6.8 2.4 6.3 2L6.1 1.8L7.1 0.300002L7.9 0.9C8.9 1.6 9.5 2 9.8 2.2L11.3 -1.52588e-06L12.7 0.9L11.2 3.1L12.3 3.8L13.8 1.6L15.2 2.5L13.7 4.7C14.6 5.4 15.2 6.2 15.5 6.8C15.9 7.6 15.8 8.4 15.4 9.2C14.8 10.4 13.9 10.9 12.7 10.7C13.1 11.5 13.4 12.1 13.5 12.8ZM8.3 7.5L8.5 7.7C9.3 8.3 9.9 8.6 10.4 8.8C11.3 9.1 11.9 9 12.4 8.4C12.8 7.8 12.7 7.1 12.2 6.4C11.9 6 11.3 5.5 10.5 5C10.4 4.9 10.3 4.9 10.2 4.9L8.3 7.5ZM5.6 12C6.5 12.7 7.3 13.1 7.9 13.3C8.9 13.7 9.7 13.5 10.1 12.9C10.5 12.3 10.4 11.5 9.7 10.7C9.3 10.2 8.6 9.7 7.7 9.1L7.4 8.9L5.4 11.9L5.6 12Z" transform="translate(92 71.0999)" fill="#4DD6BC"/>
<defs>
<linearGradient id="paint0_linear" x2="1" gradientUnits="userSpaceOnUse" gradientTransform="translate(146.184) scale(146.184 146.119) rotate(90)">
<stop stop-color="#1BBC9D"/>
<stop offset="1" stop-color="#F4FAF8" stop-opacity="0"/>
</linearGradient>
<linearGradient id="paint1_linear" x2="1" gradientUnits="userSpaceOnUse" gradientTransform="translate(39.2599 1.138) scale(76.7397) rotate(90)">
<stop stop-color="#AEFFEF"/>
<stop offset="0.9961" stop-color="#1ABC9C" stop-opacity="0"/>
</linearGradient>
<linearGradient id="paint2_linear" x2="1" gradientUnits="userSpaceOnUse" gradientTransform="translate(39.2673 1.138) scale(76.7397) rotate(90)">
<stop stop-color="#AEFFEF"/>
<stop offset="0.9961" stop-color="#1ABC9C" stop-opacity="0"/>
</linearGradient>
<linearGradient id="paint3_linear" x2="1" gradientUnits="userSpaceOnUse" gradientTransform="translate(47.9635 1.3232) scale(94.0947) rotate(90)">
<stop stop-color="#AEFFEF"/>
<stop offset="0.9961" stop-color="#1ABC9C" stop-opacity="0"/>
</linearGradient>
<linearGradient id="paint4_linear" x2="1" gradientUnits="userSpaceOnUse" gradientTransform="translate(32.7403 0.8783) scale(63.6136) rotate(90)">
<stop stop-color="#AEFFEF"/>
<stop offset="0.9961" stop-color="#1ABC9C" stop-opacity="0"/>
</linearGradient>
<linearGradient id="paint5_linear" x2="1" gradientUnits="userSpaceOnUse" gradientTransform="translate(34.8329 -10.4186) scale(67.9466) rotate(90)">
<stop stop-color="#AEFFEF"/>
<stop offset="0.9961" stop-color="#1ABC9C" stop-opacity="0"/>
</linearGradient>
<linearGradient id="paint6_linear" x2="1" gradientUnits="userSpaceOnUse" gradientTransform="translate(32.5796 -9.756) scale(63.3877) rotate(90)">
<stop stop-color="#AEFFEF"/>
<stop offset="0.9961" stop-color="#1ABC9C" stop-opacity="0"/>
</linearGradient>
<linearGradient id="paint7_linear" x2="1" gradientUnits="userSpaceOnUse" gradientTransform="translate(36.6082 -26.108) scale(71.5928) rotate(90)">
<stop stop-color="#AEFFEF"/>
<stop offset="0.9961" stop-color="#1ABC9C" stop-opacity="0"/>
</linearGradient>
<linearGradient id="paint8_linear" x2="1" gradientUnits="userSpaceOnUse" gradientTransform="translate(36.6267 -26.108) scale(71.5928) rotate(90)">
<stop stop-color="#AEFFEF"/>
<stop offset="0.9961" stop-color="#1ABC9C" stop-opacity="0"/>
</linearGradient>
<linearGradient id="paint9_linear" x2="1" gradientUnits="userSpaceOnUse" gradientTransform="translate(34.3837 -16.4701) scale(66.9699) rotate(90)">
<stop stop-color="#AEFFEF"/>
<stop offset="0.9961" stop-color="#1ABC9C" stop-opacity="0"/>
</linearGradient>
<linearGradient id="paint10_linear" x2="1" gradientUnits="userSpaceOnUse" gradientTransform="translate(44.2137 -21.2347) scale(86.5775) rotate(90)">
<stop stop-color="#AEFFEF"/>
<stop offset="0.9961" stop-color="#1ABC9C" stop-opacity="0"/>
</linearGradient>
<linearGradient id="paint11_linear" x2="1" gradientUnits="userSpaceOnUse" gradientTransform="translate(46.2031 -33.0536) scale(90.5042) rotate(90)">
<stop stop-color="#AEFFEF"/>
<stop offset="0.9961" stop-color="#1ABC9C" stop-opacity="0"/>
</linearGradient>
<linearGradient id="paint12_linear" x2="1" gradientUnits="userSpaceOnUse" gradientTransform="translate(41.5243 -29.7199) scale(81.2943) rotate(90)">
<stop stop-color="#AEFFEF"/>
<stop offset="0.9961" stop-color="#1ABC9C" stop-opacity="0"/>
</linearGradient>
<linearGradient id="paint13_linear" x2="1" gradientUnits="userSpaceOnUse" gradientTransform="translate(63.6987 -61.6262) scale(125.591) rotate(90)">
<stop stop-color="#AEFFEF"/>
<stop offset="1" stop-color="#1ABC9C" stop-opacity="0"/>
</linearGradient>
<linearGradient id="paint14_linear" x2="1" gradientUnits="userSpaceOnUse" gradientTransform="translate(47.8995 -34.2753) scale(93.9232) rotate(90)">
<stop stop-color="#AEFFEF"/>
<stop offset="0.9961" stop-color="#1ABC9C" stop-opacity="0"/>
</linearGradient>
<linearGradient id="paint15_linear" x2="1" gradientUnits="userSpaceOnUse" gradientTransform="translate(46.1161 -33.0536) scale(90.5042) rotate(90)">
<stop stop-color="#AEFFEF"/>
<stop offset="0.9961" stop-color="#1ABC9C" stop-opacity="0"/>
</linearGradient>
<linearGradient id="paint16_linear" x2="1" gradientUnits="userSpaceOnUse" gradientTransform="translate(54.489 -52.5982) scale(107.12) rotate(90)">
<stop stop-color="#AEFFEF"/>
<stop offset="0.9961" stop-color="#1ABC9C" stop-opacity="0"/>
</linearGradient>
<linearGradient id="paint17_linear" x2="1" gradientUnits="userSpaceOnUse" gradientTransform="translate(35.7583 4.2293) scale(69.606) rotate(90)">
<stop stop-color="#AEFFEF"/>
<stop offset="0.9961" stop-color="#1ABC9C" stop-opacity="0"/>
</linearGradient>
<linearGradient id="paint18_linear" x2="1" gradientUnits="userSpaceOnUse" gradientTransform="translate(37.8167 4.5129) scale(73.8706) rotate(90)">
<stop stop-color="#AEFFEF"/>
<stop offset="0.9961" stop-color="#1ABC9C" stop-opacity="0"/>
</linearGradient>
<linearGradient id="paint19_linear" x2="1" gradientUnits="userSpaceOnUse" gradientTransform="translate(37.2496 -4.8915) scale(72.6842) rotate(90)">
<stop stop-color="#AEFFEF"/>
<stop offset="0.9961" stop-color="#1ABC9C" stop-opacity="0"/>
</linearGradient>
<linearGradient id="paint20_linear" x2="1" gradientUnits="userSpaceOnUse" gradientTransform="translate(-26.8389 0.7771) scale(55.4534 -55.4534) rotate(-90)">
<stop stop-color="#AEFFEF"/>
<stop offset="0.9961" stop-color="#1ABC9C" stop-opacity="0"/>
</linearGradient>
<linearGradient id="paint21_linear" x2="1" gradientUnits="userSpaceOnUse" gradientTransform="translate(-46.1312 1.3232) scale(94.0947 -94.0947) rotate(-90)">
<stop stop-color="#AEFFEF"/>
<stop offset="0.9961" stop-color="#1ABC9C" stop-opacity="0"/>
</linearGradient>
<linearGradient id="paint22_linear" x2="1" gradientUnits="userSpaceOnUse" gradientTransform="translate(-29.5762 -9.4188) scale(60.9757 -60.9757) rotate(-90)">
<stop stop-color="#AEFFEF"/>
<stop offset="0.9961" stop-color="#1ABC9C" stop-opacity="0"/>
</linearGradient>
<linearGradient id="paint23_linear" x2="1" gradientUnits="userSpaceOnUse" gradientTransform="translate(-30.9081 0.8783) scale(63.6136 -63.6136) rotate(-90)">
<stop stop-color="#AEFFEF"/>
<stop offset="0.9961" stop-color="#1ABC9C" stop-opacity="0"/>
</linearGradient>
<linearGradient id="paint24_linear" x2="1" gradientUnits="userSpaceOnUse" gradientTransform="translate(-33.1006 -10.4186) scale(67.9466 -67.9466) rotate(-90)">
<stop stop-color="#AEFFEF"/>
<stop offset="0.9961" stop-color="#1ABC9C" stop-opacity="0"/>
</linearGradient>
<linearGradient id="paint25_linear" x2="1" gradientUnits="userSpaceOnUse" gradientTransform="translate(-33.0583 -10.4186) scale(67.9466 -67.9466) rotate(-90)">
<stop stop-color="#AEFFEF"/>
<stop offset="0.9961" stop-color="#1ABC9C" stop-opacity="0"/>
</linearGradient>
<linearGradient id="paint26_linear" x2="1" gradientUnits="userSpaceOnUse" gradientTransform="translate(-30.8473 -9.756) scale(63.3877 -63.3877) rotate(-90)">
<stop stop-color="#AEFFEF"/>
<stop offset="0.9961" stop-color="#1ABC9C" stop-opacity="0"/>
</linearGradient>
<linearGradient id="paint27_linear" x2="1" gradientUnits="userSpaceOnUse" gradientTransform="translate(-34.9759 -26.108) scale(71.5928 -71.5928) rotate(-90)">
<stop stop-color="#AEFFEF"/>
<stop offset="0.9961" stop-color="#1ABC9C" stop-opacity="0"/>
</linearGradient>
<linearGradient id="paint28_linear" x2="1" gradientUnits="userSpaceOnUse" gradientTransform="translate(-35.0259 -26.108) scale(71.5928 -71.5928) rotate(-90)">
<stop stop-color="#AEFFEF"/>
<stop offset="0.9961" stop-color="#1ABC9C" stop-opacity="0"/>
</linearGradient>
<linearGradient id="paint29_linear" x2="1" gradientUnits="userSpaceOnUse" gradientTransform="translate(-32.5516 -16.4701) scale(66.9699 -66.9699) rotate(-90)">
<stop stop-color="#AEFFEF"/>
<stop offset="0.9961" stop-color="#1ABC9C" stop-opacity="0"/>
</linearGradient>
<linearGradient id="paint30_linear" x2="1" gradientUnits="userSpaceOnUse" gradientTransform="translate(-42.3813 -21.2347) scale(86.5775 -86.5775) rotate(-90)">
<stop stop-color="#AEFFEF"/>
<stop offset="0.9961" stop-color="#1ABC9C" stop-opacity="0"/>
</linearGradient>
<linearGradient id="paint31_linear" x2="1" gradientUnits="userSpaceOnUse" gradientTransform="translate(-44.3709 -33.0536) scale(90.5042 -90.5042) rotate(-90)">
<stop stop-color="#AEFFEF"/>
<stop offset="0.9961" stop-color="#1ABC9C" stop-opacity="0"/>
</linearGradient>
<linearGradient id="paint32_linear" x2="1" gradientUnits="userSpaceOnUse" gradientTransform="translate(-35.0864 -35.3362) scale(72.0312 -72.0312) rotate(-90)">
<stop stop-color="#AEFFEF"/>
<stop offset="0.9961" stop-color="#1ABC9C" stop-opacity="0"/>
</linearGradient>
<linearGradient id="paint33_linear" x2="1" gradientUnits="userSpaceOnUse" gradientTransform="translate(-10.454 -8.2839) scale(22.6447 -22.6447) rotate(-90)">
<stop stop-color="#AEFFEF"/>
<stop offset="0.9961" stop-color="#1ABC9C" stop-opacity="0"/>
</linearGradient>
<linearGradient id="paint34_linear" x2="1" gradientUnits="userSpaceOnUse" gradientTransform="translate(-33.926 4.2293) scale(69.606 -69.606) rotate(-90)">
<stop stop-color="#AEFFEF"/>
<stop offset="0.9961" stop-color="#1ABC9C" stop-opacity="0"/>
</linearGradient>
<linearGradient id="paint35_linear" x2="1" gradientUnits="userSpaceOnUse" gradientTransform="translate(-35.9844 4.5129) scale(73.8706 -73.8706) rotate(-90)">
<stop stop-color="#AEFFEF"/>
<stop offset="0.9961" stop-color="#1ABC9C" stop-opacity="0"/>
</linearGradient>
<linearGradient id="paint36_linear" x2="1" gradientUnits="userSpaceOnUse" gradientTransform="translate(-35.4173 -4.8915) scale(72.6842 -72.6842) rotate(-90)">
<stop stop-color="#AEFFEF"/>
<stop offset="0.9961" stop-color="#1ABC9C" stop-opacity="0"/>
</linearGradient>
<linearGradient id="paint37_linear" x2="1" gradientUnits="userSpaceOnUse" gradientTransform="translate(-35.3923 -4.8915) scale(72.6842 -72.6842) rotate(-90)">
<stop stop-color="#AEFFEF"/>
<stop offset="0.9961" stop-color="#1ABC9C" stop-opacity="0"/>
</linearGradient>
<linearGradient id="paint38_linear" x2="1" gradientUnits="userSpaceOnUse" gradientTransform="translate(-0.0601 -32.9111) scale(115.047)">
<stop stop-color="#C0F9EB"/>
<stop offset="1" stop-color="#009377"/>
</linearGradient>
</defs>
</svg>
