<svg width="147" height="147" viewBox="0 0 147 147" fill="none" xmlns="http://www.w3.org/2000/svg">
<ellipse cx="73.0921" cy="73.0597" rx="73.0921" ry="73.0597" transform="translate(0.236816)" fill="url(#paint0_linear)" fill-opacity="0.15"/>
<path d="M22 27.4H0V0H14.6L22 7.4V27.4Z" transform="translate(85.5 78)" fill="#E7F7F4"/>
<path d="M7.4 7.4H-1.52588e-06V0L7.4 7.4Z" transform="translate(100.1 78)" fill="#C1EAE2"/>
<path d="M-3.05176e-06 3.05176e-06H10.6" transform="translate(91.2 91.3)" stroke="#C1EAE2" stroke-width="1.1435" stroke-miterlimit="10" stroke-linecap="round"/>
<path d="M-3.05176e-06 3.05176e-06H10.6" transform="translate(91.2 88.8)" stroke="#C1EAE2" stroke-width="1.1435" stroke-miterlimit="10" stroke-linecap="round"/>
<path d="M-3.05176e-06 3.05176e-06H10.6" transform="translate(91.2 93.8)" stroke="#C1EAE2" stroke-width="1.1435" stroke-miterlimit="10" stroke-linecap="round"/>
<path d="M-3.05176e-06 -3.05176e-06H10.6" transform="translate(91.2 96.2)" stroke="#C1EAE2" stroke-width="1.1435" stroke-miterlimit="10" stroke-linecap="round"/>
<path d="M7 14C10.866 14 14 10.866 14 7C14 3.13401 10.866 0 7 0C3.13401 0 0 3.13401 0 7C0 10.866 3.13401 14 7 14Z" transform="translate(85.9 48.9)" fill="#CCF2EA"/>
<path opacity="0.45" d="M6.2 12.4C9.62417 12.4 12.4 9.62417 12.4 6.2C12.4 2.77584 9.62417 0 6.2 0C2.77584 0 0 2.77584 0 6.2C0 9.62417 2.77584 12.4 6.2 12.4Z" transform="translate(86.6 49.7)" fill="white"/>
<path d="M5 10C7.76143 10 10 7.76143 10 5C10 2.23858 7.76143 0 5 0C2.23858 0 3.05176e-06 2.23858 3.05176e-06 5C3.05176e-06 7.76143 2.23858 10 5 10Z" transform="translate(87.8 50.9)" fill="white"/>
<path d="M7 14C10.866 14 14 10.866 14 7C14 3.13401 10.866 0 7 0C3.13401 0 0 3.13401 0 7C0 10.866 3.13401 14 7 14Z" transform="translate(32.4 79)" fill="#CCF2EA"/>
<path opacity="0.45" d="M6.2 12.4C9.62416 12.4 12.4 9.62417 12.4 6.2C12.4 2.77583 9.62416 3.05176e-06 6.2 3.05176e-06C2.77583 3.05176e-06 0 2.77583 0 6.2C0 9.62417 2.77583 12.4 6.2 12.4Z" transform="translate(33.1 79.8)" fill="white"/>
<path d="M5 10C7.76142 10 10 7.76142 10 5C10 2.23858 7.76142 0 5 0C2.23858 0 0 2.23858 0 5C0 7.76142 2.23858 10 5 10Z" transform="translate(34.3 81)" fill="white"/>
<path d="M7 14C10.866 14 14 10.866 14 7C14 3.13401 10.866 0 7 0C3.13401 0 0 3.13401 0 7C0 10.866 3.13401 14 7 14Z" transform="translate(57.5 28.5)" fill="#CCF2EA"/>
<path opacity="0.45" d="M6.2 12.4C9.62417 12.4 12.4 9.62417 12.4 6.2C12.4 2.77583 9.62417 0 6.2 0C2.77584 0 0 2.77583 0 6.2C0 9.62417 2.77584 12.4 6.2 12.4Z" transform="translate(58.2 29.3)" fill="white"/>
<path d="M5 10C7.76143 10 10 7.76142 10 5C10 2.23858 7.76143 0 5 0C2.23858 0 0 2.23858 0 5C0 7.76142 2.23858 10 5 10Z" transform="translate(59.4 30.5)" fill="white"/>
<path d="M2.3 4.6C3.57025 4.6 4.6 3.57026 4.6 2.3C4.6 1.02975 3.57025 0 2.3 0C1.02974 0 0 1.02975 0 2.3C0 3.57026 1.02974 4.6 2.3 4.6Z" transform="translate(62.2 49.4)" fill="#B1F2E6"/>
<path d="M2.3 4.6C3.57026 4.6 4.6 3.57025 4.6 2.3C4.6 1.02974 3.57026 0 2.3 0C1.02975 0 0 1.02974 0 2.3C0 3.57025 1.02975 4.6 2.3 4.6Z" transform="translate(73.4 16.3)" fill="#B1F2E6"/>
<path d="M2.3 4.6C3.57026 4.6 4.6 3.57025 4.6 2.3C4.6 1.02974 3.57026 0 2.3 0C1.02975 0 0 1.02974 0 2.3C0 3.57025 1.02975 4.6 2.3 4.6Z" transform="translate(80.1 42.5)" fill="#B1F2E6"/>
<path d="M2.3 4.6C3.57025 4.6 4.6 3.57026 4.6 2.3C4.6 1.02975 3.57025 0 2.3 0C1.02974 0 0 1.02975 0 2.3C0 3.57026 1.02974 4.6 2.3 4.6Z" transform="translate(27.9 72.6001)" fill="#B1F2E6"/>
<path d="M57.2 0H0V3.4H57.2V0Z" transform="translate(43.4 103.6)" fill="#1ABC9C"/>
<path d="M50.3 0H0V3.4H50.3V0Z" transform="translate(46.8 69.2)" fill="#16B294"/>
<path d="M62.9 3.05176e-06H0V3.4H62.9V3.05176e-06Z" transform="translate(40.5 107.3)" fill="#1ABC9C"/>
<path d="M62.9 13.5H0V10L31.5 7.62939e-07L62.9 10V13.5Z" transform="translate(40.5 55.7)" fill="#009377"/>
<path d="M68.6 0H0V3.4H68.6V0Z" transform="translate(37.7 111)" fill="#16B294"/>
<path d="M6.5 -1.52588e-06H1.1L0 31H7.7L6.5 -1.52588e-06Z" transform="translate(48 72.6001)" fill="url(#paint1_linear)"/>
<path d="M6.6 -1.52588e-06H1.1L-1.52588e-06 31H7.7L6.6 -1.52588e-06Z" transform="translate(61.6 72.6001)" fill="url(#paint2_linear)"/>
<path d="M6.5 -1.52588e-06H1.1L0 31H7.7L6.5 -1.52588e-06Z" transform="translate(75 72.6001)" fill="url(#paint3_linear)"/>
<path d="M6.6 -1.52588e-06H1.2L-1.52588e-06 31H7.7L6.6 -1.52588e-06Z" transform="translate(87.6 72.6001)" fill="url(#paint4_linear)"/>
<path d="M11.5 23C17.8513 23 23 17.8513 23 11.5C23 5.14872 17.8513 0 11.5 0C5.14873 0 0 5.14872 0 11.5C0 17.8513 5.14873 23 11.5 23Z" transform="translate(60.5 76.6001)" fill="#9EEFDF"/>
<path opacity="0.45" d="M9.8 19.6C15.2124 19.6 19.6 15.2124 19.6 9.8C19.6 4.38761 15.2124 0 9.8 0C4.38761 0 0 4.38761 0 9.8C0 15.2124 4.38761 19.6 9.8 19.6Z" transform="translate(62.2 78.3)" fill="white"/>
<path d="M9.1 18.2C14.1258 18.2 18.2 14.1258 18.2 9.1C18.2 4.07421 14.1258 0 9.1 0C4.07421 0 0 4.07421 0 9.1C0 14.1258 4.07421 18.2 9.1 18.2Z" transform="translate(62.9 79)" fill="white"/>
<path d="M2.17696 2.81371C2.87696 2.81371 3.47696 3.11371 3.87696 3.81371C4.17696 4.31371 4.77696 4.41371 5.17696 4.01371C5.47696 3.71371 5.57696 3.31371 5.37696 3.01371C5.17696 2.71371 5.07696 2.41371 5.07696 2.11371C5.07696 1.21371 5.57696 0.413712 6.47696 0.113712C7.57696 -0.286288 8.77696 0.413714 9.07696 1.51371C9.37696 2.51371 8.67696 3.61372 7.67696 3.91372C7.47696 3.91372 7.37696 4.01371 7.17696 4.01371C6.77696 4.01371 6.37696 4.31371 6.37696 4.81371C6.37696 5.21371 6.67696 5.61371 7.07696 5.71371C7.27696 5.71371 7.37696 5.71371 7.57696 5.71371C8.57696 5.91371 9.37696 6.81371 9.27696 7.81371C9.17696 8.71371 8.57696 9.41371 7.67696 9.61371C6.67696 9.81371 5.67696 9.31371 5.27696 8.31371C5.07696 7.61371 5.17696 7.11371 5.37696 6.61371C5.47696 6.41371 5.57696 6.21371 5.47696 6.01371C5.37696 5.71371 5.17696 5.41371 4.77696 5.31371C4.47696 5.21371 4.07696 5.41371 3.87696 5.71371C3.77696 5.91371 3.57696 6.11371 3.37696 6.31371C2.27696 7.31371 0.476965 6.71371 0.0769646 5.31371C-0.223035 4.21371 0.376962 3.11372 1.47696 2.91372C1.57696 2.91372 1.67696 2.91371 1.77696 2.81371C2.07696 2.81371 2.07696 2.81371 2.17696 2.81371Z" transform="translate(66.823 83.3865)" fill="#1ABC9C"/>
<path d="M2.17696 2.81371C2.87696 2.81371 3.47696 3.11371 3.87696 3.81371C4.17696 4.31371 4.77696 4.41371 5.17696 4.01371C5.47696 3.71371 5.57696 3.31371 5.37696 3.01371C5.17696 2.71371 5.07696 2.41371 5.07696 2.11371C5.07696 1.21371 5.57696 0.413712 6.47696 0.113712C7.57696 -0.286288 8.77696 0.413714 9.07696 1.51371C9.37696 2.51371 8.67696 3.61372 7.67696 3.91372C7.47696 3.91372 7.37696 4.01371 7.17696 4.01371C6.77696 4.01371 6.37696 4.31371 6.37696 4.81371C6.37696 5.21371 6.67696 5.61371 7.07696 5.71371C7.27696 5.71371 7.37696 5.71371 7.57696 5.71371C8.57696 5.91371 9.37696 6.81371 9.27696 7.81371C9.17696 8.71371 8.57696 9.41371 7.67696 9.61371C6.67696 9.81371 5.67696 9.31371 5.27696 8.31371C5.07696 7.81371 5.17696 7.21371 5.37696 6.71371C5.47696 6.51371 5.57696 6.31371 5.47696 6.11371C5.37696 5.81371 5.17696 5.51372 4.77696 5.41372C4.47696 5.31372 4.07696 5.51371 3.87696 5.81371C3.77696 6.01371 3.57696 6.21372 3.37696 6.41372C2.27696 7.41372 0.476962 6.81372 0.0769616 5.41372C-0.223038 4.31372 0.376963 3.21371 1.47696 3.01371C1.57696 3.01371 1.67696 3.01372 1.77696 2.91372C1.97696 2.81372 2.07696 2.81371 2.17696 2.81371Z" transform="translate(66.523 83.3865)" fill="#4DD6BC"/>
<defs>
<linearGradient id="paint0_linear" x2="1" gradientUnits="userSpaceOnUse" gradientTransform="translate(146.184) scale(146.184 146.119) rotate(90)">
<stop stop-color="#1BBC9D"/>
<stop offset="1" stop-color="#1BBC9D" stop-opacity="0"/>
</linearGradient>
<linearGradient id="paint1_linear" x2="1" gradientUnits="userSpaceOnUse" gradientTransform="translate(-11.6748 30.9535) scale(30.97) rotate(-90)">
<stop stop-color="#4DD6BC"/>
<stop offset="1" stop-color="#1ABC9C"/>
</linearGradient>
<linearGradient id="paint2_linear" x2="1" gradientUnits="userSpaceOnUse" gradientTransform="translate(-11.6242 30.9535) scale(30.97) rotate(-90)">
<stop stop-color="#4DD6BC"/>
<stop offset="1" stop-color="#1ABC9C"/>
</linearGradient>
<linearGradient id="paint3_linear" x2="1" gradientUnits="userSpaceOnUse" gradientTransform="translate(-11.6594 30.9535) scale(30.97) rotate(-90)">
<stop stop-color="#4DD6BC"/>
<stop offset="1" stop-color="#1ABC9C"/>
</linearGradient>
<linearGradient id="paint4_linear" x2="1" gradientUnits="userSpaceOnUse" gradientTransform="translate(-11.6094 30.9535) scale(30.97) rotate(-90)">
<stop stop-color="#4DD6BC"/>
<stop offset="1" stop-color="#1ABC9C"/>
</linearGradient>
</defs>
</svg>
