<svg width="110" height="110" viewBox="0 0 110 110" fill="none" xmlns="http://www.w3.org/2000/svg">
<circle cx="55" cy="55" r="55" fill="url(#paint0_linear)" fill-opacity="0.15"/>
<path d="M1.70392 3.36397C2.64497 3.36397 3.40784 2.61092 3.40784 1.68199C3.40784 0.753052 2.64497 0 1.70392 0C0.76287 0 0 0.753052 0 1.68199C0 2.61092 0.76287 3.36397 1.70392 3.36397Z" transform="translate(13.5211 84.4633)" fill="#8BEAD8"/>
<path d="M1.70391 3.36397C2.64496 3.36397 3.40783 2.61092 3.40783 1.68199C3.40783 0.753053 2.64496 0 1.70391 0C0.762866 0 4.52169e-06 0.753053 4.52169e-06 1.68199C4.52169e-06 2.61092 0.762866 3.36397 1.70391 3.36397Z" transform="translate(93.8275 82.1963)" fill="#8BEAD8"/>
<path d="M5.18584 10.2382C8.0499 10.2382 10.3717 7.94629 10.3717 5.11909C10.3717 2.2919 8.0499 0 5.18584 0C2.32178 0 0 2.2919 0 5.11909C0 7.94629 2.32178 10.2382 5.18584 10.2382Z" transform="translate(5.44601 47.3865)" fill="#CCF2EA"/>
<path opacity="0.45" d="M4.59317 9.0681C7.12991 9.0681 9.18634 7.03814 9.18634 4.53405C9.18634 2.02997 7.12991 -2.23175e-06 4.59317 -2.23175e-06C2.05643 -2.23175e-06 0 2.02997 0 4.53405C0 7.03814 2.05643 9.0681 4.59317 9.0681Z" transform="translate(5.96461 47.9715)" fill="white"/>
<path d="M3.70417 7.31299C5.74993 7.31299 7.40834 5.67592 7.40834 3.65649C7.40834 1.63707 5.74993 0 3.70417 0C1.65841 0 0 1.63707 0 3.65649C0 5.67592 1.65841 7.31299 3.70417 7.31299Z" transform="translate(6.85361 48.8491)" fill="white"/>
<path d="M5.18584 10.2382C8.0499 10.2382 10.3717 7.94628 10.3717 5.11909C10.3717 2.29189 8.0499 0 5.18584 0C2.32178 0 0 2.29189 0 5.11909C0 7.94628 2.32178 10.2382 5.18584 10.2382Z" transform="translate(13.0766 65.0839)" fill="#CCF2EA"/>
<path opacity="0.45" d="M4.59317 9.06811C7.12991 9.06811 9.18634 7.03814 9.18634 4.53405C9.18634 2.02996 7.12991 0 4.59317 0C2.05643 0 0 2.02996 0 4.53405C0 7.03814 2.05643 9.06811 4.59317 9.06811Z" transform="translate(13.6693 65.669)" fill="white"/>
<path d="M3.70417 7.31298C5.74993 7.31298 7.40834 5.67592 7.40834 3.65649C7.40834 1.63707 5.74993 0 3.70417 0C1.65841 0 0 1.63707 0 3.65649C0 5.67592 1.65841 7.31298 3.70417 7.31298Z" transform="translate(14.5583 66.5465)" fill="white"/>
<path d="M5.18584 10.2382C8.0499 10.2382 10.3717 7.94629 10.3717 5.11909C10.3717 2.2919 8.0499 0 5.18584 0C2.32178 0 -2.26085e-06 2.2919 -2.26085e-06 5.11909C-2.26085e-06 7.94629 2.32178 10.2382 5.18584 10.2382Z" transform="translate(85.382 34.2231)" fill="#CCF2EA"/>
<path opacity="0.45" d="M4.59317 9.0681C7.12991 9.0681 9.18634 7.03814 9.18634 4.53405C9.18634 2.02997 7.12991 0 4.59317 0C2.05643 0 0 2.02997 0 4.53405C0 7.03814 2.05643 9.0681 4.59317 9.0681Z" transform="translate(85.9747 34.8081)" fill="white"/>
<path d="M3.70417 7.31299C5.74992 7.31299 7.40834 5.67592 7.40834 3.65649C7.40834 1.63707 5.74992 0 3.70417 0C1.65841 0 -2.26085e-06 1.63707 -2.26085e-06 3.65649C-2.26085e-06 5.67592 1.65841 7.31299 3.70417 7.31299Z" transform="translate(86.8637 35.6856)" fill="white"/>
<defs>
<linearGradient id="paint0_linear" x2="1" gradientUnits="userSpaceOnUse" gradientTransform="translate(110) scale(110) rotate(90)">
<stop stop-color="#1BBC9D"/>
<stop offset="1" stop-color="#1BBC9D" stop-opacity="0"/>
</linearGradient>
</defs>
</svg>
