<svg width="42" height="36" viewBox="0 0 42 36" fill="none" xmlns="http://www.w3.org/2000/svg">
<path d="M31.3 33.6L0.899999 20.1L1.52588e-06 18.7L9.8 -1.52588e-06L40.1 12.4L40.2 13.5L31.3 33.6Z" transform="translate(0.899994 2.1001)" fill="#009377"/>
<path d="M34.2 0H0V22H34.2V0Z" transform="translate(9.72696 0.60498) rotate(23.8659)" fill="#3ACCB0"/>
<path d="M31.2 17L1.52588e-06 3.2L20.1 -1.52588e-06L31.2 17Z" transform="translate(0.899994 17.6001)" fill="#1ABC9C"/>
<path d="M-7.62939e-07 -3.05176e-06L31.2 13.8L11 19.1L-7.62939e-07 -3.05176e-06Z" transform="translate(9.80002 0.700195)" fill="#009377"/>
<path d="M-7.62939e-07 -3.05176e-06L31.2 13.8L11.2 16.9L-7.62939e-07 -3.05176e-06Z" transform="translate(9.80002 0.700195)" fill="#1ABC9C"/>
</svg>
