<svg width="13" height="20" viewBox="0 0 13 20" fill="none" xmlns="http://www.w3.org/2000/svg">
<path d="M8.8 2.8H0.400003C0.200003 2.8 1.52588e-06 2.6 1.52588e-06 2.4V-3.05176e-06H9.2V2.4C9.2 2.6 9 2.8 8.8 2.8Z" transform="translate(1.89999 17.2002)" fill="#007A63"/>
<path d="M8.8 2.8H0.399997C0.199997 2.8 3.05176e-06 2.6 3.05176e-06 2.4V-3.05176e-06H9.2V2.4C9.2 2.6 9 2.8 8.8 2.8Z" transform="translate(1.8 17.2002)" fill="#0D9E82"/>
<path d="M11.6 10.6H0.599997C0.299997 10.6 -1.52588e-06 10.3 -1.52588e-06 10V0.600003C-1.52588e-06 0.300003 0.299997 -3.05176e-06 0.599997 -3.05176e-06H11.6C11.9 -3.05176e-06 12.2 0.300003 12.2 0.600003V10C12.1 10.4 11.9 10.6 11.6 10.6Z" transform="translate(0.599991 8.2002)" fill="#005444"/>
<path d="M7.8 7.3V3.9C7.8 1.8 6 -1.52588e-06 3.9 -1.52588e-06C1.8 -1.52588e-06 0 1.8 0 3.9V7.3" transform="translate(2.49999 1.1001)" stroke="#007A63" stroke-width="1.1671" stroke-miterlimit="10"/>
<path d="M7.8 7.3V3.9C7.8 1.8 6 -1.52588e-06 3.9 -1.52588e-06C1.8 -1.52588e-06 3.05176e-06 1.8 3.05176e-06 3.9V7.3" transform="translate(2.8 1.1001)" stroke="#005444" stroke-miterlimit="10"/>
<path d="M7.8 7.3V3.9C7.8 1.8 6 -1.52588e-06 3.9 -1.52588e-06C1.8 -1.52588e-06 0 1.8 0 3.9V7.3" transform="translate(2.49999 1.1001)" stroke="#0D9E82" stroke-width="1.1671" stroke-miterlimit="10"/>
<path d="M11.6 10.6H0.600002C0.300002 10.6 3.05176e-06 10.3 3.05176e-06 10V0.600003C3.05176e-06 0.300003 0.300002 -3.05176e-06 0.600002 -3.05176e-06H11.6C11.9 -3.05176e-06 12.2 0.300003 12.2 0.600003V10C12.1 10.4 11.9 10.6 11.6 10.6Z" transform="translate(0.299995 8.2002)" fill="#007A63"/>
<path d="M1.3 2.6C2.01797 2.6 2.6 2.01797 2.6 1.3C2.6 0.582027 2.01797 0 1.3 0C0.582031 0 0 0.582027 0 1.3C0 2.01797 0.582031 2.6 1.3 2.6Z" transform="translate(5.09999 11.4001)" fill="#003329"/>
<path d="M0.599997 0H0V2.3H0.599997V0Z" transform="translate(6.09999 13.1001)" fill="#003329"/>
<path d="M1.3 2.6C2.01797 2.6 2.6 2.01797 2.6 1.3C2.6 0.582027 2.01797 0 1.3 0C0.582033 0 0 0.582027 0 1.3C0 2.01797 0.582033 2.6 1.3 2.6Z" transform="translate(4.99999 11.4001)" fill="#005444"/>
<path d="M0.599998 0H0V2.3H0.599998V0Z" transform="translate(5.99999 13.1001)" fill="#005444"/>
</svg>
