<svg width="24" height="24" viewBox="0 0 24 24" fill="none" xmlns="http://www.w3.org/2000/svg">
<path d="M11.5498 23.1691C17.9286 23.1691 23.0996 17.9825 23.0996 11.5846C23.0996 5.18658 17.9286 0 11.5498 0C5.17101 0 0 5.18658 0 11.5846C0 17.9825 5.17101 23.1691 11.5498 23.1691Z" transform="translate(0.294403 0.600555)" fill="#9FE2CD"/>
<path opacity="0.45" d="M9.87705 19.8136C15.332 19.8136 19.7541 15.3782 19.7541 9.90679C19.7541 4.43542 15.332 -2.43816e-06 9.87705 -2.43816e-06C4.42211 -2.43816e-06 0 4.43542 0 9.90679C0 15.3782 4.42211 19.8136 9.87705 19.8136Z" transform="translate(1.9671 2.27832)" fill="white"/>
<path d="M9.16017 18.3755C14.2192 18.3755 18.3203 14.262 18.3203 9.18775C18.3203 4.11349 14.2192 0 9.16017 0C4.10115 0 0 4.11349 0 9.18775C0 14.262 4.10115 18.3755 9.16017 18.3755Z" transform="translate(2.68402 2.99738)" fill="white"/>
<path d="M1.9937 2.91516C2.71059 2.91516 3.26816 3.23474 3.74609 3.87388C4.0647 4.35324 4.62228 4.43313 5.1002 4.11356C5.41881 3.87388 5.49847 3.39452 5.25951 3.07495C5.1002 2.75538 5.02054 2.51569 4.94089 2.11622C4.94089 1.1575 5.49847 0.438461 6.37466 0.118887C7.48981 -0.28058 8.68461 0.35857 9.00323 1.55697C9.32184 2.59559 8.60496 3.7141 7.56946 3.95378C7.41015 4.03367 7.25085 4.03367 7.01188 4.03367C6.53396 4.03367 6.21535 4.35324 6.21535 4.8326C6.21535 5.31196 6.45431 5.63154 6.93223 5.71143C7.09154 5.71143 7.25085 5.71144 7.48981 5.79133C8.52531 5.95112 9.24219 6.90984 9.16253 7.94845C9.08288 8.82728 8.44565 9.54632 7.56946 9.7061C6.53396 9.94578 5.49847 9.38653 5.17985 8.34792C5.02054 7.78866 5.02054 7.3093 5.33916 6.75005C5.41881 6.59026 5.49847 6.35058 5.41881 6.1908C5.33916 5.87122 5.1002 5.55165 4.78158 5.47175C4.46297 5.39186 4.0647 5.55165 3.90539 5.87122C3.74609 6.1109 3.66643 6.27069 3.42747 6.43047C2.31232 7.38919 0.480287 6.90984 0.0820185 5.47175C-0.236596 4.43314 0.400633 3.23474 1.51578 2.99506C1.59544 2.99506 1.67509 2.91516 1.8344 2.91516C1.75474 2.91516 1.8344 2.91516 1.9937 2.91516Z" transform="translate(6.90329 7.35248)" fill="#42D3B7"/>
<path d="M1.9937 2.91516C2.71059 2.91516 3.26816 3.23474 3.74609 3.87388C4.0647 4.35324 4.62228 4.43313 5.1002 4.11356C5.41881 3.87388 5.49847 3.39452 5.25951 3.07495C5.1002 2.75538 5.02054 2.51569 4.94089 2.11622C4.94089 1.1575 5.49847 0.438461 6.37466 0.118887C7.48981 -0.28058 8.68461 0.35857 9.00323 1.55697C9.32184 2.59559 8.60496 3.7141 7.56946 3.95378C7.41015 4.03367 7.25085 4.03367 7.01188 4.03367C6.53396 4.03367 6.21535 4.35324 6.21535 4.8326C6.21535 5.31196 6.45431 5.63154 6.93223 5.71143C7.09154 5.71143 7.25085 5.71144 7.48981 5.79133C8.52531 5.95112 9.24219 6.90984 9.16253 7.94845C9.08288 8.82728 8.44565 9.54632 7.56946 9.7061C6.53396 9.94578 5.49847 9.38653 5.17985 8.34792C5.02054 7.78866 5.02054 7.3093 5.33916 6.75005C5.41881 6.59026 5.49847 6.35058 5.41881 6.1908C5.33916 5.87122 5.1002 5.55165 4.78158 5.47175C4.46297 5.39186 4.0647 5.55165 3.90539 5.87122C3.74609 6.1109 3.66643 6.27069 3.42747 6.43047C2.31232 7.38919 0.480287 6.90984 0.0820185 5.47175C-0.236596 4.43314 0.400633 3.23474 1.51578 2.99506C1.59544 2.99506 1.67509 2.91516 1.8344 2.91516C1.8344 2.91516 1.91405 2.91516 1.9937 2.91516Z" transform="translate(6.505 7.35248)" fill="#76E5CF"/>
</svg>
