<svg width="14" height="15" viewBox="0 0 14 15" fill="none" xmlns="http://www.w3.org/2000/svg">
<path d="M7 -0.03125C8.22135 -0.03125 9.35156 0.278646 10.3906 0.898438C11.4297 1.5 12.25 2.32031 12.8516 3.35938C13.4714 4.39844 13.7812 5.52865 13.7812 6.75C13.7812 7.97135 13.4714 9.10156 12.8516 10.1406C12.25 11.1797 11.4297 12 10.3906 12.6016C9.35156 13.2214 8.22135 13.5312 7 13.5312C5.77865 13.5312 4.64844 13.2214 3.60938 12.6016C2.57031 12 1.74089 11.1797 1.12109 10.1406C0.519531 9.10156 0.21875 7.97135 0.21875 6.75C0.21875 5.52865 0.519531 4.39844 1.12109 3.35938C1.74089 2.32031 2.57031 1.5 3.60938 0.898438C4.64844 0.278646 5.77865 -0.03125 7 -0.03125ZM3.82812 7.95312H7V9.89453C7 10.0404 7.0638 10.1406 7.19141 10.1953C7.33724 10.25 7.46484 10.2227 7.57422 10.1133L10.6914 6.96875C10.7461 6.91406 10.7734 6.84115 10.7734 6.75C10.7734 6.65885 10.7461 6.58594 10.6914 6.53125L7.57422 3.38672C7.46484 3.27734 7.33724 3.25 7.19141 3.30469C7.0638 3.35938 7 3.45964 7 3.60547V5.54688H3.82812C3.73698 5.54688 3.65495 5.58333 3.58203 5.65625C3.52734 5.71094 3.5 5.78385 3.5 5.875V7.625C3.5 7.71615 3.52734 7.79818 3.58203 7.87109C3.65495 7.92578 3.73698 7.95312 3.82812 7.95312Z" transform="translate(0 1)" fill="white"/>
</svg>
