<svg width="99" height="118" viewBox="0 0 99 118" fill="none" xmlns="http://www.w3.org/2000/svg">
<path d="M20.4 40.8C31.6666 40.8 40.8 31.6666 40.8 20.4C40.8 9.13339 31.6666 0 20.4 0C9.13339 0 0 9.13339 0 20.4C0 31.6666 9.13339 40.8 20.4 40.8Z" transform="translate(0.900024 17.6001)" fill="#76D6BD"/>
<path opacity="0.45" d="M17.7 35.4C27.4754 35.4 35.4 27.4754 35.4 17.7C35.4 7.92456 27.4754 0 17.7 0C7.92456 0 0 7.92456 0 17.7C0 27.4754 7.92456 35.4 17.7 35.4Z" transform="translate(3.59998 20.3002)" fill="white"/>
<path d="M16.5 33C25.6127 33 33 25.6127 33 16.5C33 7.3873 25.6127 0 16.5 0C7.3873 0 0 7.3873 0 16.5C0 25.6127 7.3873 33 16.5 33Z" transform="translate(4.80005 21.5001)" fill="white"/>
<path d="M13.4 12.8C13.5 13.5 13.2 14.3 12.5 15.1C11.7 16 10.8 16.5 9.8 16.4C8.9 16.4 7.8 15.9 6.5 15.2L5.2 17.1L3.8 16.2L5.1 14.3L4 13.6L2.7 15.5L1.4 14.4L2.7 12.5L-1.52588e-06 10.6L1.4 9.2L1.7 9.4C2.1 9.7 2.4 9.9 2.6 10C2.8 10.1 3 10 3.2 9.8L7.4 3.7C7.5 3.4 7.5 3.1 7.3 2.8C7.2 2.6 6.8 2.4 6.3 2L6.1 1.8L7.1 0.3L7.9 0.899998C8.9 1.6 9.5 2 9.8 2.2L11.3 7.62939e-07L12.7 0.899998L11.2 3.1L12.3 3.8L13.8 1.6L15.2 2.5L13.7 4.7C14.6 5.4 15.2 6.2 15.5 6.8C15.9 7.6 15.8 8.4 15.4 9.2C14.8 10.4 13.9 10.9 12.7 10.7C13.1 11.5 13.4 12.2 13.4 12.8ZM8.2 7.5L8.4 7.7C9.2 8.3 9.8 8.6 10.3 8.8C11.2 9.1 11.8 9 12.3 8.4C12.7 7.8 12.6 7.1 12.1 6.4C11.8 6 11.2 5.5 10.4 5C10.3 4.9 10.2 4.9 10.1 4.9L8.2 7.5ZM5.5 12C6.4 12.7 7.2 13.1 7.8 13.3C8.8 13.7 9.6 13.5 10 12.9C10.5 12.2 10.3 11.5 9.6 10.7C9.2 10.2 8.5 9.7 7.6 9.1L7.3 8.9L5.3 11.9L5.5 12Z" transform="translate(12.6 29.7001)" fill="#1ABC9C"/>
<path d="M13.4 12.7C13.5 13.4 13.2 14.2 12.5 15C11.7 15.9 10.8 16.4 9.8 16.3C8.9 16.3 7.8 15.8 6.5 15.1L5.2 17L3.8 16.1L5.1 14.2L4.1 13.4L2.8 15.3L1.4 14.4L2.7 12.5L-7.62939e-07 10.6L1.4 9.2L1.7 9.4C2.1 9.7 2.4 9.9 2.6 10C2.8 10.1 3 10 3.2 9.8L7.4 3.7C7.5 3.4 7.5 3.1 7.3 2.8C7.2 2.6 6.8 2.4 6.3 2L6.1 1.8L7.1 0.300002L7.9 0.9C8.9 1.6 9.5 2 9.8 2.2L11.3 -1.52588e-06L12.7 0.9L11.2 3.1L12.3 3.8L13.8 1.6L15.2 2.5L13.7 4.7C14.6 5.4 15.2 6.2 15.5 6.8C15.9 7.6 15.8 8.4 15.4 9.2C14.8 10.4 13.9 10.9 12.7 10.7C13.1 11.4 13.4 12.1 13.4 12.7ZM8.3 7.4L8.5 7.6C9.3 8.2 9.9 8.5 10.4 8.7C11.3 9 11.9 8.9 12.4 8.3C12.8 7.7 12.7 7 12.2 6.3C11.9 5.9 11.3 5.4 10.5 4.9C10.4 4.8 10.3 4.8 10.2 4.8L8.3 7.4ZM5.5 12C6.4 12.7 7.2 13.1 7.8 13.3C8.8 13.7 9.6 13.5 10 12.9C10.5 12.2 10.3 11.5 9.6 10.7C9.2 10.2 8.5 9.7 7.6 9.1L7.3 8.9L5.3 11.9L5.5 12Z" transform="translate(12.3 29.6001)" fill="#4DD6BC"/>
<path d="M44.1 55H1.52588e-06V-7.62939e-07H29.4L44.1 14.8V55Z" transform="translate(29.4 38.8)" fill="#F8FFFE"/>
<path d="M14.7 14.8H3.05176e-06V-7.62939e-07L14.7 14.8Z" transform="translate(58.8 38.8)" fill="#C1EAE2"/>
<path d="M22.3 2.2H1.1C0.500002 2.2 3.05176e-06 1.7 3.05176e-06 1.1C3.05176e-06 0.500002 0.500002 3.05176e-06 1.1 3.05176e-06H22.3C22.9 3.05176e-06 23.4 0.500002 23.4 1.1C23.4 1.7 22.9 2.2 22.3 2.2Z" transform="translate(39.8 64.3)" fill="#C1EAE2"/>
<path d="M22.3 2.2H1.1C0.500002 2.2 3.05176e-06 1.7 3.05176e-06 1.1C3.05176e-06 0.500002 0.500002 3.05176e-06 1.1 3.05176e-06H22.3C22.9 3.05176e-06 23.4 0.500002 23.4 1.1C23.4 1.7 22.9 2.2 22.3 2.2Z" transform="translate(39.8 59.3)" fill="#C1EAE2"/>
<path d="M22.3 2.2H1.1C0.500002 2.2 3.05176e-06 1.7 3.05176e-06 1.1C3.05176e-06 0.500002 0.500002 3.05176e-06 1.1 3.05176e-06H22.3C22.9 3.05176e-06 23.4 0.500002 23.4 1.1C23.4 1.7 22.9 2.2 22.3 2.2Z" transform="translate(39.8 69.3)" fill="#C1EAE2"/>
<path d="M22.3 2.2H1.1C0.500002 2.2 3.05176e-06 1.7 3.05176e-06 1.1C3.05176e-06 0.500002 0.500002 3.05176e-06 1.1 3.05176e-06H22.3C22.9 3.05176e-06 23.4 0.500002 23.4 1.1C23.4 1.7 22.9 2.2 22.3 2.2Z" transform="translate(39.8 74.3)" fill="#C1EAE2"/>
<path d="M2.3 4.6C3.57026 4.6 4.6 3.57026 4.6 2.3C4.6 1.02975 3.57026 0 2.3 0C1.02975 0 0 1.02975 0 2.3C0 3.57026 1.02975 4.6 2.3 4.6Z" transform="translate(65.1 17.8)" fill="#8BEAD8"/>
<path d="M2.3 4.6C3.57026 4.6 4.6 3.57026 4.6 2.3C4.6 1.02975 3.57026 0 2.3 0C1.02975 0 0 1.02975 0 2.3C0 3.57026 1.02975 4.6 2.3 4.6Z" transform="translate(35.6 91.5)" fill="#8BEAD8"/>
<path d="M2.3 4.6C3.57025 4.6 4.6 3.57026 4.6 2.3C4.6 1.02975 3.57025 0 2.3 0C1.02974 0 3.05176e-06 1.02975 3.05176e-06 2.3C3.05176e-06 3.57026 1.02974 4.6 2.3 4.6Z" transform="translate(59.8 9.40002)" fill="#8BEAD8"/>
<path d="M2.3 4.6C3.57025 4.6 4.6 3.57026 4.6 2.3C4.6 1.02975 3.57025 0 2.3 0C1.02974 0 0 1.02975 0 2.3C0 3.57026 1.02974 4.6 2.3 4.6Z" transform="translate(66.4 0.300049)" fill="#8BEAD8"/>
<path d="M13.4 19.2C13 18.8 12.8 18.4 12.9 18C13 17.9 13.2 17.8 13.4 17.7C15.6 17.8 17.4 18.1 18 18.2C18 17.9 18.3 15.8 18.4 13.3C18.3 13.1 18.2 13 18.1 12.9C17.8 12.8 17.3 13 16.9 13.4C16.5 13.6 16 13.9 15.5 13.9C14.2 13.9 13.2 12.8 13.2 11.6C13.2 10.3 14.2 9.3 15.5 9.3C16.1 9.3 16.6 9.5 17 9.8C17.4 10.1 17.8 10.3 18.1 10.2C18.2 10.1 18.6 10 18.6 9.8C18.5 7.2 18.1 5.2 18 4.9C17.5 5 15.8 5.1 13.7 5.2C13.4 5.1 13 5 12.9 4.8C12.8 4.5 13.1 4.2 13.4 3.8C13.7 3.4 13.8 3 13.8 2.3C13.8 0.999999 12.8 3.05176e-06 11.5 3.05176e-06C10.2 3.05176e-06 9.2 0.999999 9.2 2.3C9.2 2.8 9.3 3.3 9.7 3.7C9.9 4.1 10.3 4.5 10.2 4.8C10.1 5 9.7 5.1 9.4 5.2C7 5.1 5.2 4.9 4.9 4.8C4.9 4.9 5.2 6.9 5.2 9.7C5.1 9.9 5 10 4.9 10.1C4.6 10.2 4.2 10 3.8 9.7C3.4 9.4 2.9 9.2 2.3 9.2C0.999997 9.2 1.52588e-06 10.2 1.52588e-06 11.5C1.52588e-06 12.8 0.999997 13.8 2.3 13.8C2.8 13.8 3.3 13.5 3.7 13.3C4.1 12.9 4.5 12.6 4.9 12.8C5 12.9 5.1 13 5.2 13.2C5.1 15.8 4.9 17.8 4.8 18C4.8 18 6.9 17.7 9.6 17.6C9.8 17.7 10 17.8 10.1 17.9C10.2 18.2 10 18.6 9.7 19C9.4 19.4 9.2 19.9 9.2 20.5C9.2 21.8 10.2 22.8 11.5 22.8C12.8 22.8 13.8 21.8 13.8 20.5C13.9 20.1 13.8 19.6 13.4 19.2Z" transform="translate(62.4 80.3)" fill="#8BEAD8"/>
<path d="M20.6 9.2C20.1 9.2 19.6 9.3 19.2 9.7C18.8 9.9 18.4 10.3 18.1 10.2C18 10.2 17.9 10.1 17.9 10C18 7.3 18.3 5.2 18.4 4.9C18.2 4.9 16.4 5.1 13.9 5.2C13.6 5.1 13.2 5.2 13.1 5C13 4.7 13.2 4.2 13.5 3.8C13.8 3.4 14.1 2.8 14.1 2.3C14.1 0.999999 12.9 3.05176e-06 11.6 3.05176e-06C10.3 3.05176e-06 9.3 1.1 9.3 2.4C9.3 2.9 9.4 3.4 9.8 3.8C10.2 4.2 10.4 4.6 10.3 4.9C10.2 5.1 9.9 5.2 9.5 5.3C7.1 5.2 5.3 5 5 4.9C5 5 5.3 7 5.4 9.8C5.3 10 5.2 10.1 5 10.1C4.7 10.2 4.3 9.8 3.8 9.5C3.5 9.3 3 9.1 2.5 9.1C1.2 9.1 0 10.1 0 11.6C0 12.9 1.2 13.8 2.5 13.8C3 13.8 3.5 13.7 3.9 13.3C4.3 12.9 4.7 12.7 5.1 12.8C5.2 12.9 5.3 13 5.4 13.1C5.3 15.7 5.1 17.8 5 18C5 18 18.1 18 18.3 18C18.3 17.8 18 15.7 17.9 12.9C18 12.8 18 12.7 18.1 12.7C18.4 12.6 18.8 12.8 19.2 13.1C19.6 13.4 20.1 13.6 20.7 13.6C22 13.6 23 12.6 23 11.3C22.8 10.3 21.8 9.2 20.6 9.2Z" transform="translate(75.5 80.3)" fill="#3ACCB0"/>
<path d="M13.7 12.5C13.4 12.4 13 12.6 12.6 12.9C12.2 13.2 11.7 13.4 11.1 13.4C9.8 13.4 8.8 12.4 8.8 11.1C8.8 9.8 9.8 8.8 11.1 8.8C11.6 8.8 12.1 8.9 12.5 9.3C12.9 9.7 13.3 9.9 13.6 9.8C13.8 9.7 13.9 9.4 14 9.1C13.9 6.6 13.7 4.7 13.7 4.7C13.7 4.7 11.4 5 8.4 5.1C8.3 5 8.2 5 8.2 4.9C8.1 4.6 8.3 4.2 8.6 3.8C8.9 3.4 9.1 2.9 9.1 2.3C9.1 1 8.1 -3.05176e-06 6.8 -3.05176e-06C5.5 -3.05176e-06 4.5 1 4.5 2.3C4.5 2.8 4.8 3.3 5 3.7C5.4 4.1 5.6 4.5 5.5 4.8C5.5 4.9 5.4 5 5.3 5C2.5 4.9 0.400002 4.6 0.400002 4.6C0.400002 4.6 0.1 6.8 0 9.7C0.1 9.8 0.0999969 9.9 0.199997 9.9C0.499997 10 0.900003 9.8 1.3 9.5C1.7 9.2 2.2 9 2.8 9C4.1 9 5 10 5 11.2C5 12.3 3.8 13.3 2.9 13.3C2.4 13.3 1.7 12.9 1.4 12.7C1 12.5 0.600003 12.1 0.300003 12.3C0.200003 12.3 0.0999985 12.5 0.0999985 12.6C0.199998 15.5 0.5 17.9 0.5 17.9C0.5 17.9 2.4 18.1 5 18.3C5.3 18.3 5.7 18.1 5.8 17.9C5.9 17.6 5.7 17.2 5.4 16.8C5.1 16.4 4.9 15.9 4.9 15.3C4.9 14 5.9 13 7.2 13C8.5 13 9.5 14 9.5 15.3C9.5 15.8 9.2 16.4 9 16.7C8.7 17.1 8.4 17.5 8.5 17.8C8.6 18 9 18.2 9.3 18.2C11.9 18.3 13.8 17.8 13.8 17.8C13.8 17.8 14.1 15.8 14.2 13.1C14 12.9 13.9 12.6 13.7 12.5Z" transform="translate(80 67.2001)" fill="#8BEAD8"/>
<path d="M5.8 13.7C5.9 13.4 5.7 13 5.4 12.6C5.2 12.2 4.9 11.7 4.9 11.1C4.9 9.8 5.9 8.8 7.2 8.8C8.5 8.8 9.4 9.7 9.4 11C9.4 11.5 9.2 12.2 8.8 12.5C8.4 12.9 8.4 13.3 8.5 13.6C8.6 13.8 8.9 13.9 9.2 14C11.7 14.2 13.6 13.7 13.6 13.7C13.6 13.7 13.3 11.4 13.2 8.4C13.3 8.3 13.3 8.2 13.4 8.2C13.7 8.1 14.1 8.3 14.5 8.6C14.8 8.8 15.4 9.1 16 9.1C17.3 9.1 18.3 8.1 18.3 6.8C18.3 5.5 17.3 4.5 16 4.5C15.5 4.5 14.9 4.8 14.6 5C14.2 5.3 13.8 5.6 13.5 5.5C13.4 5.5 13.4 5.4 13.3 5.3C13.4 2.5 13.7 0.400002 13.7 0.400002C13.7 0.400002 11.5 0.1 8.6 0C8.5 0.1 8.4 0.0999969 8.4 0.199997C8.3 0.499997 8.5 0.900003 8.8 1.3C9.1 1.7 9.3 2.2 9.3 2.8C9.3 4.1 8.3 5.1 7 5.1C5.7 5.1 4.8 4.1 4.8 2.8C4.8 2.3 5 1.8 5.4 1.4C5.6 1 5.9 0.600003 5.8 0.300003C5.8 0.200003 5.7 0.0999985 5.5 0.0999985C2.6 0.199998 0.399997 0.5 0.399997 0.5C0.399997 0.5 0.100003 2.4 3.05176e-06 5C3.05176e-06 5.3 0.0999985 5.7 0.299998 5.8C0.599998 5.9 0.999997 5.7 1.4 5.4C1.8 5.1 2.3 4.9 2.9 4.9C4.2 4.9 5.2 5.9 5.2 7.2C5.2 8.5 4.2 9.5 2.9 9.5C2.4 9.5 1.9 9.2 1.5 9C1.1 8.6 0.699997 8.4 0.399997 8.5C0.199997 8.6 0.100003 9 3.05176e-06 9.3C0.100003 11.9 0.600002 13.8 0.600002 13.8C0.600002 13.8 2.4 14.3 5.1 14.1C5.4 14.1 5.7 13.9 5.8 13.7Z" transform="translate(66.8 71.5001)" fill="#3ACCB0"/>
<path d="M12.7 3.2C12.8 3.4 12.9 3.6 12.8 3.7C12.7 4 12.1 4.1 11.7 4.2C11.3 4.3 10.7 4.5 10.3 4.9C9.4 5.8 9.4 7.2 10.3 8.1C11.2 9 12.6 9 13.5 8.1C13.9 7.7 14.1 7.2 14.2 6.7C14.2 6.4 14.4 5.8 14.7 5.6C14.8 5.5 15 5.6 15.2 5.7C16.9 7.5 18.1 9.1 18.4 9.4C17.9 9.8 16.5 10.7 15.3 12.1C15.1 12.4 14.9 12.7 15 12.9C15.1 13.2 15.6 13.3 16.1 13.4C16.5 13.5 17.1 13.7 17.5 14.1C18.4 15 18.4 16.4 17.5 17.3C16.6 18.2 15.2 18.2 14.3 17.3C13.9 16.9 13.7 16.3 13.6 15.9C13.5 15.3 13.4 14.9 13.1 14.8C12.9 14.7 12.5 14.9 12.3 15.1C10.5 16.7 9.5 18.3 9.4 18.5C9.4 18.5 8.1 16.8 6.2 14.8C6 14.7 5.8 14.7 5.7 14.7C5.4 14.8 5.3 15.3 5.2 15.8C5.1 16.2 4.9 16.8 4.5 17.2C3.6 18.1 2.2 18.1 1.3 17.2C0.400002 16.3 0.400002 14.9 1.3 14C1.7 13.6 2.3 13.5 2.7 13.3C3.1 13.2 3.7 13.1 3.8 12.8C3.9 12.7 3.8 12.5 3.7 12.3C1.8 10.5 0.199998 9.3 -1.52588e-06 9.1C-1.52588e-06 9.1 7.6 1.6 9.1 0C9.2 0.1 10.8 1.4 12.7 3.2Z" transform="translate(48.1 99)" fill="#3ACCB0"/>
<path d="M8.7 0V22.4C8.7 22.4 0 16.6 0 9.5C0 8.7 0 2.7 0 2.7C0 2.7 1.5 4 4.3 3.3C7.9 2.4 8.7 0 8.7 0Z" transform="translate(19.5 47)" fill="#009377"/>
<path d="M7.62939e-07 0V22.4C7.62939e-07 22.4 8.7 16.6 8.7 9.5C8.7 8.7 8.7 2.7 8.7 2.7C8.7 2.7 7.2 4 4.4 3.3C0.799999 2.4 7.62939e-07 0 7.62939e-07 0Z" transform="translate(28.2 47)" fill="#00705A"/>
<path d="M3.6 7.1H3.3C3.2 7.1 3 7.1 2.9 7C2.8 6.9 2.8 6.8 2.8 6.6V4.3H0.499998C0.399998 4.3 0.200001 4.3 0.100001 4.2C7.59959e-07 4.1 -1.52588e-06 4 -1.52588e-06 3.8V3.3C-1.52588e-06 3.2 7.59959e-07 3 0.100001 2.9C0.200001 2.8 0.299998 2.8 0.499998 2.8H2.8V0.499999C2.8 0.399999 2.8 0.200002 2.9 0.100002C3 1.52737e-06 3.1 -7.62939e-07 3.3 -7.62939e-07H3.6V7.1Z" transform="translate(24.6 53.8)" fill="#005444"/>
<path d="M3.1 2.7C3.2 2.7 3.4 2.7 3.5 2.8C3.6 2.9 3.6 3 3.6 3.2V3.7C3.6 3.8 3.6 4 3.5 4.1C3.4 4.2 3.3 4.2 3.1 4.2H0.800002V6.5C0.800002 6.6 0.799999 6.8 0.699999 6.9C0.599999 7 0.500002 7 0.300002 7H-1.52588e-06V1.52588e-06H0.300002C0.400002 1.52588e-06 0.599999 0 0.699999 0.1C0.799999 0.2 0.800002 0.300002 0.800002 0.500002V2.8H3.1V2.7Z" transform="translate(28.1 53.9)" fill="#004235"/>
<path d="M7 14C10.866 14 14 10.866 14 7C14 3.13401 10.866 0 7 0C3.13401 0 0 3.13401 0 7C0 10.866 3.13401 14 7 14Z" transform="translate(20.8 75.5)" fill="#CCF2EA"/>
<path opacity="0.45" d="M6.2 12.4C9.62417 12.4 12.4 9.62417 12.4 6.2C12.4 2.77583 9.62417 3.05176e-06 6.2 3.05176e-06C2.77584 3.05176e-06 0 2.77583 0 6.2C0 9.62417 2.77584 12.4 6.2 12.4Z" transform="translate(21.5 76.3)" fill="white"/>
<path d="M5 10C7.76143 10 10 7.76142 10 5C10 2.23858 7.76143 0 5 0C2.23858 0 0 2.23858 0 5C0 7.76142 2.23858 10 5 10Z" transform="translate(22.7001 77.5)" fill="white"/>
<path d="M7 14C10.866 14 14 10.866 14 7C14 3.13401 10.866 0 7 0C3.13401 0 0 3.13401 0 7C0 10.866 3.13401 14 7 14Z" transform="translate(46.4 17.5)" fill="#CCF2EA"/>
<path opacity="0.45" d="M6.2 12.4C9.62417 12.4 12.4 9.62417 12.4 6.2C12.4 2.77583 9.62417 0 6.2 0C2.77584 0 -3.05176e-06 2.77583 -3.05176e-06 6.2C-3.05176e-06 9.62417 2.77584 12.4 6.2 12.4Z" transform="translate(47.2001 18.3)" fill="white"/>
<path d="M5 10C7.76143 10 10 7.76142 10 5C10 2.23858 7.76143 0 5 0C2.23858 0 0 2.23858 0 5C0 7.76142 2.23858 10 5 10Z" transform="translate(48.4 19.5)" fill="white"/>
</svg>
