<svg width="102" height="120" viewBox="0 0 102 120" fill="none" xmlns="http://www.w3.org/2000/svg">
<path d="M20 40C31.0457 40 40 31.0457 40 20C40 8.9543 31.0457 -3.05176e-06 20 -3.05176e-06C8.95431 -3.05176e-06 0 8.9543 0 20C0 31.0457 8.95431 40 20 40Z" transform="translate(0.899902 79.7)" fill="#76D6BD"/>
<path opacity="0.45" d="M17.3 34.6C26.8545 34.6 34.6 26.8545 34.6 17.3C34.6 7.74547 26.8545 0 17.3 0C7.74547 0 0 7.74547 0 17.3C0 26.8545 7.74547 34.6 17.3 34.6Z" transform="translate(3.6001 82.4)" fill="white"/>
<path d="M16.2 32.4C25.147 32.4 32.4 25.147 32.4 16.2C32.4 7.25298 25.147 0 16.2 0C7.25299 0 0 7.25298 0 16.2C0 25.147 7.25299 32.4 16.2 32.4Z" transform="translate(4.69995 83.5)" fill="white"/>
<path d="M6 14L1.52588e-06 10.3L6 0V14Z" transform="translate(14.8999 89.5)" fill="#8BEAD8"/>
<path d="M1.52588e-06 3.6V8.7L6 -1.52588e-06L1.52588e-06 3.6Z" transform="translate(20.8999 101.1)" fill="#1ABC9C"/>
<path d="M1.52588e-06 -1.52588e-06L6 10.3L1.52588e-06 14V-1.52588e-06Z" transform="translate(20.8999 89.6)" fill="#CEF4EC"/>
<path d="M6 3.7L1.52588e-06 0.0999985L6 8.8V3.7ZM1.52588e-06 0L6 8.7V3.6" transform="translate(14.8999 101)" fill="#4DD6BC"/>
<path d="M22 27.5H-1.52588e-06V-7.62939e-07H14.6L22 7.4V27.5Z" transform="translate(19.1001 36.8)" fill="#F8FFFE"/>
<path d="M7.4 7.4H7.62939e-07V-7.62939e-07L7.4 7.4Z" transform="translate(33.7002 36.8)" fill="#C1EAE2"/>
<path d="M-7.62939e-07 -1.52588e-06H10.6" transform="translate(24.8 50.1)" stroke="#C1EAE2" stroke-width="1.1435" stroke-miterlimit="10" stroke-linecap="round"/>
<path d="M-7.62939e-07 -1.52588e-06H10.6" transform="translate(24.8 47.6)" stroke="#C1EAE2" stroke-width="1.1435" stroke-miterlimit="10" stroke-linecap="round"/>
<path d="M-7.62939e-07 -1.52588e-06H10.6" transform="translate(24.8 52.6)" stroke="#C1EAE2" stroke-width="1.1435" stroke-miterlimit="10" stroke-linecap="round"/>
<path d="M-7.62939e-07 -1.52588e-06H10.6" transform="translate(24.8 55.1)" stroke="#C1EAE2" stroke-width="1.1435" stroke-miterlimit="10" stroke-linecap="round"/>
<path d="M2.3 4.6C3.57026 4.6 4.6 3.57025 4.6 2.3C4.6 1.02974 3.57026 0 2.3 0C1.02975 0 0 1.02974 0 2.3C0 3.57025 1.02975 4.6 2.3 4.6Z" transform="translate(59.6001 17.5)" fill="#8BEAD8"/>
<path d="M2.3 4.6C3.57025 4.6 4.6 3.57025 4.6 2.3C4.6 1.02974 3.57025 0 2.3 0C1.02974 0 0 1.02974 0 2.3C0 3.57025 1.02974 4.6 2.3 4.6Z" transform="translate(45.3999 48.2)" fill="#8BEAD8"/>
<path d="M2.3 4.6C3.57025 4.6 4.6 3.57025 4.6 2.3C4.6 1.02974 3.57025 0 2.3 0C1.02974 0 3.05176e-06 1.02974 3.05176e-06 2.3C3.05176e-06 3.57025 1.02974 4.6 2.3 4.6Z" transform="translate(54.3 9.09998)" fill="#8BEAD8"/>
<path d="M2.3 4.6C3.57025 4.6 4.6 3.57025 4.6 2.3C4.6 1.02974 3.57025 0 2.3 0C1.02974 0 0 1.02974 0 2.3C0 3.57025 1.02974 4.6 2.3 4.6Z" transform="translate(60.8999)" fill="#8BEAD8"/>
<path d="M20.4 40.8C31.6666 40.8 40.8 31.6666 40.8 20.4C40.8 9.13339 31.6666 0 20.4 0C9.13339 0 0 9.13339 0 20.4C0 31.6666 9.13339 40.8 20.4 40.8Z" transform="translate(51.5 26.4)" fill="#76D6BD"/>
<path opacity="0.45" d="M17.7 35.4C27.4754 35.4 35.4 27.4754 35.4 17.7C35.4 7.92456 27.4754 0 17.7 0C7.92456 0 -3.05176e-06 7.92456 -3.05176e-06 17.7C-3.05176e-06 27.4754 7.92456 35.4 17.7 35.4Z" transform="translate(54.2 29.1)" fill="white"/>
<path d="M16.5 33C25.6127 33 33 25.6127 33 16.5C33 7.3873 25.6127 0 16.5 0C7.3873 0 0 7.3873 0 16.5C0 25.6127 7.3873 33 16.5 33Z" transform="translate(55.3999 30.3)" fill="white"/>
<path d="M13.4 12.8C13.5 13.5 13.2 14.3 12.5 15.1C11.7 15.9 10.8 16.4 9.8 16.3C8.9 16.3 7.8 15.8 6.5 15.1L5.2 17L3.8 16.1L5.1 14.2L4 13.5L2.8 15.3L1.4 14.4L2.7 12.5L-3.05176e-06 10.6L1.4 9.2L1.7 9.4C2.1 9.7 2.4 9.9 2.6 10C2.8 10.1 3 10 3.2 9.8L7.4 3.7C7.5 3.4 7.5 3.1 7.3 2.8C7.2 2.6 6.8 2.4 6.3 2L6.1 1.8L7.1 0.300002L7.9 0.9C8.9 1.6 9.5 2 9.8 2.2L11.3 -1.52588e-06L12.7 0.9L11.2 3.1L12.3 3.8L13.8 1.6L15.2 2.5L13.7 4.7C14.6 5.4 15.2 6.2 15.5 6.8C15.9 7.6 15.8 8.4 15.4 9.2C14.8 10.4 13.9 10.9 12.7 10.7C13 11.5 13.4 12.1 13.4 12.8ZM8.2 7.5L8.4 7.7C9.2 8.3 9.8 8.6 10.3 8.8C11.2 9.1 11.8 9 12.3 8.4C12.7 7.8 12.6 7.1 12.1 6.4C11.8 6 11.2 5.5 10.4 5C10.3 4.9 10.2 4.9 10.1 4.9L8.2 7.5ZM5.5 12C6.4 12.7 7.2 13.1 7.8 13.3C8.8 13.7 9.6 13.5 10 12.9C10.5 12.2 10.3 11.5 9.6 10.7C9.2 10.2 8.5 9.7 7.6 9.1L7.3 8.9L5.3 11.9L5.5 12Z" transform="translate(63.2 38.6)" fill="#1ABC9C"/>
<path d="M13.4 12.8C13.5 13.5 13.2 14.3 12.5 15.1C11.7 16 10.8 16.5 9.8 16.4C8.9 16.4 7.8 15.9 6.5 15.2L5.2 17.1L3.8 16.2L5.1 14.3L4.1 13.5L2.8 15.4L1.4 14.5L2.7 12.6L1.52588e-06 10.6L1.4 9.2L1.7 9.4C2.1 9.7 2.4 9.9 2.6 10C2.8 10.1 3 10 3.2 9.8L7.4 3.7C7.5 3.4 7.5 3.1 7.3 2.8C7.2 2.6 6.8 2.4 6.3 2L6.1 1.8L7.1 0.300001L7.9 0.899999C8.9 1.6 9.5 2 9.8 2.2L11.3 1.52588e-06L12.7 0.899999L11.2 3.1L12.3 3.8L13.8 1.6L15.1 2.6L13.6 4.8C14.5 5.5 15.1 6.3 15.4 6.9C15.8 7.7 15.7 8.5 15.3 9.3C14.7 10.5 13.8 11 12.6 10.8C13.1 11.5 13.4 12.2 13.4 12.8ZM8.3 7.5L8.5 7.7C9.3 8.3 9.9 8.6 10.4 8.8C11.3 9.1 11.9 9 12.4 8.4C12.8 7.8 12.7 7.1 12.2 6.4C11.9 6 11.3 5.5 10.5 5C10.4 4.9 10.3 4.9 10.2 4.9L8.3 7.5ZM5.5 12C6.4 12.7 7.2 13.1 7.8 13.3C8.8 13.7 9.6 13.5 10 12.9C10.4 12.3 10.3 11.5 9.6 10.7C9.2 10.2 8.5 9.7 7.6 9.1L7.3 8.9L5.3 11.9L5.5 12Z" transform="translate(62.8999 38.4)" fill="#4DD6BC"/>
<path d="M58 50H2C0.899999 50 -7.62939e-07 49.1 -7.62939e-07 48V2C-7.62939e-07 0.900001 0.899999 7.62939e-07 2 7.62939e-07H58C59.1 7.62939e-07 60 0.900001 60 2V48C60 49.1 59.1 50 58 50Z" transform="translate(30.8 58.2)" fill="#D5F7F0"/>
<path d="M3 -3.05176e-06H0V35H3V-3.05176e-06Z" transform="translate(78.5 65.7)" fill="url(#paint0_linear)"/>
<path d="M3 -3.05176e-06H-3.05176e-06V35H3V-3.05176e-06Z" transform="translate(40.2 65.7)" fill="url(#paint1_linear)"/>
<path d="M3 -3.05176e-06H3.05176e-06V35H3V-3.05176e-06Z" transform="translate(49.8 65.7)" fill="url(#paint2_linear)"/>
<path d="M3 -3.05176e-06H0V35H3V-3.05176e-06Z" transform="translate(59.3999 65.7)" fill="url(#paint3_linear)"/>
<path d="M3 -3.05176e-06H0V35H3V-3.05176e-06Z" transform="translate(68.8999 65.7)" fill="url(#paint4_linear)"/>
<path d="M7 14C10.866 14 14 10.866 14 7C14 3.13401 10.866 0 7 0C3.134 0 0 3.13401 0 7C0 10.866 3.134 14 7 14Z" transform="translate(34.7 62.8)" fill="#CCF2EA"/>
<path opacity="0.45" d="M6.2 12.4C9.62416 12.4 12.4 9.62417 12.4 6.2C12.4 2.77584 9.62416 0 6.2 0C2.77583 0 0 2.77584 0 6.2C0 9.62417 2.77583 12.4 6.2 12.4Z" transform="translate(35.5 63.6)" fill="white"/>
<path d="M5 10C7.76142 10 10 7.76143 10 5C10 2.23858 7.76142 3.05176e-06 5 3.05176e-06C2.23857 3.05176e-06 0 2.23858 0 5C0 7.76143 2.23857 10 5 10Z" transform="translate(36.7 64.8)" fill="white"/>
<path d="M7 14C10.866 14 14 10.866 14 7C14 3.13401 10.866 0 7 0C3.13401 0 3.05176e-06 3.13401 3.05176e-06 7C3.05176e-06 10.866 3.13401 14 7 14Z" transform="translate(63.8 81)" fill="#CCF2EA"/>
<path opacity="0.45" d="M6.2 12.4C9.62416 12.4 12.4 9.62417 12.4 6.2C12.4 2.77583 9.62416 3.05176e-06 6.2 3.05176e-06C2.77583 3.05176e-06 0 2.77583 0 6.2C0 9.62417 2.77583 12.4 6.2 12.4Z" transform="translate(64.5 81.8)" fill="white"/>
<path d="M5 10C7.76142 10 10 7.76142 10 5C10 2.23858 7.76142 0 5 0C2.23857 0 -3.05176e-06 2.23858 -3.05176e-06 5C-3.05176e-06 7.76142 2.23857 10 5 10Z" transform="translate(65.7 83)" fill="white"/>
<path d="M7 14C10.866 14 14 10.866 14 7C14 3.13401 10.866 0 7 0C3.13401 0 3.05176e-06 3.13401 3.05176e-06 7C3.05176e-06 10.866 3.13401 14 7 14Z" transform="translate(41.3 19)" fill="#CCF2EA"/>
<path opacity="0.45" d="M6.2 12.4C9.62416 12.4 12.4 9.62417 12.4 6.2C12.4 2.77583 9.62416 0 6.2 0C2.77583 0 0 2.77583 0 6.2C0 9.62417 2.77583 12.4 6.2 12.4Z" transform="translate(42 19.8)" fill="white"/>
<path d="M5 10C7.76142 10 10 7.76142 10 5C10 2.23858 7.76142 0 5 0C2.23857 0 -3.05176e-06 2.23858 -3.05176e-06 5C-3.05176e-06 7.76142 2.23857 10 5 10Z" transform="translate(43.2 21)" fill="white"/>
<path d="M11.2 22.4C17.3856 22.4 22.4 17.3856 22.4 11.2C22.4 5.01441 17.3856 0 11.2 0C5.01441 0 3.05176e-06 5.01441 3.05176e-06 11.2C3.05176e-06 17.3856 5.01441 22.4 11.2 22.4Z" transform="translate(78.8 47.4)" fill="#009377"/>
<path d="M0.2 4.8C0.1 4.7 3.05176e-06 4.5 3.05176e-06 4.4C3.05176e-06 4.3 0.1 4.1 0.2 4L1.1 3.2C1.2 3.1 1.3 3 1.5 3C1.7 3 1.8 3.1 1.9 3.2L4.5 5.8L10.1 0.199998C10.2 0.0999985 10.4 1.52588e-06 10.5 1.52588e-06C10.6 1.52588e-06 10.8 0.0999985 10.9 0.199998L11.8 1C11.9 1.1 12 1.3 12 1.4C12 1.5 11.9 1.7 11.8 1.8L4.9 8.7C4.8 8.8 4.6 8.9 4.5 8.9C4.4 8.9 4.2 8.8 4.1 8.7L0.2 4.8Z" transform="translate(84.3 54.9)" fill="white"/>
<defs>
<linearGradient id="paint0_linear" x2="1" gradientUnits="userSpaceOnUse" gradientTransform="translate(18.6048 -5.3096) scale(34.2334) rotate(90)">
<stop stop-color="#AEFFEF"/>
<stop offset="1" stop-color="#1ABC9C" stop-opacity="0.3"/>
</linearGradient>
<linearGradient id="paint1_linear" x2="1" gradientUnits="userSpaceOnUse" gradientTransform="translate(20.3266 -9.2684) scale(37.5987) rotate(90)">
<stop stop-color="#AEFFEF"/>
<stop offset="1" stop-color="#1ABC9C" stop-opacity="0.3"/>
</linearGradient>
<linearGradient id="paint2_linear" x2="1" gradientUnits="userSpaceOnUse" gradientTransform="translate(27.0231 -25.1042) scale(51.0612) rotate(90)">
<stop stop-color="#AEFFEF"/>
<stop offset="1" stop-color="#1ABC9C" stop-opacity="0.3"/>
</linearGradient>
<linearGradient id="paint3_linear" x2="1" gradientUnits="userSpaceOnUse" gradientTransform="translate(15.6074 1.6705) scale(28.2995) rotate(90)">
<stop stop-color="#AEFFEF"/>
<stop offset="1" stop-color="#1ABC9C" stop-opacity="0.3"/>
</linearGradient>
<linearGradient id="paint4_linear" x2="1" gradientUnits="userSpaceOnUse" gradientTransform="translate(17.3054 -2.1709) scale(31.5651) rotate(90)">
<stop stop-color="#AEFFEF"/>
<stop offset="1" stop-color="#1ABC9C" stop-opacity="0.3"/>
</linearGradient>
</defs>
</svg>
