<svg width="65" height="119" viewBox="0 0 65 119" fill="none" xmlns="http://www.w3.org/2000/svg">
<path d="M7 14C10.866 14 14 10.866 14 7C14 3.13401 10.866 3.05176e-06 7 3.05176e-06C3.13401 3.05176e-06 0 3.13401 0 7C0 10.866 3.13401 14 7 14Z" transform="translate(0.100098 92.8)" fill="#CCF2EA"/>
<path opacity="0.45" d="M6.2 12.4C9.62417 12.4 12.4 9.62417 12.4 6.2C12.4 2.77584 9.62417 0 6.2 0C2.77583 0 0 2.77584 0 6.2C0 9.62417 2.77583 12.4 6.2 12.4Z" transform="translate(0.899902 93.6001)" fill="white"/>
<path d="M5 10C7.76142 10 10 7.76143 10 5C10 2.23858 7.76142 3.05176e-06 5 3.05176e-06C2.23858 3.05176e-06 0 2.23858 0 5C0 7.76143 2.23858 10 5 10Z" transform="translate(2.1001 94.8)" fill="white"/>
<path d="M7 14C10.866 14 14 10.866 14 7C14 3.13401 10.866 0 7 0C3.13401 0 0 3.13401 0 7C0 10.866 3.13401 14 7 14Z" transform="translate(25.2002 17.5)" fill="#CCF2EA"/>
<path opacity="0.45" d="M6.2 12.4C9.62416 12.4 12.4 9.62417 12.4 6.2C12.4 2.77583 9.62416 0 6.2 0C2.77583 0 0 2.77583 0 6.2C0 9.62417 2.77583 12.4 6.2 12.4Z" transform="translate(25.9001 18.2999)" fill="white"/>
<path d="M5 10C7.76142 10 10 7.76142 10 5C10 2.23858 7.76142 0 5 0C2.23857 0 0 2.23858 0 5C0 7.76142 2.23857 10 5 10Z" transform="translate(27.1001 19.5)" fill="white"/>
<path d="M11.5 23C17.8513 23 23 17.8513 23 11.5C23 5.14872 17.8513 0 11.5 0C5.14872 0 0 5.14872 0 11.5C0 17.8513 5.14872 23 11.5 23Z" transform="translate(35.6001 31.3)" fill="#9EEFDF"/>
<path opacity="0.45" d="M9.8 19.6C15.2124 19.6 19.6 15.2124 19.6 9.8C19.6 4.38761 15.2124 0 9.8 0C4.38761 0 0 4.38761 0 9.8C0 15.2124 4.38761 19.6 9.8 19.6Z" transform="translate(37.3 33)" fill="white"/>
<path d="M9.1 18.2C14.1258 18.2 18.2 14.1258 18.2 9.1C18.2 4.07421 14.1258 0 9.1 0C4.07421 0 0 4.07421 0 9.1C0 14.1258 4.07421 18.2 9.1 18.2Z" transform="translate(38 33.7001)" fill="white"/>
<path d="M2.17696 2.81371C2.87696 2.81371 3.47696 3.11371 3.87696 3.81371C4.17696 4.31371 4.77696 4.41371 5.17696 4.01371C5.47696 3.71371 5.57696 3.31371 5.37696 3.01371C5.17696 2.71371 5.07696 2.41371 5.07696 2.11371C5.07696 1.21371 5.57696 0.413713 6.47696 0.113713C7.57696 -0.286287 8.77696 0.413711 9.07696 1.51371C9.37696 2.51371 8.67696 3.61371 7.67696 3.91371C7.47696 3.91371 7.37696 4.01371 7.17696 4.01371C6.77696 4.01371 6.37696 4.31371 6.37696 4.81371C6.37696 5.21371 6.67696 5.61371 7.07696 5.71371C7.27696 5.71371 7.37696 5.71371 7.57696 5.71371C8.57696 5.91371 9.37697 6.81371 9.27697 7.81371C9.17697 8.71371 8.57696 9.41371 7.67696 9.61371C6.67696 9.81371 5.67696 9.31371 5.27696 8.31371C5.07696 7.81371 5.17696 7.21371 5.37696 6.71371C5.47696 6.51371 5.57696 6.31371 5.47696 6.11371C5.37696 5.81371 5.17696 5.51371 4.77696 5.41371C4.47696 5.31371 4.07696 5.51371 3.87696 5.81371C3.77696 6.01371 3.57696 6.21371 3.37696 6.41371C2.27696 7.41371 0.476962 6.81371 0.0769616 5.41371C-0.223038 4.31371 0.376963 3.21371 1.47696 3.01371C1.57696 3.01371 1.67696 3.01371 1.77696 2.91371C1.97696 2.81371 2.07696 2.81371 2.17696 2.81371Z" transform="translate(42.0229 38.0863)" fill="#1ABC9C"/>
<path d="M2.27696 2.81371C2.97696 2.81371 3.57696 3.11371 3.97696 3.81371C4.27696 4.31371 4.87696 4.41371 5.27696 4.01371C5.57696 3.71371 5.67696 3.31371 5.47696 3.01371C5.27696 2.71371 5.17696 2.41371 5.17696 2.11371C5.17696 1.21371 5.67696 0.413713 6.57696 0.113713C7.67696 -0.286287 8.87696 0.413711 9.17696 1.51371C9.47696 2.51371 8.77696 3.61371 7.77696 3.91371C7.57696 3.91371 7.37696 3.91371 7.17696 3.91371C6.77696 3.91371 6.37696 4.21371 6.37696 4.71371C6.37696 5.11371 6.67696 5.51371 7.07696 5.61371C7.27696 5.61371 7.37696 5.61371 7.57696 5.61371C8.57696 5.81371 9.37696 6.71371 9.27696 7.71371C9.17696 8.61371 8.57696 9.31371 7.67696 9.51371C6.67696 9.71371 5.67696 9.21371 5.27696 8.21371C5.07696 7.71371 5.17696 7.11371 5.37696 6.61371C5.47696 6.41371 5.57696 6.21371 5.47696 6.01371C5.37696 5.71371 5.17696 5.41371 4.77696 5.31371C4.47696 5.21371 4.07696 5.41371 3.87696 5.71371C3.77696 5.91371 3.57696 6.11371 3.37696 6.31371C2.27696 7.31371 0.476964 6.71371 0.0769638 5.31371C-0.223036 4.21371 0.376962 3.11371 1.47696 2.91371C1.57696 2.91371 1.67696 2.91371 1.77696 2.81371C2.07696 2.81371 2.17696 2.81371 2.27696 2.81371Z" transform="translate(41.623 38.0863)" fill="#4DD6BC"/>
<path d="M2.3 4.6C3.57025 4.6 4.6 3.57025 4.6 2.3C4.6 1.02974 3.57025 0 2.3 0C1.02974 0 0 1.02974 0 2.3C0 3.57025 1.02974 4.6 2.3 4.6Z" transform="translate(43.2 17.5)" fill="#8BEAD8"/>
<path d="M2.3 4.6C3.57026 4.6 4.6 3.57025 4.6 2.3C4.6 1.02974 3.57026 -3.05176e-06 2.3 -3.05176e-06C1.02975 -3.05176e-06 0 1.02974 0 2.3C0 3.57025 1.02975 4.6 2.3 4.6Z" transform="translate(0.5 75.7)" fill="#8BEAD8"/>
<path d="M2.3 4.6C3.57026 4.6 4.6 3.57025 4.6 2.3C4.6 1.02974 3.57026 0 2.3 0C1.02975 0 0 1.02974 0 2.3C0 3.57025 1.02975 4.6 2.3 4.6Z" transform="translate(37.8999 9.09998)" fill="#8BEAD8"/>
<path d="M2.3 4.6C3.57025 4.6 4.6 3.57025 4.6 2.3C4.6 1.02974 3.57025 0 2.3 0C1.02974 0 0 1.02974 0 2.3C0 3.57025 1.02974 4.6 2.3 4.6Z" transform="translate(44.5)" fill="#8BEAD8"/>
<path d="M41 10.2C40.5 10 40.1 9.5 40.1 8.9V3.7C40.9 3.5 41.6 2.8 41.6 1.9C41.6 0.900002 40.7 0 39.7 0H7.5C6.5 0 5.6 0.900002 5.6 1.9C5.6 2.8 6.2 3.6 7.1 3.7V8.9C7.1 9.5 6.8 10 6.2 10.2C2.6 11.7 3.8147e-07 15.3 3.8147e-07 19.5V55C3.8147e-07 60.5 4.5 65.1 10.1 65.1H37.1C42.6 65.1 47.2 60.6 47.2 55V19.5C47.2 15.3 44.6 11.7 41 10.2Z" transform="translate(12.1001 49.5)" fill="white" stroke="#222221" stroke-width="2" stroke-miterlimit="10"/>
<path d="M12.3 69.8C5.5 69.8 -3.8147e-07 64.3 -3.8147e-07 57.5V21.9C-3.8147e-07 17.1 2.8 12.8 7.1 10.7V7.4C6.2 6.6 5.6 5.5 5.6 4.2C5.6 1.9 7.5 -1.52588e-06 9.8 -1.52588e-06H42C44.3 -1.52588e-06 46.2 1.9 46.2 4.2C46.2 5.4 45.6 6.6 44.7 7.4V10.7C49 12.7 51.8 17.1 51.8 21.9V57.4C51.8 64.2 46.3 69.7 39.5 69.7H12.3V69.8Z" transform="translate(9.8999 47.1)" fill="#D8F7F5"/>
<path d="M39.6 0H7.6C3.5 0 0.1 3.3 3.8147e-07 7.4V7.5V43C3.8147e-07 48.5 4.5 53.1 10.1 53.1H37.1C42.6 53.1 47.2 48.6 47.2 43V7.5V7.4C47.2 3.3 43.8 0 39.6 0Z" transform="translate(12.1001 61.5)" fill="#D5F7F0"/>
<path d="M7.62939e-07 3.05176e-06C0.400001 5.2 4.8 9.3 10 9.3H37C42.3 9.3 46.7 5.2 47 3.05176e-06H7.62939e-07Z" transform="translate(12.2002 105.3)" fill="#8BEAD8"/>
<path d="M28.6 1H0.500002C0.200002 1 1.52588e-06 0.800001 1.52588e-06 0.500001C1.52588e-06 0.200001 0.200002 7.62939e-07 0.500002 7.62939e-07H28.6C28.9 7.62939e-07 29.1 0.200001 29.1 0.500001C29.1 0.800001 28.8 1 28.6 1Z" transform="translate(20.8999 59.7)" fill="url(#paint0_linear)"/>
<path d="M18.3 0H0V0.899999H18.3V0Z" transform="translate(21.3999 49.4)" fill="url(#paint1_linear)"/>
<path d="M7.2 0.999999H0.499999C0.199999 0.999999 -7.62939e-07 0.799999 -7.62939e-07 0.499999C-7.62939e-07 0.199999 0.199999 -7.62939e-07 0.499999 -7.62939e-07H7.2C7.5 -7.62939e-07 7.7 0.199999 7.7 0.499999C7.7 0.799999 7.4 0.999999 7.2 0.999999Z" transform="translate(42.3 49.3)" fill="url(#paint2_linear)"/>
<path d="M4 1H0.5C0.2 1 0 0.8 0 0.5C0 0.2 0.2 0 0.5 0H4C4.3 0 4.5 0.2 4.5 0.5C4.5 0.8 4.2 1 4 1Z" transform="translate(45.5 51)" fill="url(#paint3_linear)"/>
<path d="M4.4 22.9H2.8C1.2 22.9 1.52588e-06 21.6 1.52588e-06 20.1V2.8C1.52588e-06 1.2 1.3 0 2.8 0H4.4C6 0 7.2 1.3 7.2 2.8V20.1C7.2 21.7 6 22.9 4.4 22.9Z" transform="translate(47.4001 66.5)" fill="#F8FFFE"/>
<path d="M20.4 40.8C31.6666 40.8 40.8 31.6666 40.8 20.4C40.8 9.13339 31.6666 0 20.4 0C9.13339 0 0 9.13339 0 20.4C0 31.6666 9.13339 40.8 20.4 40.8Z" transform="translate(15.3 69.6)" fill="#76D6BD"/>
<path opacity="0.45" d="M17.7 35.4C27.4754 35.4 35.4 27.4754 35.4 17.7C35.4 7.92456 27.4754 3.05176e-06 17.7 3.05176e-06C7.92456 3.05176e-06 0 7.92456 0 17.7C0 27.4754 7.92456 35.4 17.7 35.4Z" transform="translate(18 72.3)" fill="white"/>
<path d="M16.5 33C25.6127 33 33 25.6127 33 16.5C33 7.3873 25.6127 0 16.5 0C7.3873 0 0 7.3873 0 16.5C0 25.6127 7.3873 33 16.5 33Z" transform="translate(19.2 73.5)" fill="white"/>
<path d="M13.4 12.7C13.5 13.4 13.2 14.2 12.5 15C11.7 15.9 10.8 16.4 9.8 16.3C8.9 16.3 7.8 15.8 6.5 15.1L5.2 17L3.8 16.1L5.1 14.2L4.1 13.4L2.8 15.3L1.4 14.4L2.7 12.5L1.52588e-06 10.6L1.4 9.2L1.7 9.4C2.1 9.7 2.4 9.9 2.6 10C2.8 10.1 3 10 3.2 9.8L7.4 3.7C7.5 3.4 7.5 3.1 7.3 2.8C7.2 2.6 6.8 2.4 6.3 2L6.1 1.8L7.1 0.299998L7.9 0.899997C8.9 1.6 9.5 2 9.8 2.2L11.3 3.05176e-06L12.7 0.899997L11.2 3.1L12.3 3.8L13.8 1.6L15.2 2.5L13.7 4.7C14.6 5.4 15.2 6.2 15.5 6.8C15.9 7.6 15.8 8.4 15.4 9.2C14.8 10.4 13.9 10.9 12.7 10.7C13.1 11.4 13.4 12.1 13.4 12.7ZM8.2 7.4L8.4 7.6C9.2 8.2 9.8 8.5 10.3 8.7C11.2 9 11.8 8.9 12.3 8.3C12.8 7.7 12.6 7 12.1 6.3C11.8 5.9 11.2 5.4 10.4 4.9C10.3 4.8 10.2 4.8 10.1 4.8L8.2 7.4ZM5.5 11.9C6.4 12.6 7.2 13 7.8 13.2C8.8 13.6 9.6 13.4 10 12.8C10.5 12.1 10.3 11.4 9.6 10.6C9.2 10.1 8.5 9.6 7.6 9L7.3 8.8L5.3 11.8L5.5 11.9Z" transform="translate(26.9001 81.8)" fill="#1ABC9C"/>
<path d="M13.4 12.7C13.5 13.4 13.2 14.2 12.5 15C11.7 15.9 10.8 16.4 9.8 16.3C8.9 16.3 7.8 15.8 6.5 15.1L5.2 17L3.8 16.1L5.1 14.2L4 13.4L2.7 15.3L1.4 14.4L2.7 12.5L7.62939e-07 10.6L1.4 9.2L1.7 9.4C2.1 9.7 2.4 9.9 2.6 10C2.8 10.1 3 10 3.2 9.8L7.4 3.7C7.5 3.4 7.5 3.1 7.3 2.8C7.2 2.6 6.8 2.4 6.3 2L6.1 1.8L7.1 0.300002L7.9 0.9C8.9 1.6 9.5 2 9.8 2.2L11.3 -1.52588e-06L12.7 0.9L11.2 3.1L12.3 3.8L13.8 1.6L15.2 2.5L13.7 4.7C14.6 5.4 15.2 6.2 15.5 6.8C15.9 7.6 15.8 8.4 15.4 9.2C14.8 10.4 13.9 10.9 12.7 10.7C13 11.5 13.3 12.1 13.4 12.7ZM8.2 7.4L8.4 7.6C9.2 8.2 9.8 8.5 10.3 8.7C11.2 9 11.8 8.9 12.3 8.3C12.7 7.7 12.6 7 12.1 6.3C11.8 5.9 11.2 5.4 10.4 4.9C10.3 4.8 10.2 4.8 10.1 4.8L8.2 7.4ZM5.5 12C6.4 12.7 7.2 13.1 7.8 13.3C8.8 13.7 9.6 13.5 10 12.9C10.5 12.2 10.3 11.5 9.6 10.7C9.2 10.2 8.5 9.7 7.6 9.1L7.3 8.8L5.3 11.8L5.5 12Z" transform="translate(26.7 81.6)" fill="#4DD6BC"/>
<path d="M8.8 2.8H0.400001C0.200001 2.8 -7.62939e-07 2.6 -7.62939e-07 2.4V-3.05176e-06H9.2V2.4C9.2 2.6 9 2.8 8.8 2.8Z" transform="translate(16.3003 67.7)" fill="#007A63"/>
<path d="M8.8 2.8H0.4C0.2 2.8 7.62939e-07 2.6 7.62939e-07 2.4V-3.05176e-06H9.2V2.4C9.2 2.6 9 2.8 8.8 2.8Z" transform="translate(16.2002 67.7)" fill="#0D9E82"/>
<path d="M11.6 10.6H0.6C0.3 10.6 0 10.3 0 10V0.599999C0 0.299999 0.3 7.62939e-07 0.6 7.62939e-07H11.6C11.9 7.62939e-07 12.2 0.299999 12.2 0.599999V10C12.1 10.3 11.9 10.6 11.6 10.6Z" transform="translate(15.0002 58.7)" fill="#005444"/>
<path d="M7.8 7.3V3.9C7.8 1.8 6 0 3.9 0C1.8 0 -3.8147e-07 1.8 -3.8147e-07 3.9V7.3" transform="translate(16.9001 51.5)" stroke="#007A63" stroke-width="1.1671" stroke-miterlimit="10"/>
<path d="M7.8 7.3V3.9C7.8 1.8 6 0 3.9 0C1.8 0 7.62939e-07 1.8 7.62939e-07 3.9V7.3" transform="translate(17.2002 51.5)" stroke="#005444" stroke-miterlimit="10"/>
<path d="M7.8 7.3V3.9C7.8 1.8 6 0 3.9 0C1.8 0 -3.8147e-07 1.8 -3.8147e-07 3.9V7.3" transform="translate(16.9001 51.5)" stroke="#0D9E82" stroke-width="1.1671" stroke-miterlimit="10"/>
<path d="M11.6 10.6H0.599999C0.299999 10.6 7.62939e-07 10.3 7.62939e-07 10V0.599999C7.62939e-07 0.299999 0.299999 7.62939e-07 0.599999 7.62939e-07H11.6C11.9 7.62939e-07 12.2 0.299999 12.2 0.599999V10C12.1 10.3 11.9 10.6 11.6 10.6Z" transform="translate(14.7002 58.7)" fill="#007A63"/>
<path d="M1.3 2.6C2.01797 2.6 2.6 2.01797 2.6 1.3C2.6 0.582031 2.01797 0 1.3 0C0.582029 0 0 0.582031 0 1.3C0 2.01797 0.582029 2.6 1.3 2.6Z" transform="translate(19.5002 61.9)" fill="#003329"/>
<path d="M0.599998 0H0V2.3H0.599998V0Z" transform="translate(20.5002 63.6)" fill="#003329"/>
<path d="M1.3 2.6C2.01797 2.6 2.6 2.01797 2.6 1.3C2.6 0.582031 2.01797 0 1.3 0C0.582031 0 0 0.582031 0 1.3C0 2.01797 0.582031 2.6 1.3 2.6Z" transform="translate(19.4001 61.9)" fill="#005444"/>
<path d="M0.6 0H0V2.3H0.6V0Z" transform="translate(20.4001 63.6)" fill="#005444"/>
<path d="M37 3.8H3.8147e-07V1.5C3.8147e-07 0.499998 0.3 -1.52588e-06 0.3 -1.52588e-06H37V3.8Z" transform="translate(17.6001 54.1)" fill="#8BEAD8"/>
<path d="M11.3 28.4C17.5408 28.4 22.6 22.0424 22.6 14.2C22.6 6.35756 17.5408 0 11.3 0C5.05918 0 0 6.35756 0 14.2C0 22.0424 5.05918 28.4 11.3 28.4Z" transform="translate(42.4001 90.6)" fill="#009377"/>
<path d="M11.3 28.4C17.5408 28.4 22.6 22.0424 22.6 14.2C22.6 6.35756 17.5408 0 11.3 0C5.05918 0 0 6.35756 0 14.2C0 22.0424 5.05918 28.4 11.3 28.4Z" transform="translate(41.7002 90.6)" fill="#1ABC9C"/>
<path d="M1.81613 12.3044C1.91613 12.7044 1.81612 13.0044 1.41612 13.1044C1.21612 13.1044 0.816126 12.9044 0.816126 12.7044C-0.0838739 10.0044 -0.483875 7.30441 0.916125 4.70441C2.61612 1.50441 5.51612 -0.0955826 9.11612 0.00441736C12.6161 0.104417 15.3161 1.70441 17.0161 4.90441C17.6161 6.00441 17.8161 7.20442 17.9161 8.50442C17.9161 10.2044 16.5161 11.7044 14.6161 11.7044C12.9161 11.8044 11.3161 10.4044 11.2161 8.70441C11.1161 6.70441 9.41612 5.80441 7.61612 6.70441C7.01612 7.00441 6.71612 7.60441 6.71612 8.30441C6.61612 11.1044 8.51613 13.9044 11.2161 14.9044C11.5161 15.0044 11.9161 15.1044 12.2161 15.3044C12.4161 15.4044 12.5161 15.7044 12.7161 16.0044C12.4161 16.1044 12.2161 16.4044 11.9161 16.3044C9.01612 15.8044 6.31613 12.9044 5.81613 9.90441C5.61613 9.00441 5.51612 8.10441 5.91612 7.20441C6.51612 5.90441 7.91613 4.90441 9.81613 5.30441C10.9161 5.50441 12.3161 6.70441 12.3161 8.20441C12.3161 10.4044 14.5161 11.0044 15.8161 10.2044C16.4161 9.80441 16.8161 9.20441 16.8161 8.40441C16.8161 5.70441 15.2161 2.90442 12.1161 1.60442C8.41612 0.104416 4.41613 1.20442 2.11613 4.50442C1.31613 5.70442 0.916123 7.00441 1.01612 8.40441C1.11612 8.50441 1.51613 11.1044 1.81613 12.3044Z" transform="translate(44.084 99.2955)" fill="#009377"/>
<path d="M0.00419207 6.32806C-0.0958079 3.52806 1.60419 1.32806 4.00419 0.428058C6.60419 -0.571942 9.50419 0.228059 11.1042 2.32806C11.9042 3.32806 12.4042 4.42805 12.3042 5.72805C12.3042 5.92805 12.0042 6.32806 11.8042 6.32806C11.5042 6.42806 11.2042 6.12805 11.2042 5.72805C11.1042 1.72805 6.30419 -0.371944 3.10419 2.02806C1.80419 2.92806 1.10419 4.22806 1.10419 5.82806C1.10419 8.22806 2.00419 10.3281 3.70419 12.1281C3.80419 12.3281 4.10419 12.4281 4.10419 12.6281C4.20419 12.8281 4.20419 13.2281 4.10419 13.4281C3.90419 13.7281 3.60419 13.6281 3.30419 13.4281C2.00419 12.1281 1.00419 10.7281 0.504192 8.92806C0.304192 8.02806 0.104192 7.12806 0.00419207 6.32806Z" transform="translate(46.896 101.972)" fill="#009377"/>
<path d="M9.824 1.13957C6.224 1.23957 3.324 2.53957 1.124 5.33957C0.924002 5.63957 0.624 5.93957 0.224 5.63957C-0.176 5.33957 0.0239985 4.93957 0.323998 4.63957C2.524 1.83957 5.324 0.239567 8.924 0.0395665C13.124 -0.260434 16.624 1.13957 19.224 4.43957C19.324 4.53957 19.524 4.73957 19.524 4.83957C19.524 5.13957 19.524 5.43957 19.324 5.53957C19.224 5.63957 18.824 5.53957 18.624 5.43957C18.524 5.43957 18.524 5.33957 18.424 5.23957C16.324 2.43957 13.424 1.13957 9.824 1.13957Z" transform="translate(43.2761 96.6604)" fill="#009377"/>
<path d="M7.26476 0C9.16476 0 11.1648 0.5 13.1648 1.5C13.5648 1.7 13.8648 1.9 13.6648 2.3C13.4648 2.8 13.0648 2.6 12.6648 2.4C8.76476 0.500002 4.86476 0.500002 0.964759 2.4C0.564759 2.6 0.264757 2.7 0.0647572 2.3C-0.135243 1.9 0.164759 1.7 0.464759 1.5C2.56476 0.5 4.66476 0 7.26476 0Z" transform="translate(46.2354 94)" fill="#009377"/>
<path d="M5.9 6.21938C2.8 6.21938 0.4 4.11938 0 1.01938C0 0.919383 0 0.719382 0 0.619381C0 0.219381 0.199998 -0.080617 0.599998 0.019383C0.799998 0.019383 0.999998 0.419381 1.1 0.619381C1.4 1.41938 1.5 2.31938 1.9 3.01938C2.9 4.61938 4.5 5.31938 6.4 5.11938C6.6 5.11938 6.9 5.11938 7.1 5.01938C7.5 5.01938 7.8 5.11938 7.8 5.51938C7.8 5.71938 7.5 6.01938 7.3 6.11938C6.8 6.11938 6.3 6.11938 5.9 6.21938Z" transform="translate(52.5 107.381)" fill="#009377"/>
<defs>
<linearGradient id="paint0_linear" x2="1" gradientUnits="userSpaceOnUse" gradientTransform="translate(0.0269 -13.9435) scale(29.0237)">
<stop stop-color="#AEFFEF"/>
<stop offset="1" stop-color="#1ABC9C" stop-opacity="0.3"/>
</linearGradient>
<linearGradient id="paint1_linear" x2="1" gradientUnits="userSpaceOnUse" gradientTransform="translate(-0.002 -8.6976) scale(18.3322)">
<stop stop-color="#AEFFEF"/>
<stop offset="1" stop-color="#1ABC9C" stop-opacity="0.3"/>
</linearGradient>
<linearGradient id="paint2_linear" x2="1" gradientUnits="userSpaceOnUse" gradientTransform="translate(-0.0412 -3.2774) scale(7.6918)">
<stop stop-color="#AEFFEF"/>
<stop offset="1" stop-color="#1ABC9C" stop-opacity="0.3"/>
</linearGradient>
<linearGradient id="paint3_linear" x2="1" gradientUnits="userSpaceOnUse" gradientTransform="translate(-0.033 -1.6899) scale(4.4836)">
<stop stop-color="#AEFFEF"/>
<stop offset="1" stop-color="#1ABC9C" stop-opacity="0.3"/>
</linearGradient>
</defs>
</svg>
