<svg width="102" height="107" viewBox="0 0 102 107" fill="none" xmlns="http://www.w3.org/2000/svg">
<path d="M7 14C10.866 14 14 10.866 14 7C14 3.134 10.866 0 7 0C3.13401 0 0 3.134 0 7C0 10.866 3.13401 14 7 14Z" transform="translate(0.599609 44.2)" fill="#CCF2EA"/>
<path opacity="0.45" d="M6.2 12.4C9.62417 12.4 12.4 9.62416 12.4 6.2C12.4 2.77583 9.62417 0 6.2 0C2.77583 0 0 2.77583 0 6.2C0 9.62416 2.77583 12.4 6.2 12.4Z" transform="translate(1.40039 44.9999)" fill="white"/>
<path d="M5 10C7.76142 10 10 7.76142 10 5C10 2.23857 7.76142 0 5 0C2.23858 0 0 2.23857 0 5C0 7.76142 2.23858 10 5 10Z" transform="translate(2.59961 46.2)" fill="white"/>
<path d="M2.3 4.6C3.57025 4.6 4.6 3.57025 4.6 2.3C4.6 1.02974 3.57025 3.05176e-06 2.3 3.05176e-06C1.02974 3.05176e-06 3.05176e-06 1.02974 3.05176e-06 2.3C3.05176e-06 3.57025 1.02974 4.6 2.3 4.6Z" transform="translate(84.7998 69.3)" fill="#8BEAD8"/>
<path d="M2.3 4.6C3.57025 4.6 4.6 3.57025 4.6 2.3C4.6 1.02974 3.57025 0 2.3 0C1.02974 0 0 1.02974 0 2.3C0 3.57025 1.02974 4.6 2.3 4.6Z" transform="translate(27.2998 33.8)" fill="#8BEAD8"/>
<path d="M2.3 4.6C3.57025 4.6 4.6 3.57025 4.6 2.3C4.6 1.02974 3.57025 0 2.3 0C1.02974 0 3.05176e-06 1.02974 3.05176e-06 2.3C3.05176e-06 3.57025 1.02974 4.6 2.3 4.6Z" transform="translate(51.7998 0.599976)" fill="#8BEAD8"/>
<path d="M2.3 4.6C3.57026 4.6 4.6 3.57026 4.6 2.3C4.6 1.02975 3.57026 0 2.3 0C1.02975 0 0 1.02975 0 2.3C0 3.57026 1.02975 4.6 2.3 4.6Z" transform="translate(77 81.6)" fill="#8BEAD8"/>
<path d="M11.5 23C17.8513 23 23 17.8513 23 11.5C23 5.14873 17.8513 0 11.5 0C5.14873 0 0 5.14873 0 11.5C0 17.8513 5.14873 23 11.5 23Z" transform="translate(31.8994 9.20001)" fill="#9EEFDF"/>
<path opacity="0.45" d="M9.8 19.6C15.2124 19.6 19.6 15.2124 19.6 9.8C19.6 4.38761 15.2124 0 9.8 0C4.38761 0 0 4.38761 0 9.8C0 15.2124 4.38761 19.6 9.8 19.6Z" transform="translate(33.5986 10.9)" fill="white"/>
<path d="M9.1 18.2C14.1258 18.2 18.2 14.1258 18.2 9.1C18.2 4.07421 14.1258 0 9.1 0C4.07421 0 0 4.07421 0 9.1C0 14.1258 4.07421 18.2 9.1 18.2Z" transform="translate(34.2988 11.6)" fill="white"/>
<path d="M2.17696 2.81371C2.87696 2.81371 3.47696 3.11371 3.87696 3.81371C4.17696 4.31371 4.77696 4.41371 5.17696 4.01371C5.47696 3.71371 5.57696 3.31371 5.37696 3.01371C5.17696 2.71371 5.07696 2.41371 5.07696 2.11371C5.07696 1.21371 5.57696 0.413713 6.47696 0.113713C7.57696 -0.286287 8.77696 0.413711 9.07696 1.51371C9.37696 2.51371 8.67696 3.61371 7.67696 3.91371C7.47696 3.91371 7.37696 4.01371 7.17696 4.01371C6.77696 4.01371 6.37696 4.31371 6.37696 4.81371C6.37696 5.21371 6.67696 5.61371 7.07696 5.71371C7.27696 5.71371 7.37696 5.71371 7.57696 5.71371C8.57696 5.91371 9.37696 6.81371 9.27696 7.81371C9.17696 8.71371 8.57696 9.41371 7.67696 9.61371C6.67696 9.81371 5.67696 9.31371 5.27696 8.31371C5.07696 7.81371 5.17696 7.21371 5.37696 6.71371C5.47696 6.51371 5.57696 6.31371 5.47696 6.11371C5.37696 5.81371 5.17696 5.51371 4.77696 5.41371C4.47696 5.31371 4.07696 5.51371 3.87696 5.81371C3.77696 6.01371 3.57696 6.21371 3.37696 6.41371C2.27696 7.41371 0.476965 6.81371 0.0769646 5.41371C-0.223035 4.31371 0.376962 3.21371 1.47696 3.01371C1.57696 3.01371 1.67696 3.01371 1.77696 2.91371C1.97696 2.81371 1.97696 2.81371 2.17696 2.81371Z" transform="translate(38.3223 16.0863)" fill="#1ABC9C"/>
<path d="M2.17696 2.81371C2.87696 2.81371 3.47696 3.11371 3.87696 3.81371C4.17696 4.31371 4.77696 4.41371 5.17696 4.01371C5.47696 3.71371 5.57696 3.31371 5.37696 3.01371C5.17696 2.71371 5.07696 2.41371 5.07696 2.11371C5.07696 1.21371 5.57696 0.413713 6.47696 0.113713C7.57696 -0.286287 8.77696 0.413711 9.07696 1.51371C9.37696 2.51371 8.67696 3.61371 7.67696 3.91371C7.47696 3.91371 7.37696 4.01371 7.17696 4.01371C6.77696 4.01371 6.37696 4.31371 6.37696 4.81371C6.37696 5.21371 6.67696 5.61371 7.07696 5.71371C7.27696 5.71371 7.37696 5.71371 7.57696 5.71371C8.57696 5.91371 9.37696 6.81371 9.27696 7.81371C9.17696 8.71371 8.57696 9.41371 7.67696 9.61371C6.67696 9.81371 5.67696 9.31371 5.27696 8.31371C5.07696 7.81371 5.17696 7.21371 5.37696 6.71371C5.47696 6.51371 5.57696 6.31371 5.47696 6.11371C5.37696 5.81371 5.17696 5.51371 4.77696 5.41371C4.47696 5.31371 4.07696 5.51371 3.87696 5.81371C3.77696 6.01371 3.57696 6.21371 3.37696 6.41371C2.27696 7.41371 0.476963 6.81371 0.0769631 5.41371C-0.223037 4.31371 0.376965 3.21371 1.47696 3.01371C1.57696 3.01371 1.67696 3.01371 1.77696 2.91371C1.97696 2.81371 2.07696 2.81371 2.17696 2.81371Z" transform="translate(37.9219 16.0863)" fill="#4DD6BC"/>
<path d="M21.125 48.825C20.425 49.525 19.225 49.525 18.525 48.825L0.524999 31.125C-0.175001 30.425 -0.175001 29.225 0.524999 28.525L28.225 0.525002C28.925 -0.174998 30.125 -0.174998 30.825 0.525002L48.825 18.225C49.525 18.925 49.525 20.125 48.825 20.825L21.125 48.825Z" transform="translate(45.2744 21.875)" fill="#7CC4B3"/>
<path d="M1.92726 1.45668C1.92726 1.45668 2.62725 1.15668 3.12725 1.65668C3.62725 2.15668 3.22725 3.25668 2.12725 3.35668C1.32725 3.45668 0.527251 3.25668 0.227251 3.15668C0.127251 2.75668 -0.0727458 2.05668 0.0272542 1.25668C0.127254 0.156677 1.12725 -0.343323 1.72725 0.256677C2.12725 0.756677 1.92726 1.45668 1.92726 1.45668Z" transform="translate(73.4717 24.7433)" fill="#009377"/>
<path d="M18.4857 47.3857C17.6857 47.9857 16.4857 47.8857 15.8857 47.0857L0.385714 27.1857C-0.214286 26.3857 -0.114286 25.1857 0.685714 24.5857L31.7857 0.385715C32.5857 -0.214285 33.7857 -0.114286 34.3857 0.685714L49.8857 20.5857C50.4857 21.3857 50.3857 22.5857 49.5857 23.1857L18.4857 47.3857Z" transform="translate(48.6133 25.3143)" fill="#A2DDD2"/>
<path d="M12 8.41355C11.6 8.01355 11.2 7.61354 10.7 7.41355C11.7 7.61354 12.9 7.41355 13.8 6.71355C15.5 5.41355 15.8 3.01355 14.5 1.41355C13.2 -0.186455 10.8 -0.486453 9.2 0.813547C8.3 1.51355 7.8 2.51355 7.7 3.61355C7.6 3.11355 7.4 2.61355 7 2.11355C5.7 0.513546 3.3 0.213548 1.7 1.51355C-1.54972e-06 2.81355 -0.299998 5.21355 1 6.81355C2.1 8.11355 3.9 8.51355 5.4 7.91355C4.2 8.61355 1.4 10.1135 1.52588e-06 10.5135L2.1 13.2135C2.8 11.9135 4.9 9.61355 5.9 8.61355C4.9 9.91355 4.9 11.8135 5.9 13.1136C7.2 14.7136 9.6 15.0135 11.2 13.7135C12.9 12.4135 13.2 10.0135 12 8.41355Z" transform="translate(66.8994 41.6865)" fill="black"/>
<path d="M3 2.05464C2.9 1.95464 2.8 1.85464 2.7 1.85464C3 1.85464 3.2 1.85464 3.4 1.65464C3.8 1.35464 3.9 0.754639 3.6 0.354639C3.3 -0.045361 2.7 -0.145359 2.3 0.254641C2.1 0.454641 2 0.654641 1.9 0.954641C1.9 0.854641 1.8 0.75464 1.7 0.55464C1.4 0.15464 0.799999 0.0546413 0.399998 0.454641C-1.51992e-06 0.754641 -0.0999985 1.35464 0.200002 1.75464C0.500002 2.05464 0.9 2.15464 1.3 2.05464C1 2.25464 0.299997 2.55464 -3.05176e-06 2.65464L0.499997 3.35464C0.699997 3.05464 1.2 2.45464 1.4 2.25464C1.2 2.55464 1.2 3.05464 1.4 3.35464C1.7 3.75464 2.3 3.85464 2.7 3.45464C3.2 3.05464 3.3 2.45464 3 2.05464Z" transform="translate(79.1992 28.9454)" fill="#004235"/>
<path d="M14.6178 44.3178C13.7178 44.8178 12.6178 44.4178 12.1178 43.5178L0.217816 21.3178C-0.282184 20.4178 0.117815 19.3178 1.01782 18.8178L35.7178 0.217815C36.6178 -0.282185 37.7178 0.117815 38.2178 1.01781L50.1178 23.2178C50.6178 24.1178 50.2178 25.2178 49.3178 25.7178L14.6178 44.3178Z" transform="translate(50.4814 30.7822)" fill="#C1EAE2"/>
<path d="M16.9 1.5C16.9 1.5 13.8 6.5 11.7 12.1C5.9 10.7 3.05176e-06 10.6 3.05176e-06 10.6C3.05176e-06 10.6 3.1 5.6 5.2 7.62939e-07C11.1 1.4 16.9 1.5 16.9 1.5Z" transform="translate(67.7998 47.2)" fill="#CB2228"/>
<path d="M4.2 0.4C4.2 0.4 3.4 1.6 2.9 3.1C1.4 2.7 -1.52588e-06 2.7 -1.52588e-06 2.7C-1.52588e-06 2.7 0.800002 1.5 1.3 -1.52588e-06C2.7 0.399998 4.2 0.4 4.2 0.4Z" transform="translate(83.5996 34.6)" fill="#009377"/>
<path d="M11.4381 41.1381C10.4381 41.5381 9.43808 41.0381 9.03808 40.0381L0.138083 16.4381C-0.261917 15.4381 0.238081 14.4381 1.23808 14.0381L38.0381 0.138084C39.0381 -0.261916 40.0381 0.238086 40.4381 1.23809L49.3381 24.8381C49.7381 25.8381 49.2381 26.8381 48.2381 27.2381L11.4381 41.1381Z" transform="translate(52.4609 36.1619)" fill="#F8FFFE"/>
<path d="M0.9 0.937951C0.6 1.73795 0.499998 2.13795 -1.52588e-06 2.73795C0.799998 2.83795 1.2 3.03795 1.9 3.43795C3 4.13795 3.8 3.23795 3.5 2.43795C3.4 1.93795 2.9 1.83795 2.7 1.73795C3 1.63795 3.5 1.53795 3.8 1.63795L3.6 1.03795C3.4 1.23795 3 1.53795 2.7 1.63795C2.9 1.43795 3.1 1.03795 2.9 0.637948C2.5 -0.162052 1.3 -0.362049 0.9 0.937951Z" transform="translate(62.5996 70.3621)" fill="#004235"/>
<path d="M12.3 11.7754C13.4 8.47539 13.9 6.67539 16.2 4.07539C12.7 3.67539 11.2 2.77539 8.2 0.975393C3.5 -1.82461 0.100002 1.97539 1.1 5.17539C1.7 7.17539 3.6 7.87539 4.6 8.07539C3.4 8.37539 1.1 8.77539 3.05176e-06 8.67539L1 11.3754C1.8 10.5754 3.8 9.37539 4.9 8.77539C4.2 9.67539 3.3 11.3754 4.1 13.2754C5.6 16.3754 10.7 17.0754 12.3 11.7754Z" transform="translate(70.7998 49.8246)" fill="#004235"/>
<path d="M2.9 2.75159C3.2 1.95159 3.3 1.55159 3.8 0.951587C3 0.851587 2.6 0.651587 1.9 0.251587C0.800003 -0.448413 -3.06964e-06 0.451587 0.299997 1.25159C0.399997 1.75159 0.9 1.85159 1.1 1.95159C0.8 2.05159 0.300002 2.15159 1.52588e-06 2.05159L0.199998 2.65159C0.399998 2.45159 0.8 2.15159 1.1 2.05159C0.9 2.25159 0.700003 2.65159 0.900003 3.05159C1.4 3.75159 2.5 3.95159 2.9 2.75159Z" transform="translate(87.8994 40.0484)" fill="#004235"/>
<path d="M27.5 1.52588e-06C12.3 1.52588e-06 -7.62939e-07 12.3 -7.62939e-07 27.5C-7.62939e-07 42.7 12.3 55 27.5 55C42.7 55 55 42.7 55 27.5C55 12.3 42.6 1.52588e-06 27.5 1.52588e-06ZM5 27.5C5 15.1 15.1 5 27.5 5C33 5 38.1 7 42 10.4L10.3 42C7 38.1 5 33 5 27.5ZM27.5 50C22.4 50 17.8 48.3 14 45.5L45.5 14C48.3 17.8 50 22.4 50 27.5C50 39.9 39.9 50 27.5 50Z" transform="translate(26.7998 34.9)" fill="#00705A"/>
<path d="M44.1 55H3.8147e-07V-3.05176e-06H29.3L44.1 14.8V55Z" transform="translate(7.59961 51.2)" fill="#F8FFFE"/>
<path d="M14.8 14.8H1.52588e-06V-3.05176e-06L14.8 14.8Z" transform="translate(36.8994 51.2)" fill="#C1EAE2"/>
<path d="M11.4 2.2H0.600002C0.300002 2.2 -7.62939e-07 1.7 -7.62939e-07 1.1C-7.62939e-07 0.5 0.300002 1.52588e-06 0.600002 1.52588e-06H11.4C11.7 1.52588e-06 12 0.5 12 1.1C12 1.7 11.7 2.2 11.4 2.2Z" transform="translate(36.2998 78.9)" fill="#C1EAE2"/>
<path d="M11.4 2.2H0.600002C0.300002 2.2 -7.62939e-07 1.7 -7.62939e-07 1.1C-7.62939e-07 0.499998 0.300002 0 0.600002 0H11.4C11.7 0 12 0.499998 12 1.1C12 1.7 11.7 2.2 11.4 2.2Z" transform="translate(36.2998 74.4999)" fill="#C1EAE2"/>
<path d="M11.4 2.2H0.600002C0.300002 2.2 -7.62939e-07 1.7 -7.62939e-07 1.1C-7.62939e-07 0.499997 0.300002 -1.52588e-06 0.600002 -1.52588e-06H11.4C11.7 -1.52588e-06 12 0.499997 12 1.1C12 1.7 11.7 2.2 11.4 2.2Z" transform="translate(36.2998 69.1)" fill="#C1EAE2"/>
<path d="M11.4 2.2H0.600002C0.300002 2.2 -7.62939e-07 1.7 -7.62939e-07 1.1C-7.62939e-07 0.5 0.300002 1.52588e-06 0.600002 1.52588e-06H11.4C11.7 1.52588e-06 12 0.5 12 1.1C12 1.7 11.7 2.2 11.4 2.2Z" transform="translate(36.2998 83.9)" fill="#C1EAE2"/>
<path d="M11.4 2.2H0.600002C0.300002 2.2 -7.62939e-07 1.7 -7.62939e-07 1.1C-7.62939e-07 0.5 0.300002 1.52588e-06 0.600002 1.52588e-06H11.4C11.7 1.52588e-06 12 0.5 12 1.1C12 1.7 11.7 2.2 11.4 2.2Z" transform="translate(36.2998 88.9)" fill="#C1EAE2"/>
<path d="M11.4 2.2H0.600002C0.300002 2.2 -7.62939e-07 1.7 -7.62939e-07 1.1C-7.62939e-07 0.5 0.300002 1.52588e-06 0.600002 1.52588e-06H11.4C11.7 1.52588e-06 12 0.5 12 1.1C12 1.7 11.7 2.2 11.4 2.2Z" transform="translate(36.2998 97.9)" fill="#C1EAE2"/>
<path d="M11.4 2.2H0.600002C0.300002 2.2 -7.62939e-07 1.7 -7.62939e-07 1.1C-7.62939e-07 0.5 0.300002 1.52588e-06 0.600002 1.52588e-06H11.4C11.7 1.52588e-06 12 0.5 12 1.1C12 1.7 11.7 2.2 11.4 2.2Z" transform="translate(36.2998 93.4)" fill="#C1EAE2"/>
<path d="M-3.8147e-07 9.2C-3.8147e-07 9.2 0.4 4.7 1.7 4.7C2.7 4.7 2.7 6.2 3.9 6.2C5.1 6.2 5.5 2.6 7.4 2.6C8.7 2.6 8.7 4.5 10.2 4.5C12.2 4.5 11.5 -1.52588e-06 14 -1.52588e-06C16.1 -1.52588e-06 15.5 4.8 18.4 4.8C20.5 4.8 21 9.2 21 9.2H-3.8147e-07Z" transform="translate(11.3994 56.6)" fill="url(#paint0_linear)"/>
<path d="M8.3 16.6C12.884 16.6 16.6 12.884 16.6 8.3C16.6 3.71604 12.884 0 8.3 0C3.71604 0 0 3.71604 0 8.3C0 12.884 3.71604 16.6 8.3 16.6Z" transform="translate(13.0996 76.6)" fill="#C1EAE2"/>
<path d="M16.5 8.3H8.2L0.199999 10.3C-7.59959e-07 9.7 3.8147e-07 9 3.8147e-07 8.3C3.8147e-07 3.7 3.7 -1.52588e-06 8.3 -1.52588e-06C12.9 -1.52588e-06 16.5 3.8 16.5 8.3Z" transform="translate(13.0996 76.6)" fill="#7CC4B3"/>
<path d="M8.3 8.3C8.3 9.6 8 10.9 7.4 12L-7.62939e-07 8.3V-1.52588e-06C4.6 0.0999985 8.3 3.8 8.3 8.3Z" transform="translate(21.2998 76.6)" fill="#A2DDD2"/>
<path d="M19.3 2.2H1.1C0.5 2.2 -3.8147e-07 1.7 -3.8147e-07 1.1C-3.8147e-07 0.5 0.5 1.52588e-06 1.1 1.52588e-06H19.3C19.9 1.52588e-06 20.4 0.5 20.4 1.1C20.4 1.7 19.9 2.2 19.3 2.2Z" transform="translate(11.3994 97.9)" fill="#C1EAE2"/>
<path d="M19.3 2.2H1.1C0.5 2.2 -3.8147e-07 1.7 -3.8147e-07 1.1C-3.8147e-07 0.499998 0.5 0 1.1 0H19.3C19.9 0 20.4 0.499998 20.4 1.1C20.5 1.7 19.9 2.2 19.3 2.2Z" transform="translate(11.3994 68.9999)" fill="#C1EAE2"/>
<path d="M7 14C10.866 14 14 10.866 14 7C14 3.13401 10.866 3.05176e-06 7 3.05176e-06C3.13401 3.05176e-06 0 3.13401 0 7C0 10.866 3.13401 14 7 14Z" transform="translate(58.5996 80.3)" fill="#CCF2EA"/>
<path opacity="0.45" d="M6.2 12.4C9.62417 12.4 12.4 9.62417 12.4 6.2C12.4 2.77584 9.62417 0 6.2 0C2.77583 0 3.05176e-06 2.77584 3.05176e-06 6.2C3.05176e-06 9.62417 2.77583 12.4 6.2 12.4Z" transform="translate(59.2998 81.1)" fill="white"/>
<path d="M5 10C7.76142 10 10 7.76143 10 5C10 2.23858 7.76142 3.05176e-06 5 3.05176e-06C2.23858 3.05176e-06 0 2.23858 0 5C0 7.76143 2.23858 10 5 10Z" transform="translate(60.5 82.3)" fill="white"/>
<defs>
<linearGradient id="paint0_linear" x2="1" gradientUnits="userSpaceOnUse" gradientTransform="translate(16.4585 0.12) scale(12.0145) rotate(90)">
<stop stop-color="#C0F9EB"/>
<stop offset="1" stop-color="#009377"/>
</linearGradient>
</defs>
</svg>
