<svg width="104" height="112" viewBox="0 0 104 112" fill="none" xmlns="http://www.w3.org/2000/svg">
<path d="M2.3 4.6C3.57025 4.6 4.6 3.57025 4.6 2.3C4.6 1.02974 3.57025 3.05176e-06 2.3 3.05176e-06C1.02974 3.05176e-06 0 1.02974 0 2.3C0 3.57025 1.02974 4.6 2.3 4.6Z" transform="translate(37.7002 104.3)" fill="#8BEAD8"/>
<path d="M2.3 4.6C3.57025 4.6 4.6 3.57025 4.6 2.3C4.6 1.02974 3.57025 0 2.3 0C1.02974 0 0 1.02974 0 2.3C0 3.57025 1.02974 4.6 2.3 4.6Z" transform="translate(45.3999 100.4)" fill="#8BEAD8"/>
<path d="M2.3 4.6C3.57026 4.6 4.6 3.57025 4.6 2.3C4.6 1.02974 3.57026 0 2.3 0C1.02975 0 0 1.02974 0 2.3C0 3.57025 1.02975 4.6 2.3 4.6Z" transform="translate(34.1001 28)" fill="#8BEAD8"/>
<path d="M2.3 4.6C3.57026 4.6 4.6 3.57026 4.6 2.3C4.6 1.02975 3.57026 0 2.3 0C1.02975 0 0 1.02975 0 2.3C0 3.57026 1.02975 4.6 2.3 4.6Z" transform="translate(31.3999 0.5)" fill="#8BEAD8"/>
<path d="M7 14C10.866 14 14 10.866 14 7C14 3.13401 10.866 0 7 0C3.13401 0 0 3.13401 0 7C0 10.866 3.13401 14 7 14Z" transform="translate(20.3999 9.5)" fill="#CCF2EA"/>
<path opacity="0.45" d="M6.2 12.4C9.62417 12.4 12.4 9.62417 12.4 6.2C12.4 2.77583 9.62417 0 6.2 0C2.77584 0 0 2.77583 0 6.2C0 9.62417 2.77584 12.4 6.2 12.4Z" transform="translate(21.2002 10.3)" fill="white"/>
<path d="M5 10C7.76143 10 10 7.76142 10 5C10 2.23858 7.76143 0 5 0C2.23858 0 0 2.23858 0 5C0 7.76142 2.23858 10 5 10Z" transform="translate(22.3999 11.5)" fill="white"/>
<path d="M7 14C10.866 14 14 10.866 14 7C14 3.13401 10.866 0 7 0C3.13401 0 0 3.13401 0 7C0 10.866 3.13401 14 7 14Z" transform="translate(54.0996 88.1)" fill="#CCF2EA"/>
<path opacity="0.45" d="M6.2 12.4C9.62416 12.4 12.4 9.62416 12.4 6.2C12.4 2.77583 9.62416 0 6.2 0C2.77583 0 0 2.77583 0 6.2C0 9.62416 2.77583 12.4 6.2 12.4Z" transform="translate(54.8999 88.9)" fill="white"/>
<path d="M5 10C7.76142 10 10 7.76142 10 5C10 2.23857 7.76142 0 5 0C2.23857 0 0 2.23857 0 5C0 7.76142 2.23857 10 5 10Z" transform="translate(56.0996 90.1)" fill="white"/>
<g opacity="0.45">
<path d="M11.5 23C17.8513 23 23 17.8513 23 11.5C23 5.14873 17.8513 0 11.5 0C5.14873 0 0 5.14873 0 11.5C0 17.8513 5.14873 23 11.5 23Z" transform="translate(10.7002 88.4)" fill="#9EEFDF"/>
<path opacity="0.45" d="M9.8 19.6C15.2124 19.6 19.6 15.2124 19.6 9.8C19.6 4.38761 15.2124 0 9.8 0C4.38761 0 0 4.38761 0 9.8C0 15.2124 4.38761 19.6 9.8 19.6Z" transform="translate(12.3999 90.1)" fill="white"/>
<path d="M9.1 18.2C14.1258 18.2 18.2 14.1258 18.2 9.1C18.2 4.07421 14.1258 3.05176e-06 9.1 3.05176e-06C4.07421 3.05176e-06 0 4.07421 0 9.1C0 14.1258 4.07421 18.2 9.1 18.2Z" transform="translate(13.1001 90.8)" fill="white"/>
</g>
<path d="M2.17696 2.81371C2.87696 2.81371 3.47696 3.11371 3.87696 3.81371C4.17696 4.31371 4.77696 4.41371 5.17696 4.01371C5.47696 3.71371 5.57696 3.31371 5.37696 3.01371C5.17696 2.71371 5.07696 2.41372 5.07696 2.11372C5.07696 1.21372 5.57696 0.413715 6.47696 0.113715C7.57696 -0.286285 8.77696 0.413709 9.07696 1.51371C9.37696 2.51371 8.67696 3.61371 7.67696 3.91371C7.47696 3.91371 7.37696 4.01371 7.17696 4.01371C6.77696 4.01371 6.37696 4.31371 6.37696 4.81371C6.37696 5.21371 6.67696 5.61371 7.07696 5.71371C7.27696 5.71371 7.37696 5.71371 7.57696 5.71371C8.57696 5.91371 9.37696 6.81371 9.27696 7.81371C9.17696 8.71371 8.57696 9.41372 7.67696 9.61372C6.67696 9.81371 5.67696 9.31371 5.27696 8.31371C5.07696 7.81371 5.17696 7.21371 5.37696 6.71371C5.47696 6.51371 5.57696 6.31371 5.47696 6.11372C5.37696 5.81371 5.17696 5.51371 4.77696 5.41371C4.47696 5.31371 4.07696 5.51371 3.87696 5.81371C3.77696 6.01371 3.57696 6.21371 3.37696 6.41371C2.27696 7.41371 0.476964 6.81371 0.0769638 5.41371C-0.223036 4.31371 0.376962 3.21371 1.47696 3.01371C1.57696 3.01371 1.67696 3.01371 1.77696 2.91371C1.97696 2.81371 2.07696 2.81371 2.17696 2.81371Z" transform="translate(17.1226 95.1863)" fill="#1ABC9C"/>
<path d="M2.17696 2.81371C2.87696 2.81371 3.47696 3.11371 3.87696 3.81371C4.17696 4.31371 4.77696 4.41371 5.17696 4.01371C5.47696 3.71371 5.57696 3.31371 5.37696 3.01371C5.17696 2.71371 5.07696 2.41372 5.07696 2.11372C5.07696 1.21372 5.57696 0.413715 6.47696 0.113715C7.57696 -0.286285 8.77696 0.413709 9.07696 1.51371C9.37696 2.51371 8.67696 3.61371 7.67696 3.91371C7.47696 3.91371 7.37696 4.01371 7.17696 4.01371C6.77696 4.01371 6.37696 4.31371 6.37696 4.81371C6.37696 5.21371 6.67696 5.61371 7.07696 5.71371C7.27696 5.71371 7.37696 5.71371 7.57696 5.71371C8.57696 5.91371 9.37696 6.81371 9.27696 7.81371C9.17696 8.71371 8.57696 9.41372 7.67696 9.61372C6.67696 9.81371 5.67696 9.31371 5.27696 8.31371C5.07696 7.81371 5.17696 7.21371 5.37696 6.71371C5.47696 6.51371 5.57696 6.31371 5.47696 6.11372C5.37696 5.81371 5.17696 5.51371 4.77696 5.41371C4.47696 5.31371 4.07696 5.51371 3.87696 5.81371C3.77696 6.01371 3.57696 6.21371 3.37696 6.41371C2.27696 7.41371 0.476962 6.81371 0.0769623 5.41371C-0.223038 4.31371 0.376964 3.21371 1.47696 3.01371C1.57696 3.01371 1.67696 3.01371 1.77696 2.91371C2.07696 2.81371 2.07696 2.81371 2.17696 2.81371Z" transform="translate(16.7227 95.1863)" fill="#4DD6BC"/>
<path d="M16.2 32.4C25.147 32.4 32.4 25.147 32.4 16.2C32.4 7.25299 25.147 0 16.2 0C7.25299 0 0 7.25299 0 16.2C0 25.147 7.25299 32.4 16.2 32.4Z" transform="translate(0.700195 27.1)" fill="#76D6BD"/>
<path opacity="0.45" d="M14 28C21.732 28 28 21.732 28 14C28 6.26801 21.732 0 14 0C6.26802 0 0 6.26801 0 14C0 21.732 6.26802 28 14 28Z" transform="translate(2.90039 29.3)" fill="white"/>
<path d="M13.1 26.2C20.3349 26.2 26.2 20.3349 26.2 13.1C26.2 5.86507 20.3349 0 13.1 0C5.86507 0 0 5.86507 0 13.1C0 20.3349 5.86507 26.2 13.1 26.2Z" transform="translate(3.7998 30.2)" fill="white"/>
<path d="M5.7 10L-1.52588e-06 9.6L0.4 0L5.7 10Z" transform="translate(12.6001 36)" fill="#8BEAD8"/>
<path d="M-1.52588e-06 0L8.2 5.1L5.2 10L-1.52588e-06 0Z" transform="translate(13.1001 36)" fill="#CEF4EC"/>
<path d="M5.7 0.399999L-1.52588e-06 1.52588e-06L7.6 4L5.7 0.399999ZM-1.52588e-06 0.1L7.6 4.1L5.7 0.500002" transform="translate(13.1001 46.4)" fill="#4DD6BC"/>
<path d="M-7.62939e-07 4.9L1.9 8.5L2.9 1.52588e-06L-7.62939e-07 4.9Z" transform="translate(18.7998 41.9)" fill="#1ABC9C"/>
<path d="M42.1 56.1H2C0.900001 56.1 7.62939e-07 55.2 7.62939e-07 54.1V2C7.62939e-07 0.9 0.900001 0 2 0H42.1C43.2 0 44.1 0.9 44.1 2V54.1C44.1 55.2 43.2 56.1 42.1 56.1Z" transform="translate(18.2002 41.5)" fill="#C1EAE2"/>
<path d="M34.7 0H0V48.3H34.7V0Z" transform="translate(23 45)" fill="#F8FFFE"/>
<path d="M8.3 16.6C12.884 16.6 16.6 12.884 16.6 8.3C16.6 3.71603 12.884 0 8.3 0C3.71603 0 0 3.71603 0 8.3C0 12.884 3.71603 16.6 8.3 16.6Z" transform="translate(26.7998 73.9)" fill="#C1EAE2"/>
<path d="M16.5 8.3H8.2L0.199998 10.3C-1.53482e-06 9.7 1.52588e-06 9 1.52588e-06 8.3C1.52588e-06 3.7 3.7 1.52588e-06 8.3 1.52588e-06C12.9 1.52588e-06 16.5 3.7 16.5 8.3Z" transform="translate(26.8999 73.9)" fill="#7CC4B3"/>
<path d="M8.3 8.3C8.3 9.6 8 10.9 7.4 12L-1.52588e-06 8.3V1.52588e-06C4.6 1.52588e-06 8.3 3.7 8.3 8.3Z" transform="translate(35.0996 73.9)" fill="#A2DDD2"/>
<path d="M7.6 2.2H0.399998C0.199998 2.2 -3.05176e-06 1.7 -3.05176e-06 1.1C-3.05176e-06 0.499997 0.199998 -1.52588e-06 0.399998 -1.52588e-06H7.6C7.8 -1.52588e-06 8 0.499997 8 1.1C8 1.7 7.8 2.2 7.6 2.2Z" transform="translate(46.2002 76.6)" fill="#C1EAE2"/>
<path d="M7.6 2.2H0.399998C0.199998 2.2 -3.05176e-06 1.7 -3.05176e-06 1.1C-3.05176e-06 0.499997 0.199998 -1.52588e-06 0.399998 -1.52588e-06H7.6C7.8 -1.52588e-06 8 0.499997 8 1.1C8 1.7 7.8 2.2 7.6 2.2Z" transform="translate(46.2002 81.6)" fill="#C1EAE2"/>
<path d="M7.6 2.2H0.399998C0.199998 2.2 -3.05176e-06 1.7 -3.05176e-06 1.1C-3.05176e-06 0.499997 0.199998 -1.52588e-06 0.399998 -1.52588e-06H7.6C7.8 -1.52588e-06 8 0.499997 8 1.1C8 1.7 7.8 2.2 7.6 2.2Z" transform="translate(46.2002 86.6)" fill="#C1EAE2"/>
<path d="M17.6 3.5H13.7C13.7 1.6 12.1 1.52588e-06 10.2 1.52588e-06C8.3 1.52588e-06 6.7 1.6 6.7 3.5H2.7C1.2 3.5 -7.62939e-07 4.7 -7.62939e-07 6.2V7.6H19.9V5.9C19.9 4.6 18.9 3.5 17.6 3.5Z" transform="translate(30.2998 39.4)" fill="#7CC4B3"/>
<path opacity="0.54" d="M-7.62939e-07 14C-7.62939e-07 14 0.499999 6.6 2.3 6.6C3.7 6.6 3.7 8.6 5.3 8.6C7 8.6 7.5 3.6 10.1 3.6C11.9 3.6 11.9 6.2 14 6.2C16.8 6.2 15.8 -1.52588e-06 19.2 -1.52588e-06C22.1 -1.52588e-06 21.3 6.6 25.2 6.6C28.1 6.6 28.8 13.9 28.8 13.9H-7.62939e-07V14Z" transform="translate(26.7998 52.6)" fill="url(#paint0_linear)"/>
<path d="M20.4 40.8C31.6666 40.8 40.8 31.6666 40.8 20.4C40.8 9.13339 31.6666 0 20.4 0C9.13339 0 -3.05176e-06 9.13339 -3.05176e-06 20.4C-3.05176e-06 31.6666 9.13339 40.8 20.4 40.8Z" transform="translate(40.7002 37.2)" fill="#76D6BD"/>
<path opacity="0.45" d="M17.7 35.4C27.4754 35.4 35.4 27.4754 35.4 17.7C35.4 7.92456 27.4754 0 17.7 0C7.92456 0 0 7.92456 0 17.7C0 27.4754 7.92456 35.4 17.7 35.4Z" transform="translate(43.3999 39.9)" fill="white"/>
<path d="M16.5 33C25.6127 33 33 25.6127 33 16.5C33 7.3873 25.6127 0 16.5 0C7.3873 0 0 7.3873 0 16.5C0 25.6127 7.3873 33 16.5 33Z" transform="translate(44.6001 41.1)" fill="white"/>
<path d="M13.4 12.8C13.5 13.5 13.2 14.3 12.5 15.1C11.7 16 10.8 16.5 9.8 16.4C8.9 16.4 7.8 15.9 6.5 15.2L5.2 17.1L3.8 16.2L5.1 14.3L4 13.6L2.7 15.5L1.3 14.6L2.6 12.7L1.52588e-06 10.6L1.4 9.2L1.7 9.4C2.1 9.7 2.4 9.9 2.6 10C2.8 10.1 3 10 3.2 9.8L7.4 3.7C7.5 3.4 7.5 3.1 7.3 2.8C7.2 2.6 6.8 2.4 6.3 2L6.1 1.8L7.1 0.300001L7.9 0.899999C8.9 1.6 9.5 2 9.8 2.2L11.3 1.52588e-06L12.7 0.899999L11.2 3.1L12.3 3.8L13.8 1.6L15.2 2.5L13.6 4.8C14.5 5.5 15.1 6.3 15.4 6.9C15.8 7.7 15.7 8.5 15.3 9.3C14.7 10.5 13.8 11 12.6 10.8C13.1 11.5 13.4 12.1 13.4 12.8ZM8.2 7.4L8.4 7.6C9.2 8.2 9.8 8.5 10.3 8.7C11.2 9 11.8 8.9 12.3 8.3C12.7 7.7 12.6 7 12.1 6.3C11.8 5.9 11.2 5.4 10.4 4.9C10.3 4.8 10.2 4.8 10.1 4.8L8.2 7.4ZM5.5 12C6.4 12.7 7.2 13.1 7.8 13.3C8.8 13.7 9.6 13.5 10 12.9C10.5 12.2 10.3 11.5 9.6 10.7C9.2 10.2 8.5 9.7 7.6 9.1L7.3 8.9L5.3 11.9L5.5 12Z" transform="translate(52.3999 49.4)" fill="#1ABC9C"/>
<path d="M13.4 12.8C13.5 13.5 13.2 14.3 12.5 15.1C11.7 16 10.8 16.5 9.8 16.4C8.9 16.4 7.8 15.9 6.5 15.2L5.2 17.1L3.9 16.1L5.2 14.2L4.1 13.5L2.8 15.4L1.4 14.5L2.7 12.6L-1.52588e-06 10.7L1.4 9.3L1.7 9.5C2.1 9.8 2.4 10 2.6 10.1C2.8 10.2 3 10.1 3.2 9.9L7.4 3.8C7.5 3.5 7.5 3.2 7.3 2.9C7.2 2.7 6.8 2.5 6.3 2.1L6.1 1.8L7.1 0.3L7.9 0.899998C8.9 1.6 9.5 2 9.8 2.2L11.3 7.62939e-07L12.7 0.899998L11.2 3.1L12.3 3.8L13.8 1.6L15.2 2.5L13.7 4.7C14.6 5.4 15.2 6.2 15.5 6.8C15.9 7.6 15.8 8.4 15.4 9.2C14.8 10.4 13.9 10.9 12.7 10.7C13.1 11.5 13.4 12.1 13.4 12.8ZM8.3 7.5L8.5 7.7C9.3 8.3 9.9 8.6 10.4 8.8C11.3 9.1 11.9 9 12.4 8.4C12.8 7.8 12.7 7.1 12.2 6.4C11.9 6 11.3 5.5 10.5 5C10.3 4.8 10.2 4.8 10.1 4.8L8.3 7.5ZM5.5 12C6.4 12.7 7.2 13.1 7.8 13.3C8.8 13.7 9.6 13.5 10 12.9C10.4 12.3 10.3 11.5 9.6 10.7C9.2 10.2 8.5 9.7 7.6 9.1L7.3 8.9L5.3 11.9L5.5 12Z" transform="translate(52.1001 49.2)" fill="#4DD6BC"/>
<path d="M0.900003 0.443509L1.52588e-06 1.44351L17.4 7.54351L19.6 4.94351C19.6 4.94351 4.5 -1.75649 0.900003 0.443509Z" transform="translate(44.3999 72.4565)" fill="#009377"/>
<path d="M0.999998 0.247021L-1.52588e-06 0.947018L17.2 7.74702L19.5 5.24702C19.5 5.34702 3.9 -1.35298 0.999998 0.247021Z" transform="translate(43.6001 71.653)" fill="#18B295"/>
<path d="M48 1.91664C48 1.91664 36.1 1.11664 34.3 0.91664C32.5 0.71664 26.3 -2.08336 21.2 3.21664L16.5 3.81664C16.5 3.81664 11.4 2.31665 10.1 4.51665C10.1 4.51665 2.6 0.816642 0 3.31664C0 3.31664 13.5 9.31664 15 10.7166C15 10.7166 17.5 13.1166 18.7 12.8166C19.9 12.4166 31.1 8.91664 35.7 8.91664L49.3 10.1166L48 1.91664Z" transform="translate(45 68.7834)" fill="#7CC4B3"/>
<path d="M0.118815 3.05176e-06C0.118815 3.05176e-06 -1.58118 3.4 11.5188 2.9L15.0188 1.9L11.7188 3.5C11.8188 3.4 -1.38118 4.3 0.118815 3.05176e-06Z" transform="translate(54.8813 73.3)" fill="#18B295"/>
<path d="M2.90292 0.213114C2.90292 0.213114 3.20292 1.41311 2.40292 2.11311C2.40292 2.11311 -0.0970796 1.91311 0.00292043 0.913111C0.00292043 -0.586889 2.90292 0.213114 2.90292 0.213114Z" transform="translate(55.5972 73.0869)" fill="#A2DDD2"/>
<path d="M-3.05176e-06 1.4L0.600003 12.4L20.1 13L19.8 0L-3.05176e-06 1.4Z" transform="translate(81.2002 67.5)" fill="white"/>
<path d="M0.100003 1.7L-3.05176e-06 15.6L20.1 16.9L19.9 1.52588e-06L0.100003 1.7Z" transform="translate(83.2002 65.9)" fill="#1ABC9C"/>
<path d="M20.1 0.400003L-3.05176e-06 1.52588e-06V3.6L20.1 4.9V0.400003Z" transform="translate(83.2002 77.9)" fill="#009377"/>
<path d="M2.11531 0.9C2.21531 1.5 1.81531 2 1.21531 2.1C0.615311 2.2 0.115314 1.8 0.0153144 1.2C-0.0846856 0.600003 0.315316 0.0999985 0.915316 -1.52588e-06C1.51532 -1.52588e-06 2.01531 0.4 2.11531 0.9Z" transform="translate(85.9844 78.6)" fill="#00705A"/>
<path d="M2.11531 0.899997C2.21531 1.5 1.81531 2 1.21531 2.1C0.615311 2.2 0.115314 1.8 0.0153144 1.2C-0.0846856 0.6 0.315316 0.100003 0.915316 3.05176e-06C1.51532 3.05176e-06 2.01531 0.399997 2.11531 0.899997Z" transform="translate(89.4844 78.8)" fill="#00705A"/>
<defs>
<linearGradient id="paint0_linear" x2="1" gradientUnits="userSpaceOnUse" gradientTransform="translate(23.534 0.302) scale(18.192) rotate(90)">
<stop stop-color="#C0F9EB"/>
<stop offset="1" stop-color="#009377"/>
</linearGradient>
</defs>
</svg>
