<svg width="86" height="103" viewBox="0 0 86 103" fill="none" xmlns="http://www.w3.org/2000/svg">
<path d="M2.3 4.6C3.57025 4.6 4.6 3.57026 4.6 2.3C4.6 1.02975 3.57025 0 2.3 0C1.02974 0 -3.05176e-06 1.02975 -3.05176e-06 2.3C-3.05176e-06 3.57026 1.02974 4.6 2.3 4.6Z" transform="translate(47.2002 28.9)" fill="#8BEAD8"/>
<path d="M2.3 4.6C3.57026 4.6 4.6 3.57025 4.6 2.3C4.6 1.02974 3.57026 0 2.3 0C1.02975 0 0 1.02974 0 2.3C0 3.57025 1.02975 4.6 2.3 4.6Z" transform="translate(51.5 20.6)" fill="#8BEAD8"/>
<path d="M2.3 4.6C3.57026 4.6 4.6 3.57026 4.6 2.3C4.6 1.02975 3.57026 0 2.3 0C1.02975 0 0 1.02975 0 2.3C0 3.57026 1.02975 4.6 2.3 4.6Z" transform="translate(42.1006 0.599976)" fill="#8BEAD8"/>
<path d="M7 14C10.866 14 14 10.866 14 7C14 3.13401 10.866 0 7 0C3.13401 0 0 3.13401 0 7C0 10.866 3.13401 14 7 14Z" transform="translate(4.60059 70.5)" fill="#CCF2EA"/>
<path opacity="0.45" d="M6.2 12.4C9.62417 12.4 12.4 9.62417 12.4 6.2C12.4 2.77583 9.62417 3.05176e-06 6.2 3.05176e-06C2.77583 3.05176e-06 0 2.77583 0 6.2C0 9.62417 2.77583 12.4 6.2 12.4Z" transform="translate(5.30078 71.3)" fill="white"/>
<path d="M5 10C7.76142 10 10 7.76142 10 5C10 2.23858 7.76142 0 5 0C2.23858 0 0 2.23858 0 5C0 7.76142 2.23858 10 5 10Z" transform="translate(6.50098 72.5)" fill="white"/>
<path d="M7 14C10.866 14 14 10.866 14 7C14 3.13401 10.866 0 7 0C3.13401 0 0 3.13401 0 7C0 10.866 3.13401 14 7 14Z" transform="translate(31.1006 15.2)" fill="#CCF2EA"/>
<path opacity="0.45" d="M6.2 12.4C9.62417 12.4 12.4 9.62417 12.4 6.2C12.4 2.77584 9.62417 0 6.2 0C2.77583 0 0 2.77584 0 6.2C0 9.62417 2.77583 12.4 6.2 12.4Z" transform="translate(31.8008 16)" fill="white"/>
<path d="M5 10C7.76142 10 10 7.76143 10 5C10 2.23858 7.76142 0 5 0C2.23858 0 0 2.23858 0 5C0 7.76143 2.23858 10 5 10Z" transform="translate(33 17.2)" fill="white"/>
<path d="M5 3.5H-1.52588e-06L5 -3.05176e-06V3.5Z" transform="translate(14.0996 88.2)" fill="#009377"/>
<path d="M3.05176e-06 3.5H5L3.05176e-06 -3.05176e-06V3.5Z" transform="translate(63.2998 88.2)" fill="#009377"/>
<path d="M44.1 55.1H7.62939e-07V-1.52588e-06H29.3L44.1 14.9V55.1Z" transform="translate(21.7002 38.1)" fill="#A2DDD2"/>
<path d="M14.8 14.8H0V7.62939e-07L14.8 14.8Z" transform="translate(51 38.2)" fill="#7CC4B3"/>
<path d="M20.4 40.8C31.6666 40.8 40.8 31.6666 40.8 20.4C40.8 9.13339 31.6666 0 20.4 0C9.13339 0 3.05176e-06 9.13339 3.05176e-06 20.4C3.05176e-06 31.6666 9.13339 40.8 20.4 40.8Z" transform="translate(44.3008 48.5)" fill="#76D6BD"/>
<path opacity="0.45" d="M17.7 35.4C27.4754 35.4 35.4 27.4754 35.4 17.7C35.4 7.92456 27.4754 0 17.7 0C7.92456 0 0 7.92456 0 17.7C0 27.4754 7.92456 35.4 17.7 35.4Z" transform="translate(47.001 51.2)" fill="white"/>
<path d="M16.5 33C25.6127 33 33 25.6127 33 16.5C33 7.3873 25.6127 0 16.5 0C7.3873 0 -3.05176e-06 7.3873 -3.05176e-06 16.5C-3.05176e-06 25.6127 7.3873 33 16.5 33Z" transform="translate(48.2002 52.4)" fill="white"/>
<path d="M13.4 12.7C13.5 13.4 13.2 14.2 12.5 15C11.7 15.9 10.8 16.4 9.8 16.3C8.9 16.3 7.8 15.8 6.5 15.1L5.2 17L3.8 16.1L5.1 14.2L4.1 13.4L2.8 15.3L1.4 14.4L2.7 12.5L1.52588e-06 10.6L1.4 9.2L1.7 9.4C2.1 9.7 2.4 9.9 2.6 10C2.8 10.1 3 10 3.2 9.8L7.4 3.7C7.5 3.4 7.5 3.1 7.3 2.8C7.2 2.6 6.8 2.4 6.3 2L6.1 1.8L7.1 0.3L7.9 0.899998C8.9 1.6 9.5 2 9.8 2.2L11.3 7.62939e-07L12.7 0.899998L11.2 3.1L12.3 3.8L13.8 1.6L15.2 2.5L13.7 4.7C14.6 5.4 15.2 6.2 15.5 6.8C15.9 7.6 15.8 8.4 15.4 9.2C14.8 10.4 13.9 10.9 12.7 10.7C13.1 11.5 13.4 12.1 13.4 12.7ZM8.3 7.4L8.5 7.6C9.3 8.2 9.9 8.5 10.4 8.7C11.3 9 11.9 8.9 12.4 8.3C12.8 7.7 12.7 7 12.2 6.3C11.9 5.9 11.3 5.4 10.5 4.9C10.4 4.8 10.3 4.8 10.2 4.8L8.3 7.4ZM5.5 12C6.4 12.7 7.2 13.1 7.8 13.3C8.8 13.7 9.6 13.5 10 12.9C10.5 12.2 10.3 11.5 9.6 10.7C9.2 10.2 8.5 9.7 7.6 9.1L7.3 8.9L5.3 11.9L5.5 12Z" transform="translate(55.9004 60.7)" fill="#1ABC9C"/>
<path d="M13.4 12.7C13.5 13.4 13.2 14.2 12.5 15C11.7 15.9 10.8 16.4 9.8 16.3C8.9 16.3 7.8 15.8 6.5 15.1L5.2 17L3.8 16.1L5.1 14.2L4.1 13.4L2.8 15.3L1.4 14.4L2.7 12.5L-3.05176e-06 10.6L1.4 9.2L1.7 9.4C2.1 9.7 2.4 9.9 2.6 10C2.8 10.1 3 10 3.2 9.8L7.4 3.7C7.5 3.4 7.5 3.1 7.3 2.8C7.2 2.6 6.8 2.4 6.3 2L6.1 1.8L7.1 0.300002L7.9 0.9C8.9 1.6 9.5 2 9.8 2.2L11.3 -1.52588e-06L12.7 0.9L11.2 3.1L12.3 3.8L13.8 1.6L15.2 2.5L13.7 4.7C14.6 5.4 15.2 6.2 15.5 6.8C15.9 7.6 15.8 8.4 15.4 9.2C14.8 10.4 13.9 10.9 12.7 10.7C13.1 11.4 13.4 12 13.4 12.7ZM8.2 7.3L8.4 7.5C9.2 8.1 9.8 8.4 10.3 8.6C11.2 8.9 11.8 8.8 12.3 8.2C12.7 7.6 12.6 6.9 12.1 6.2C11.8 5.8 11.2 5.3 10.4 4.8C10.3 4.7 10.2 4.7 10.1 4.7L8.2 7.3ZM5.5 11.9C6.4 12.6 7.2 13 7.8 13.2C8.8 13.6 9.6 13.4 10 12.8C10.4 12.2 10.3 11.4 9.6 10.6C9.2 10.1 8.5 9.6 7.6 9L7.3 8.7L5.3 11.7L5.5 11.9Z" transform="translate(55.7002 60.6)" fill="#4DD6BC"/>
<path d="M44.2 55H-1.52588e-06V1.52588e-06H29.4L44.2 14.8V55Z" transform="translate(19.0996 40.9)" fill="#C1EAE2"/>
<path d="M14.8 14.8H0V1.52588e-06L14.8 14.8Z" transform="translate(48.5 40.9)" fill="#A2DDD2"/>
<path d="M16.2 32.4C25.147 32.4 32.4 25.147 32.4 16.2C32.4 7.25299 25.147 0 16.2 0C7.25299 0 0 7.25299 0 16.2C0 25.147 7.25299 32.4 16.2 32.4Z" transform="translate(0.400391 26.3)" fill="#76D6BD"/>
<path opacity="0.45" d="M14 28C21.732 28 28 21.732 28 14C28 6.26801 21.732 0 14 0C6.26801 0 0 6.26801 0 14C0 21.732 6.26801 28 14 28Z" transform="translate(2.59961 28.5)" fill="white"/>
<path d="M13.1 26.2C20.3349 26.2 26.2 20.3349 26.2 13.1C26.2 5.86507 20.3349 0 13.1 0C5.86507 0 0 5.86507 0 13.1C0 20.3349 5.86507 26.2 13.1 26.2Z" transform="translate(3.5 29.4)" fill="white"/>
<path d="M5.7 10L1.52588e-06 9.6L0.399999 -7.62939e-07L5.7 10Z" transform="translate(12.4004 35.3)" fill="#8BEAD8"/>
<path d="M-7.62939e-07 -7.62939e-07L8.2 5.1L5.3 10L-7.62939e-07 -7.62939e-07Z" transform="translate(12.7998 35.3)" fill="#CEF4EC"/>
<path d="M5.7 0.399998L-7.62939e-07 7.62939e-07L7.6 4L5.7 0.399998ZM-7.62939e-07 7.62939e-07L7.6 4L5.7 0.399998" transform="translate(12.7998 45.7)" fill="#4DD6BC"/>
<path d="M0 4.9L1.9 8.5L2.9 7.62939e-07L0 4.9Z" transform="translate(18.5 41.2)" fill="#1ABC9C"/>
<path d="M44.1 55.1H0V7.62939e-07H29.4L44.1 14.9V55.1Z" transform="translate(16 43.7)" fill="#F8FFFE"/>
<path d="M14.7 14.8H1.52588e-06V-7.62939e-07L14.7 14.8Z" transform="translate(45.4004 43.8)" fill="#C1EAE2"/>
<path d="M11.4 2.2H0.600003C0.300003 2.2 -3.05176e-06 1.7 -3.05176e-06 1.1C-3.05176e-06 0.5 0.300003 1.52588e-06 0.600003 1.52588e-06H11.4C11.7 1.52588e-06 12 0.5 12 1.1C12 1.7 11.7 2.2 11.4 2.2Z" transform="translate(44.7002 71.4)" fill="#C1EAE2"/>
<path d="M11.4 2.2H0.600003C0.300003 2.2 -3.05176e-06 1.7 -3.05176e-06 1.1C-3.05176e-06 0.5 0.300003 1.52588e-06 0.600003 1.52588e-06H11.4C11.7 1.52588e-06 12 0.5 12 1.1C12 1.7 11.7 2.2 11.4 2.2Z" transform="translate(44.7002 76.4)" fill="#C1EAE2"/>
<path d="M11.4 2.2H0.600003C0.300003 2.2 -3.05176e-06 1.7 -3.05176e-06 1.1C-3.05176e-06 0.5 0.300003 1.52588e-06 0.600003 1.52588e-06H11.4C11.7 1.52588e-06 12 0.5 12 1.1C12 1.7 11.7 2.2 11.4 2.2Z" transform="translate(44.7002 81.4)" fill="#C1EAE2"/>
<path d="M8.3 16.6C12.884 16.6 16.6 12.884 16.6 8.3C16.6 3.71604 12.884 -3.05176e-06 8.3 -3.05176e-06C3.71604 -3.05176e-06 0 3.71604 0 8.3C0 12.884 3.71604 16.6 8.3 16.6Z" transform="translate(22.4004 69.2)" fill="#C1EAE2"/>
<path d="M16.5 8.3H8.2L0.199998 10.3C-1.53482e-06 9.7 1.52588e-06 9 1.52588e-06 8.3C1.52588e-06 3.7 3.7 -3.05176e-06 8.3 -3.05176e-06C12.9 -3.05176e-06 16.5 3.7 16.5 8.3Z" transform="translate(22.4004 69.2)" fill="#7CC4B3"/>
<path d="M8.3 8.3C8.3 9.6 8 10.9 7.4 12L-1.52588e-06 8.3V-3.05176e-06C4.6 -3.05176e-06 8.3 3.7 8.3 8.3Z" transform="translate(30.5996 69.2)" fill="#A2DDD2"/>
<path d="M-7.62939e-07 11.1C-7.62939e-07 11.1 0.399999 5.2 1.8 5.2C2.9 5.2 2.9 6.8 4.2 6.8C5.6 6.8 6 2.8 8.1 2.8C9.5 2.8 9.5 4.9 11.2 4.9C13.4 4.9 12.6 1.52588e-06 15.3 1.52588e-06C17.6 1.52588e-06 17 5.2 20.1 5.2C22.4 5.2 23 11 23 11H-7.62939e-07V11.1Z" transform="translate(19.7998 51.4)" fill="url(#paint0_linear)"/>
<path d="M33 0.199997C33 3.6 30.5 6.1 27.1 6.1C23.7 6.1 20.9 3.4 20.9 0H0.6L1.52588e-06 11H53.9L53.5 0H33.3L33 0.199997Z" transform="translate(14.4004 91.5)" fill="#009377"/>
<path d="M33.3 -3.05176e-06C33.3 3.4 30.5 6.1 27.1 6.1C23.7 6.1 20.9 3.4 20.9 -3.05176e-06H-1.52588e-06V11H54.2V-3.05176e-06H33.3Z" transform="translate(14.0996 91.7)" fill="#1ABC9C"/>
<path d="M3.8 2.8C3.8 3.4 3.6 3.8 3.3 4.2C3 4.6 2.5 4.7 1.9 4.7C1.3 4.7 0.9 4.6 0.6 4.3C0.3 4 1.52588e-06 3 1.52588e-06 3L0.199998 2.8L1.4 2.6C1.4 2.8 1.4 2.9 1.4 3C1.4 3.3 1.4 3.4 1.6 3.6C1.7 3.7 1.9 3.8 2.1 3.8C2.3 3.8 2.5 3.7 2.6 3.6C2.7 3.4 2.8 3.2 2.8 2.8L2.6 0.200003L2.8 -1.52588e-06H4V2.8H3.8Z" transform="translate(18.4004 95.1)" fill="#005444"/>
<path d="M3.1 3.7H1.5L1.2 4.7L0.999998 4.9L-1.52588e-06 4.7L1.4 0.199997L1.6 0H3L4.6 4.6L4.4 4.9L3.1 3.7ZM2.8 2.9L2.5 1.8L2.3 1L2.1 1.7L1.7 2.8H2.8V2.9Z" transform="translate(22.6006 95)" fill="#005444"/>
<path d="M4.3 4.8L4.1 5L3 4.8L1.6 2.3L1.3 1.6V2.5V4.8L0.999998 5L0.199999 4.8L-1.52588e-06 0.299997L0.199999 0.1H1.5L2.9 2.6L3.2 3.3V2.4L3 0.199998L3.2 1.52588e-06H4.3V4.8Z" transform="translate(27.6006 94.9)" fill="#005444"/>
<path d="M3.6 2.7C3.6 3.3 3.4 3.7 3.1 4.1C2.8 4.5 2.3 4.6 1.7 4.6C1.1 4.6 0.699999 4.5 0.399999 4.2C0.0999992 3.9 1.52588e-06 3.6 1.52588e-06 3.1C1.52588e-06 3 1.52588e-06 2.8 1.52588e-06 2.7L1.2 2.5C1.2 2.7 1.2 2.8 1.2 2.9C1.2 3.2 1.2 3.3 1.4 3.5C1.5 3.6 1.7 3.7 1.9 3.7C2.1 3.7 2.3 3.6 2.4 3.5C2.5 3.3 2.6 3.1 2.6 2.7V1.52588e-06H3.6V2.7Z" transform="translate(18.4004 95.4)" fill="#007A63"/>
<path d="M3.1 3.6H1.5L1.2 4.6H-7.62939e-07L1.6 -3.05176e-06H3L4.6 4.6H3.4L3.1 3.6ZM2.9 2.8L2.6 1.7L2.4 0.999997L2.2 1.7L1.8 2.8H2.9Z" transform="translate(22.3008 95.2)" fill="#007A63"/>
<path d="M4.1 4.6H2.8L1.4 2.1L1.1 1.4V2.3V4.6H-1.52588e-06V3.05176e-06H1.3L2.7 2.5L3 3.2V2.3V3.05176e-06H4.1V4.6Z" transform="translate(27.6006 95.3)" fill="#007A63"/>
<path d="M5.5 4.6L5.3 4.8L4.5 2.5V1.1L3.4 4.6L3.2 4.8L1.3 1.1V2.5V4.6L1.1 4.8L1.52588e-06 0.200003L0.199998 -1.52588e-06H1.9L2.6 2.4L2.9 3.4L3.6 0.200003L3.8 -1.52588e-06H5.4V4.6H5.5Z" transform="translate(50.4004 95.1)" fill="#005444"/>
<path d="M2.1 3.6H0.5L0.199997 4.6L0 4.8L0.400002 0.200003L0.599998 -1.52588e-06H2L3.6 4.6L3.4 4.8L2.1 3.6ZM1.8 2.8L1.5 1.6L1.3 0.9L1.1 1.6L0.699997 2.7H1.8V2.8Z" transform="translate(57.5 95.1)" fill="#005444"/>
<path d="M2.1 2.9H1.4V4.6L1.2 4.8L0 0.200003L0.199997 -1.52588e-06H2.4C3 -1.52588e-06 3.4 0.1 3.7 0.4C4 0.7 4.2 0.999998 4.2 1.5C4.2 1.8 4.1 2.1 4 2.3C3.9 2.5 3.6 2.7 3.3 2.8L4.5 4.6L4.3 4.8L2.1 2.9ZM1.4 2.1H2.2C2.5 2.1 2.6 2.1 2.8 2C2.9 1.9 3 1.8 3 1.6C3 1.4 2.9 1.3 2.8 1.2C2.7 1.1 2.5 1.1 2.2 1.1H1.4V2.1Z" transform="translate(61.5 95.1)" fill="#005444"/>
<path d="M5.4 4.6H4.3V2.5V1.1L3.2 4.6H2.2L1.1 1.1V2.5V4.6H3.05176e-06V3.05176e-06H1.7L2.4 2.4L2.7 3.4L3 2.4L3.7 3.05176e-06H5.3V4.6H5.4Z" transform="translate(50.2998 95.3)" fill="#007A63"/>
<path d="M3.1 3.6H1.5L1.2 4.6H3.05176e-06L1.6 -3.05176e-06H3L4.6 4.6H3.4L3.1 3.6ZM2.8 2.8L2.5 1.7L2.3 0.999997L2.1 1.7L1.7 2.8H2.8Z" transform="translate(56.2998 95.2)" fill="#007A63"/>
<path d="M1.9 2.9H1.2V4.6H1.52588e-06V3.05176e-06H2.2C2.8 3.05176e-06 3.2 0.0999969 3.5 0.399997C3.8 0.699997 4 1 4 1.5C4 1.8 3.9 2.1 3.8 2.3C3.7 2.5 3.4 2.7 3.1 2.8L4.3 4.6H3L1.9 2.9ZM1.2 2H2C2.3 2 2.4 2 2.6 1.9C2.7 1.8 2.8 1.7 2.8 1.5C2.8 1.3 2.7 1.2 2.6 1.1C2.5 1 2.3 1 2 1H1.2V2Z" transform="translate(61.3994 95.3)" fill="#007A63"/>
<defs>
<linearGradient id="paint0_linear" x2="1" gradientUnits="userSpaceOnUse" gradientTransform="translate(18.7308 0.1993) scale(14.4786) rotate(90)">
<stop stop-color="#C0F9EB"/>
<stop offset="1" stop-color="#009377"/>
</linearGradient>
</defs>
</svg>
